<?xml version="1.0" encoding="utf-8" standalone="no"?>
<!DOCTYPE svg PUBLIC "-//W3C//DTD SVG 1.1//EN"
  "http://www.w3.org/Graphics/SVG/1.1/DTD/svg11.dtd">
<!-- Created with matplotlib (https://matplotlib.org/) -->
<svg height="360pt" version="1.1" viewBox="0 0 1440 360" width="1440pt" xmlns="http://www.w3.org/2000/svg" xmlns:xlink="http://www.w3.org/1999/xlink">
 <defs>
  <style type="text/css">
*{stroke-linecap:butt;stroke-linejoin:round;}
  </style>
 </defs>
 <g id="figure_1">
  <g id="patch_1">
   <path d="M 0 360 
L 1440 360 
L 1440 0 
L 0 0 
z
" style="fill:#ffffff;"/>
  </g>
  <g id="axes_1">
   <g id="patch_2">
    <path d="M 180 315 
L 699.069767 315 
L 699.069767 43.2 
L 180 43.2 
z
" style="fill:#ffffff;"/>
   </g>
   <g id="patch_3">
    <path clip-path="url(#p08aeeb7756)" d="M 218.911826 110.282554 
L 244.165858 110.282554 
L 244.165858 96.403404 
L 218.911826 96.403404 
L 218.911826 110.282554 
z
" style="fill:#cb3335;stroke:#484848;stroke-linejoin:miter;"/>
   </g>
   <g id="patch_4">
    <path clip-path="url(#p08aeeb7756)" d="M 244.681247 117.222127 
L 269.93528 117.222127 
L 269.93528 103.342979 
L 244.681247 103.342979 
L 244.681247 117.222127 
z
" style="fill:#477ca8;stroke:#484848;stroke-linejoin:miter;"/>
   </g>
   <g id="patch_5">
    <path clip-path="url(#p08aeeb7756)" d="M 270.450668 121.848511 
L 295.704701 121.848511 
L 295.704701 112.301695 
L 270.450668 112.301695 
L 270.450668 121.848511 
z
" style="fill:#59a257;stroke:#484848;stroke-linejoin:miter;"/>
   </g>
   <g id="patch_6">
    <path clip-path="url(#p08aeeb7756)" d="M 329.352202 107.969362 
L 354.606235 107.969362 
L 354.606235 101.029787 
L 329.352202 101.029787 
L 329.352202 107.969362 
z
" style="fill:#cb3335;stroke:#484848;stroke-linejoin:miter;"/>
   </g>
   <g id="patch_7">
    <path clip-path="url(#p08aeeb7756)" d="M 355.121623 114.908936 
L 380.375656 114.908936 
L 380.375656 101.029787 
L 355.121623 101.029787 
L 355.121623 114.908936 
z
" style="fill:#477ca8;stroke:#484848;stroke-linejoin:miter;"/>
   </g>
   <g id="patch_8">
    <path clip-path="url(#p08aeeb7756)" d="M 380.891044 124.161702 
L 406.145077 124.161702 
L 406.145077 110.282554 
L 380.891044 110.282554 
L 380.891044 124.161702 
z
" style="fill:#59a257;stroke:#484848;stroke-linejoin:miter;"/>
   </g>
   <g id="patch_9">
    <path clip-path="url(#p08aeeb7756)" d="M 439.792578 126.474894 
L 465.046611 126.474894 
L 465.046611 103.342979 
L 439.792578 103.342979 
L 439.792578 126.474894 
z
" style="fill:#cb3335;stroke:#484848;stroke-linejoin:miter;"/>
   </g>
   <g id="patch_10">
    <path clip-path="url(#p08aeeb7756)" d="M 465.561999 114.908936 
L 490.816032 114.908936 
L 490.816032 96.177967 
L 465.561999 96.177967 
L 465.561999 114.908936 
z
" style="fill:#477ca8;stroke:#484848;stroke-linejoin:miter;"/>
   </g>
   <g id="patch_11">
    <path clip-path="url(#p08aeeb7756)" d="M 491.33142 103.342979 
L 516.585453 103.342979 
L 516.585453 80.211064 
L 491.33142 80.211064 
L 491.33142 103.342979 
z
" style="fill:#59a257;stroke:#484848;stroke-linejoin:miter;"/>
   </g>
   <g id="patch_12">
    <path clip-path="url(#p08aeeb7756)" d="M 550.232954 101.029787 
L 575.486987 101.029787 
L 575.486987 91.777021 
L 550.232954 91.777021 
L 550.232954 101.029787 
z
" style="fill:#cb3335;stroke:#484848;stroke-linejoin:miter;"/>
   </g>
   <g id="patch_13">
    <path clip-path="url(#p08aeeb7756)" d="M 576.002375 114.908936 
L 601.256408 114.908936 
L 601.256408 110.282554 
L 576.002375 110.282554 
L 576.002375 114.908936 
z
" style="fill:#477ca8;stroke:#484848;stroke-linejoin:miter;"/>
   </g>
   <g id="patch_14">
    <path clip-path="url(#p08aeeb7756)" d="M 601.771796 124.161702 
L 627.025829 124.161702 
L 627.025829 91.777021 
L 601.771796 91.777021 
L 601.771796 124.161702 
z
" style="fill:#59a257;stroke:#484848;stroke-linejoin:miter;"/>
   </g>
   <g id="patch_15">
    <path clip-path="url(#p08aeeb7756)" d="M 257.308263 1130.4 
L 257.308263 1130.4 
L 257.308263 1130.4 
L 257.308263 1130.4 
z
" style="fill:#cb3335;stroke:#484848;stroke-linejoin:miter;stroke-width:0.5;"/>
   </g>
   <g id="patch_16">
    <path clip-path="url(#p08aeeb7756)" d="M 257.308263 1130.4 
L 257.308263 1130.4 
L 257.308263 1130.4 
L 257.308263 1130.4 
z
" style="fill:#477ca8;stroke:#484848;stroke-linejoin:miter;stroke-width:0.5;"/>
   </g>
   <g id="patch_17">
    <path clip-path="url(#p08aeeb7756)" d="M 257.308263 1130.4 
L 257.308263 1130.4 
L 257.308263 1130.4 
L 257.308263 1130.4 
z
" style="fill:#59a257;stroke:#484848;stroke-linejoin:miter;stroke-width:0.5;"/>
   </g>
   <g id="matplotlib.axis_1">
    <g id="xtick_1">
     <g id="line2d_1">
      <defs>
       <path d="M 0 0 
L 0 3.5 
" id="mb0fff4a723" style="stroke:#000000;stroke-width:0.8;"/>
      </defs>
      <g>
       <use style="stroke:#000000;stroke-width:0.8;" x="257.308263" xlink:href="#mb0fff4a723" y="315"/>
      </g>
     </g>
     <g id="text_1">
      <!-- LR -->
      <defs>
       <path d="M 9.8125 72.90625 
L 19.671875 72.90625 
L 19.671875 8.296875 
L 55.171875 8.296875 
L 55.171875 0 
L 9.8125 0 
z
" id="DejaVuSans-76"/>
       <path d="M 44.390625 34.1875 
Q 47.5625 33.109375 50.5625 29.59375 
Q 53.5625 26.078125 56.59375 19.921875 
L 66.609375 0 
L 56 0 
L 46.6875 18.703125 
Q 43.0625 26.03125 39.671875 28.421875 
Q 36.28125 30.8125 30.421875 30.8125 
L 19.671875 30.8125 
L 19.671875 0 
L 9.8125 0 
L 9.8125 72.90625 
L 32.078125 72.90625 
Q 44.578125 72.90625 50.734375 67.671875 
Q 56.890625 62.453125 56.890625 51.90625 
Q 56.890625 45.015625 53.6875 40.46875 
Q 50.484375 35.9375 44.390625 34.1875 
z
M 19.671875 64.796875 
L 19.671875 38.921875 
L 32.078125 38.921875 
Q 39.203125 38.921875 42.84375 42.21875 
Q 46.484375 45.515625 46.484375 51.90625 
Q 46.484375 58.296875 42.84375 61.546875 
Q 39.203125 64.796875 32.078125 64.796875 
z
" id="DejaVuSans-82"/>
      </defs>
      <g transform="translate(248.293638 332.94175)scale(0.144 -0.144)">
       <use xlink:href="#DejaVuSans-76"/>
       <use x="55.712891" xlink:href="#DejaVuSans-82"/>
      </g>
     </g>
    </g>
    <g id="xtick_2">
     <g id="line2d_2">
      <g>
       <use style="stroke:#000000;stroke-width:0.8;" x="367.748639" xlink:href="#mb0fff4a723" y="315"/>
      </g>
     </g>
     <g id="text_2">
      <!-- SVM -->
      <defs>
       <path d="M 53.515625 70.515625 
L 53.515625 60.890625 
Q 47.90625 63.578125 42.921875 64.890625 
Q 37.9375 66.21875 33.296875 66.21875 
Q 25.25 66.21875 20.875 63.09375 
Q 16.5 59.96875 16.5 54.203125 
Q 16.5 49.359375 19.40625 46.890625 
Q 22.3125 44.4375 30.421875 42.921875 
L 36.375 41.703125 
Q 47.40625 39.59375 52.65625 34.296875 
Q 57.90625 29 57.90625 20.125 
Q 57.90625 9.515625 50.796875 4.046875 
Q 43.703125 -1.421875 29.984375 -1.421875 
Q 24.8125 -1.421875 18.96875 -0.25 
Q 13.140625 0.921875 6.890625 3.21875 
L 6.890625 13.375 
Q 12.890625 10.015625 18.65625 8.296875 
Q 24.421875 6.59375 29.984375 6.59375 
Q 38.421875 6.59375 43.015625 9.90625 
Q 47.609375 13.234375 47.609375 19.390625 
Q 47.609375 24.75 44.3125 27.78125 
Q 41.015625 30.8125 33.5 32.328125 
L 27.484375 33.5 
Q 16.453125 35.6875 11.515625 40.375 
Q 6.59375 45.0625 6.59375 53.421875 
Q 6.59375 63.09375 13.40625 68.65625 
Q 20.21875 74.21875 32.171875 74.21875 
Q 37.3125 74.21875 42.625 73.28125 
Q 47.953125 72.359375 53.515625 70.515625 
z
" id="DejaVuSans-83"/>
       <path d="M 28.609375 0 
L 0.78125 72.90625 
L 11.078125 72.90625 
L 34.1875 11.53125 
L 57.328125 72.90625 
L 67.578125 72.90625 
L 39.796875 0 
z
" id="DejaVuSans-86"/>
       <path d="M 9.8125 72.90625 
L 24.515625 72.90625 
L 43.109375 23.296875 
L 61.8125 72.90625 
L 76.515625 72.90625 
L 76.515625 0 
L 66.890625 0 
L 66.890625 64.015625 
L 48.09375 14.015625 
L 38.1875 14.015625 
L 19.390625 64.015625 
L 19.390625 0 
L 9.8125 0 
z
" id="DejaVuSans-77"/>
      </defs>
      <g transform="translate(352.040264 332.94175)scale(0.144 -0.144)">
       <use xlink:href="#DejaVuSans-83"/>
       <use x="63.476562" xlink:href="#DejaVuSans-86"/>
       <use x="131.884766" xlink:href="#DejaVuSans-77"/>
      </g>
     </g>
    </g>
    <g id="xtick_3">
     <g id="line2d_3">
      <g>
       <use style="stroke:#000000;stroke-width:0.8;" x="478.189015" xlink:href="#mb0fff4a723" y="315"/>
      </g>
     </g>
     <g id="text_3">
      <!-- RF -->
      <defs>
       <path d="M 9.8125 72.90625 
L 51.703125 72.90625 
L 51.703125 64.59375 
L 19.671875 64.59375 
L 19.671875 43.109375 
L 48.578125 43.109375 
L 48.578125 34.8125 
L 19.671875 34.8125 
L 19.671875 0 
L 9.8125 0 
z
" id="DejaVuSans-70"/>
      </defs>
      <g transform="translate(469.045015 332.94175)scale(0.144 -0.144)">
       <use xlink:href="#DejaVuSans-82"/>
       <use x="69.482422" xlink:href="#DejaVuSans-70"/>
      </g>
     </g>
    </g>
    <g id="xtick_4">
     <g id="line2d_4">
      <g>
       <use style="stroke:#000000;stroke-width:0.8;" x="588.629391" xlink:href="#mb0fff4a723" y="315"/>
      </g>
     </g>
     <g id="text_4">
      <!-- ANN -->
      <defs>
       <path d="M 34.1875 63.1875 
L 20.796875 26.90625 
L 47.609375 26.90625 
z
M 28.609375 72.90625 
L 39.796875 72.90625 
L 67.578125 0 
L 57.328125 0 
L 50.6875 18.703125 
L 17.828125 18.703125 
L 11.1875 0 
L 0.78125 0 
z
" id="DejaVuSans-65"/>
       <path d="M 9.8125 72.90625 
L 23.09375 72.90625 
L 55.421875 11.921875 
L 55.421875 72.90625 
L 64.984375 72.90625 
L 64.984375 0 
L 51.703125 0 
L 19.390625 60.984375 
L 19.390625 0 
L 9.8125 0 
z
" id="DejaVuSans-78"/>
      </defs>
      <g transform="translate(572.931141 332.94175)scale(0.144 -0.144)">
       <use xlink:href="#DejaVuSans-65"/>
       <use x="68.408203" xlink:href="#DejaVuSans-78"/>
       <use x="143.212891" xlink:href="#DejaVuSans-78"/>
      </g>
     </g>
    </g>
    <g id="text_5">
     <!-- Food Dye (With Ref Region) -->
     <defs>
      <path d="M 30.609375 48.390625 
Q 23.390625 48.390625 19.1875 42.75 
Q 14.984375 37.109375 14.984375 27.296875 
Q 14.984375 17.484375 19.15625 11.84375 
Q 23.34375 6.203125 30.609375 6.203125 
Q 37.796875 6.203125 41.984375 11.859375 
Q 46.1875 17.53125 46.1875 27.296875 
Q 46.1875 37.015625 41.984375 42.703125 
Q 37.796875 48.390625 30.609375 48.390625 
z
M 30.609375 56 
Q 42.328125 56 49.015625 48.375 
Q 55.71875 40.765625 55.71875 27.296875 
Q 55.71875 13.875 49.015625 6.21875 
Q 42.328125 -1.421875 30.609375 -1.421875 
Q 18.84375 -1.421875 12.171875 6.21875 
Q 5.515625 13.875 5.515625 27.296875 
Q 5.515625 40.765625 12.171875 48.375 
Q 18.84375 56 30.609375 56 
z
" id="DejaVuSans-111"/>
      <path d="M 45.40625 46.390625 
L 45.40625 75.984375 
L 54.390625 75.984375 
L 54.390625 0 
L 45.40625 0 
L 45.40625 8.203125 
Q 42.578125 3.328125 38.25 0.953125 
Q 33.9375 -1.421875 27.875 -1.421875 
Q 17.96875 -1.421875 11.734375 6.484375 
Q 5.515625 14.40625 5.515625 27.296875 
Q 5.515625 40.1875 11.734375 48.09375 
Q 17.96875 56 27.875 56 
Q 33.9375 56 38.25 53.625 
Q 42.578125 51.265625 45.40625 46.390625 
z
M 14.796875 27.296875 
Q 14.796875 17.390625 18.875 11.75 
Q 22.953125 6.109375 30.078125 6.109375 
Q 37.203125 6.109375 41.296875 11.75 
Q 45.40625 17.390625 45.40625 27.296875 
Q 45.40625 37.203125 41.296875 42.84375 
Q 37.203125 48.484375 30.078125 48.484375 
Q 22.953125 48.484375 18.875 42.84375 
Q 14.796875 37.203125 14.796875 27.296875 
z
" id="DejaVuSans-100"/>
      <path id="DejaVuSans-32"/>
      <path d="M 19.671875 64.796875 
L 19.671875 8.109375 
L 31.59375 8.109375 
Q 46.6875 8.109375 53.6875 14.9375 
Q 60.6875 21.78125 60.6875 36.53125 
Q 60.6875 51.171875 53.6875 57.984375 
Q 46.6875 64.796875 31.59375 64.796875 
z
M 9.8125 72.90625 
L 30.078125 72.90625 
Q 51.265625 72.90625 61.171875 64.09375 
Q 71.09375 55.28125 71.09375 36.53125 
Q 71.09375 17.671875 61.125 8.828125 
Q 51.171875 0 30.078125 0 
L 9.8125 0 
z
" id="DejaVuSans-68"/>
      <path d="M 32.171875 -5.078125 
Q 28.375 -14.84375 24.75 -17.8125 
Q 21.140625 -20.796875 15.09375 -20.796875 
L 7.90625 -20.796875 
L 7.90625 -13.28125 
L 13.1875 -13.28125 
Q 16.890625 -13.28125 18.9375 -11.515625 
Q 21 -9.765625 23.484375 -3.21875 
L 25.09375 0.875 
L 2.984375 54.6875 
L 12.5 54.6875 
L 29.59375 11.921875 
L 46.6875 54.6875 
L 56.203125 54.6875 
z
" id="DejaVuSans-121"/>
      <path d="M 56.203125 29.59375 
L 56.203125 25.203125 
L 14.890625 25.203125 
Q 15.484375 15.921875 20.484375 11.0625 
Q 25.484375 6.203125 34.421875 6.203125 
Q 39.59375 6.203125 44.453125 7.46875 
Q 49.3125 8.734375 54.109375 11.28125 
L 54.109375 2.78125 
Q 49.265625 0.734375 44.1875 -0.34375 
Q 39.109375 -1.421875 33.890625 -1.421875 
Q 20.796875 -1.421875 13.15625 6.1875 
Q 5.515625 13.8125 5.515625 26.8125 
Q 5.515625 40.234375 12.765625 48.109375 
Q 20.015625 56 32.328125 56 
Q 43.359375 56 49.78125 48.890625 
Q 56.203125 41.796875 56.203125 29.59375 
z
M 47.21875 32.234375 
Q 47.125 39.59375 43.09375 43.984375 
Q 39.0625 48.390625 32.421875 48.390625 
Q 24.90625 48.390625 20.390625 44.140625 
Q 15.875 39.890625 15.1875 32.171875 
z
" id="DejaVuSans-101"/>
      <path d="M 31 75.875 
Q 24.46875 64.65625 21.28125 53.65625 
Q 18.109375 42.671875 18.109375 31.390625 
Q 18.109375 20.125 21.3125 9.0625 
Q 24.515625 -2 31 -13.1875 
L 23.1875 -13.1875 
Q 15.875 -1.703125 12.234375 9.375 
Q 8.59375 20.453125 8.59375 31.390625 
Q 8.59375 42.28125 12.203125 53.3125 
Q 15.828125 64.359375 23.1875 75.875 
z
" id="DejaVuSans-40"/>
      <path d="M 3.328125 72.90625 
L 13.28125 72.90625 
L 28.609375 11.28125 
L 43.890625 72.90625 
L 54.984375 72.90625 
L 70.3125 11.28125 
L 85.59375 72.90625 
L 95.609375 72.90625 
L 77.296875 0 
L 64.890625 0 
L 49.515625 63.28125 
L 33.984375 0 
L 21.578125 0 
z
" id="DejaVuSans-87"/>
      <path d="M 9.421875 54.6875 
L 18.40625 54.6875 
L 18.40625 0 
L 9.421875 0 
z
M 9.421875 75.984375 
L 18.40625 75.984375 
L 18.40625 64.59375 
L 9.421875 64.59375 
z
" id="DejaVuSans-105"/>
      <path d="M 18.3125 70.21875 
L 18.3125 54.6875 
L 36.8125 54.6875 
L 36.8125 47.703125 
L 18.3125 47.703125 
L 18.3125 18.015625 
Q 18.3125 11.328125 20.140625 9.421875 
Q 21.96875 7.515625 27.59375 7.515625 
L 36.8125 7.515625 
L 36.8125 0 
L 27.59375 0 
Q 17.1875 0 13.234375 3.875 
Q 9.28125 7.765625 9.28125 18.015625 
L 9.28125 47.703125 
L 2.6875 47.703125 
L 2.6875 54.6875 
L 9.28125 54.6875 
L 9.28125 70.21875 
z
" id="DejaVuSans-116"/>
      <path d="M 54.890625 33.015625 
L 54.890625 0 
L 45.90625 0 
L 45.90625 32.71875 
Q 45.90625 40.484375 42.875 44.328125 
Q 39.84375 48.1875 33.796875 48.1875 
Q 26.515625 48.1875 22.3125 43.546875 
Q 18.109375 38.921875 18.109375 30.90625 
L 18.109375 0 
L 9.078125 0 
L 9.078125 75.984375 
L 18.109375 75.984375 
L 18.109375 46.1875 
Q 21.34375 51.125 25.703125 53.5625 
Q 30.078125 56 35.796875 56 
Q 45.21875 56 50.046875 50.171875 
Q 54.890625 44.34375 54.890625 33.015625 
z
" id="DejaVuSans-104"/>
      <path d="M 37.109375 75.984375 
L 37.109375 68.5 
L 28.515625 68.5 
Q 23.6875 68.5 21.796875 66.546875 
Q 19.921875 64.59375 19.921875 59.515625 
L 19.921875 54.6875 
L 34.71875 54.6875 
L 34.71875 47.703125 
L 19.921875 47.703125 
L 19.921875 0 
L 10.890625 0 
L 10.890625 47.703125 
L 2.296875 47.703125 
L 2.296875 54.6875 
L 10.890625 54.6875 
L 10.890625 58.5 
Q 10.890625 67.625 15.140625 71.796875 
Q 19.390625 75.984375 28.609375 75.984375 
z
" id="DejaVuSans-102"/>
      <path d="M 45.40625 27.984375 
Q 45.40625 37.75 41.375 43.109375 
Q 37.359375 48.484375 30.078125 48.484375 
Q 22.859375 48.484375 18.828125 43.109375 
Q 14.796875 37.75 14.796875 27.984375 
Q 14.796875 18.265625 18.828125 12.890625 
Q 22.859375 7.515625 30.078125 7.515625 
Q 37.359375 7.515625 41.375 12.890625 
Q 45.40625 18.265625 45.40625 27.984375 
z
M 54.390625 6.78125 
Q 54.390625 -7.171875 48.1875 -13.984375 
Q 42 -20.796875 29.203125 -20.796875 
Q 24.46875 -20.796875 20.265625 -20.09375 
Q 16.0625 -19.390625 12.109375 -17.921875 
L 12.109375 -9.1875 
Q 16.0625 -11.328125 19.921875 -12.34375 
Q 23.78125 -13.375 27.78125 -13.375 
Q 36.625 -13.375 41.015625 -8.765625 
Q 45.40625 -4.15625 45.40625 5.171875 
L 45.40625 9.625 
Q 42.625 4.78125 38.28125 2.390625 
Q 33.9375 0 27.875 0 
Q 17.828125 0 11.671875 7.65625 
Q 5.515625 15.328125 5.515625 27.984375 
Q 5.515625 40.671875 11.671875 48.328125 
Q 17.828125 56 27.875 56 
Q 33.9375 56 38.28125 53.609375 
Q 42.625 51.21875 45.40625 46.390625 
L 45.40625 54.6875 
L 54.390625 54.6875 
z
" id="DejaVuSans-103"/>
      <path d="M 54.890625 33.015625 
L 54.890625 0 
L 45.90625 0 
L 45.90625 32.71875 
Q 45.90625 40.484375 42.875 44.328125 
Q 39.84375 48.1875 33.796875 48.1875 
Q 26.515625 48.1875 22.3125 43.546875 
Q 18.109375 38.921875 18.109375 30.90625 
L 18.109375 0 
L 9.078125 0 
L 9.078125 54.6875 
L 18.109375 54.6875 
L 18.109375 46.1875 
Q 21.34375 51.125 25.703125 53.5625 
Q 30.078125 56 35.796875 56 
Q 45.21875 56 50.046875 50.171875 
Q 54.890625 44.34375 54.890625 33.015625 
z
" id="DejaVuSans-110"/>
      <path d="M 8.015625 75.875 
L 15.828125 75.875 
Q 23.140625 64.359375 26.78125 53.3125 
Q 30.421875 42.28125 30.421875 31.390625 
Q 30.421875 20.453125 26.78125 9.375 
Q 23.140625 -1.703125 15.828125 -13.1875 
L 8.015625 -13.1875 
Q 14.5 -2 17.703125 9.0625 
Q 20.90625 20.125 20.90625 31.390625 
Q 20.90625 42.671875 17.703125 53.65625 
Q 14.5 64.65625 8.015625 75.875 
z
" id="DejaVuSans-41"/>
     </defs>
     <g transform="translate(339.574134 350.87825)scale(0.144 -0.144)">
      <use xlink:href="#DejaVuSans-70"/>
      <use x="57.472656" xlink:href="#DejaVuSans-111"/>
      <use x="118.654297" xlink:href="#DejaVuSans-111"/>
      <use x="179.835938" xlink:href="#DejaVuSans-100"/>
      <use x="243.3125" xlink:href="#DejaVuSans-32"/>
      <use x="275.099609" xlink:href="#DejaVuSans-68"/>
      <use x="352.101562" xlink:href="#DejaVuSans-121"/>
      <use x="411.28125" xlink:href="#DejaVuSans-101"/>
      <use x="472.804688" xlink:href="#DejaVuSans-32"/>
      <use x="504.591797" xlink:href="#DejaVuSans-40"/>
      <use x="543.605469" xlink:href="#DejaVuSans-87"/>
      <use x="642.451172" xlink:href="#DejaVuSans-105"/>
      <use x="670.234375" xlink:href="#DejaVuSans-116"/>
      <use x="709.443359" xlink:href="#DejaVuSans-104"/>
      <use x="772.822266" xlink:href="#DejaVuSans-32"/>
      <use x="804.609375" xlink:href="#DejaVuSans-82"/>
      <use x="874.029297" xlink:href="#DejaVuSans-101"/>
      <use x="935.552734" xlink:href="#DejaVuSans-102"/>
      <use x="970.757812" xlink:href="#DejaVuSans-32"/>
      <use x="1002.544922" xlink:href="#DejaVuSans-82"/>
      <use x="1071.964844" xlink:href="#DejaVuSans-101"/>
      <use x="1133.488281" xlink:href="#DejaVuSans-103"/>
      <use x="1196.964844" xlink:href="#DejaVuSans-105"/>
      <use x="1224.748047" xlink:href="#DejaVuSans-111"/>
      <use x="1285.929688" xlink:href="#DejaVuSans-110"/>
      <use x="1349.308594" xlink:href="#DejaVuSans-41"/>
     </g>
    </g>
   </g>
   <g id="matplotlib.axis_2">
    <g id="ytick_1">
     <g id="line2d_5">
      <defs>
       <path d="M 0 0 
L -3.5 0 
" id="m0ff1366e87" style="stroke:#000000;stroke-width:0.8;"/>
      </defs>
      <g>
       <use style="stroke:#000000;stroke-width:0.8;" x="180" xlink:href="#m0ff1366e87" y="315"/>
      </g>
     </g>
     <g id="text_6">
      <!-- 0.75 -->
      <defs>
       <path d="M 31.78125 66.40625 
Q 24.171875 66.40625 20.328125 58.90625 
Q 16.5 51.421875 16.5 36.375 
Q 16.5 21.390625 20.328125 13.890625 
Q 24.171875 6.390625 31.78125 6.390625 
Q 39.453125 6.390625 43.28125 13.890625 
Q 47.125 21.390625 47.125 36.375 
Q 47.125 51.421875 43.28125 58.90625 
Q 39.453125 66.40625 31.78125 66.40625 
z
M 31.78125 74.21875 
Q 44.046875 74.21875 50.515625 64.515625 
Q 56.984375 54.828125 56.984375 36.375 
Q 56.984375 17.96875 50.515625 8.265625 
Q 44.046875 -1.421875 31.78125 -1.421875 
Q 19.53125 -1.421875 13.0625 8.265625 
Q 6.59375 17.96875 6.59375 36.375 
Q 6.59375 54.828125 13.0625 64.515625 
Q 19.53125 74.21875 31.78125 74.21875 
z
" id="DejaVuSans-48"/>
       <path d="M 10.6875 12.40625 
L 21 12.40625 
L 21 0 
L 10.6875 0 
z
" id="DejaVuSans-46"/>
       <path d="M 8.203125 72.90625 
L 55.078125 72.90625 
L 55.078125 68.703125 
L 28.609375 0 
L 18.3125 0 
L 43.21875 64.59375 
L 8.203125 64.59375 
z
" id="DejaVuSans-55"/>
       <path d="M 10.796875 72.90625 
L 49.515625 72.90625 
L 49.515625 64.59375 
L 19.828125 64.59375 
L 19.828125 46.734375 
Q 21.96875 47.46875 24.109375 47.828125 
Q 26.265625 48.1875 28.421875 48.1875 
Q 40.625 48.1875 47.75 41.5 
Q 54.890625 34.8125 54.890625 23.390625 
Q 54.890625 11.625 47.5625 5.09375 
Q 40.234375 -1.421875 26.90625 -1.421875 
Q 22.3125 -1.421875 17.546875 -0.640625 
Q 12.796875 0.140625 7.71875 1.703125 
L 7.71875 11.625 
Q 12.109375 9.234375 16.796875 8.0625 
Q 21.484375 6.890625 26.703125 6.890625 
Q 35.15625 6.890625 40.078125 11.328125 
Q 45.015625 15.765625 45.015625 23.390625 
Q 45.015625 31 40.078125 35.4375 
Q 35.15625 39.890625 26.703125 39.890625 
Q 22.75 39.890625 18.8125 39.015625 
Q 14.890625 38.140625 10.796875 36.28125 
z
" id="DejaVuSans-53"/>
      </defs>
      <g transform="translate(140.9375 320.470875)scale(0.144 -0.144)">
       <use xlink:href="#DejaVuSans-48"/>
       <use x="63.623047" xlink:href="#DejaVuSans-46"/>
       <use x="95.410156" xlink:href="#DejaVuSans-55"/>
       <use x="159.033203" xlink:href="#DejaVuSans-53"/>
      </g>
     </g>
    </g>
    <g id="ytick_2">
     <g id="line2d_6">
      <g>
       <use style="stroke:#000000;stroke-width:0.8;" x="180" xlink:href="#m0ff1366e87" y="260.64"/>
      </g>
     </g>
     <g id="text_7">
      <!-- 0.80 -->
      <defs>
       <path d="M 31.78125 34.625 
Q 24.75 34.625 20.71875 30.859375 
Q 16.703125 27.09375 16.703125 20.515625 
Q 16.703125 13.921875 20.71875 10.15625 
Q 24.75 6.390625 31.78125 6.390625 
Q 38.8125 6.390625 42.859375 10.171875 
Q 46.921875 13.96875 46.921875 20.515625 
Q 46.921875 27.09375 42.890625 30.859375 
Q 38.875 34.625 31.78125 34.625 
z
M 21.921875 38.8125 
Q 15.578125 40.375 12.03125 44.71875 
Q 8.5 49.078125 8.5 55.328125 
Q 8.5 64.0625 14.71875 69.140625 
Q 20.953125 74.21875 31.78125 74.21875 
Q 42.671875 74.21875 48.875 69.140625 
Q 55.078125 64.0625 55.078125 55.328125 
Q 55.078125 49.078125 51.53125 44.71875 
Q 48 40.375 41.703125 38.8125 
Q 48.828125 37.15625 52.796875 32.3125 
Q 56.78125 27.484375 56.78125 20.515625 
Q 56.78125 9.90625 50.3125 4.234375 
Q 43.84375 -1.421875 31.78125 -1.421875 
Q 19.734375 -1.421875 13.25 4.234375 
Q 6.78125 9.90625 6.78125 20.515625 
Q 6.78125 27.484375 10.78125 32.3125 
Q 14.796875 37.15625 21.921875 38.8125 
z
M 18.3125 54.390625 
Q 18.3125 48.734375 21.84375 45.5625 
Q 25.390625 42.390625 31.78125 42.390625 
Q 38.140625 42.390625 41.71875 45.5625 
Q 45.3125 48.734375 45.3125 54.390625 
Q 45.3125 60.0625 41.71875 63.234375 
Q 38.140625 66.40625 31.78125 66.40625 
Q 25.390625 66.40625 21.84375 63.234375 
Q 18.3125 60.0625 18.3125 54.390625 
z
" id="DejaVuSans-56"/>
      </defs>
      <g transform="translate(140.9375 266.110875)scale(0.144 -0.144)">
       <use xlink:href="#DejaVuSans-48"/>
       <use x="63.623047" xlink:href="#DejaVuSans-46"/>
       <use x="95.410156" xlink:href="#DejaVuSans-56"/>
       <use x="159.033203" xlink:href="#DejaVuSans-48"/>
      </g>
     </g>
    </g>
    <g id="ytick_3">
     <g id="line2d_7">
      <g>
       <use style="stroke:#000000;stroke-width:0.8;" x="180" xlink:href="#m0ff1366e87" y="206.28"/>
      </g>
     </g>
     <g id="text_8">
      <!-- 0.85 -->
      <g transform="translate(140.9375 211.750875)scale(0.144 -0.144)">
       <use xlink:href="#DejaVuSans-48"/>
       <use x="63.623047" xlink:href="#DejaVuSans-46"/>
       <use x="95.410156" xlink:href="#DejaVuSans-56"/>
       <use x="159.033203" xlink:href="#DejaVuSans-53"/>
      </g>
     </g>
    </g>
    <g id="ytick_4">
     <g id="line2d_8">
      <g>
       <use style="stroke:#000000;stroke-width:0.8;" x="180" xlink:href="#m0ff1366e87" y="151.92"/>
      </g>
     </g>
     <g id="text_9">
      <!-- 0.90 -->
      <defs>
       <path d="M 10.984375 1.515625 
L 10.984375 10.5 
Q 14.703125 8.734375 18.5 7.8125 
Q 22.3125 6.890625 25.984375 6.890625 
Q 35.75 6.890625 40.890625 13.453125 
Q 46.046875 20.015625 46.78125 33.40625 
Q 43.953125 29.203125 39.59375 26.953125 
Q 35.25 24.703125 29.984375 24.703125 
Q 19.046875 24.703125 12.671875 31.3125 
Q 6.296875 37.9375 6.296875 49.421875 
Q 6.296875 60.640625 12.9375 67.421875 
Q 19.578125 74.21875 30.609375 74.21875 
Q 43.265625 74.21875 49.921875 64.515625 
Q 56.59375 54.828125 56.59375 36.375 
Q 56.59375 19.140625 48.40625 8.859375 
Q 40.234375 -1.421875 26.421875 -1.421875 
Q 22.703125 -1.421875 18.890625 -0.6875 
Q 15.09375 0.046875 10.984375 1.515625 
z
M 30.609375 32.421875 
Q 37.25 32.421875 41.125 36.953125 
Q 45.015625 41.5 45.015625 49.421875 
Q 45.015625 57.28125 41.125 61.84375 
Q 37.25 66.40625 30.609375 66.40625 
Q 23.96875 66.40625 20.09375 61.84375 
Q 16.21875 57.28125 16.21875 49.421875 
Q 16.21875 41.5 20.09375 36.953125 
Q 23.96875 32.421875 30.609375 32.421875 
z
" id="DejaVuSans-57"/>
      </defs>
      <g transform="translate(140.9375 157.390875)scale(0.144 -0.144)">
       <use xlink:href="#DejaVuSans-48"/>
       <use x="63.623047" xlink:href="#DejaVuSans-46"/>
       <use x="95.410156" xlink:href="#DejaVuSans-57"/>
       <use x="159.033203" xlink:href="#DejaVuSans-48"/>
      </g>
     </g>
    </g>
    <g id="ytick_5">
     <g id="line2d_9">
      <g>
       <use style="stroke:#000000;stroke-width:0.8;" x="180" xlink:href="#m0ff1366e87" y="97.56"/>
      </g>
     </g>
     <g id="text_10">
      <!-- 0.95 -->
      <g transform="translate(140.9375 103.030875)scale(0.144 -0.144)">
       <use xlink:href="#DejaVuSans-48"/>
       <use x="63.623047" xlink:href="#DejaVuSans-46"/>
       <use x="95.410156" xlink:href="#DejaVuSans-57"/>
       <use x="159.033203" xlink:href="#DejaVuSans-53"/>
      </g>
     </g>
    </g>
    <g id="ytick_6">
     <g id="line2d_10">
      <g>
       <use style="stroke:#000000;stroke-width:0.8;" x="180" xlink:href="#m0ff1366e87" y="43.2"/>
      </g>
     </g>
     <g id="text_11">
      <!-- 1.00 -->
      <defs>
       <path d="M 12.40625 8.296875 
L 28.515625 8.296875 
L 28.515625 63.921875 
L 10.984375 60.40625 
L 10.984375 69.390625 
L 28.421875 72.90625 
L 38.28125 72.90625 
L 38.28125 8.296875 
L 54.390625 8.296875 
L 54.390625 0 
L 12.40625 0 
z
" id="DejaVuSans-49"/>
      </defs>
      <g transform="translate(140.9375 48.670875)scale(0.144 -0.144)">
       <use xlink:href="#DejaVuSans-49"/>
       <use x="63.623047" xlink:href="#DejaVuSans-46"/>
       <use x="95.410156" xlink:href="#DejaVuSans-48"/>
       <use x="159.033203" xlink:href="#DejaVuSans-48"/>
      </g>
     </g>
    </g>
    <g id="text_12">
     <!-- Accuracy -->
     <defs>
      <path d="M 48.78125 52.59375 
L 48.78125 44.1875 
Q 44.96875 46.296875 41.140625 47.34375 
Q 37.3125 48.390625 33.40625 48.390625 
Q 24.65625 48.390625 19.8125 42.84375 
Q 14.984375 37.3125 14.984375 27.296875 
Q 14.984375 17.28125 19.8125 11.734375 
Q 24.65625 6.203125 33.40625 6.203125 
Q 37.3125 6.203125 41.140625 7.25 
Q 44.96875 8.296875 48.78125 10.40625 
L 48.78125 2.09375 
Q 45.015625 0.34375 40.984375 -0.53125 
Q 36.96875 -1.421875 32.421875 -1.421875 
Q 20.0625 -1.421875 12.78125 6.34375 
Q 5.515625 14.109375 5.515625 27.296875 
Q 5.515625 40.671875 12.859375 48.328125 
Q 20.21875 56 33.015625 56 
Q 37.15625 56 41.109375 55.140625 
Q 45.0625 54.296875 48.78125 52.59375 
z
" id="DejaVuSans-99"/>
      <path d="M 8.5 21.578125 
L 8.5 54.6875 
L 17.484375 54.6875 
L 17.484375 21.921875 
Q 17.484375 14.15625 20.5 10.265625 
Q 23.53125 6.390625 29.59375 6.390625 
Q 36.859375 6.390625 41.078125 11.03125 
Q 45.3125 15.671875 45.3125 23.6875 
L 45.3125 54.6875 
L 54.296875 54.6875 
L 54.296875 0 
L 45.3125 0 
L 45.3125 8.40625 
Q 42.046875 3.421875 37.71875 1 
Q 33.40625 -1.421875 27.6875 -1.421875 
Q 18.265625 -1.421875 13.375 4.4375 
Q 8.5 10.296875 8.5 21.578125 
z
M 31.109375 56 
z
" id="DejaVuSans-117"/>
      <path d="M 41.109375 46.296875 
Q 39.59375 47.171875 37.8125 47.578125 
Q 36.03125 48 33.890625 48 
Q 26.265625 48 22.1875 43.046875 
Q 18.109375 38.09375 18.109375 28.8125 
L 18.109375 0 
L 9.078125 0 
L 9.078125 54.6875 
L 18.109375 54.6875 
L 18.109375 46.1875 
Q 20.953125 51.171875 25.484375 53.578125 
Q 30.03125 56 36.53125 56 
Q 37.453125 56 38.578125 55.875 
Q 39.703125 55.765625 41.0625 55.515625 
z
" id="DejaVuSans-114"/>
      <path d="M 34.28125 27.484375 
Q 23.390625 27.484375 19.1875 25 
Q 14.984375 22.515625 14.984375 16.5 
Q 14.984375 11.71875 18.140625 8.90625 
Q 21.296875 6.109375 26.703125 6.109375 
Q 34.1875 6.109375 38.703125 11.40625 
Q 43.21875 16.703125 43.21875 25.484375 
L 43.21875 27.484375 
z
M 52.203125 31.203125 
L 52.203125 0 
L 43.21875 0 
L 43.21875 8.296875 
Q 40.140625 3.328125 35.546875 0.953125 
Q 30.953125 -1.421875 24.3125 -1.421875 
Q 15.921875 -1.421875 10.953125 3.296875 
Q 6 8.015625 6 15.921875 
Q 6 25.140625 12.171875 29.828125 
Q 18.359375 34.515625 30.609375 34.515625 
L 43.21875 34.515625 
L 43.21875 35.40625 
Q 43.21875 41.609375 39.140625 45 
Q 35.0625 48.390625 27.6875 48.390625 
Q 23 48.390625 18.546875 47.265625 
Q 14.109375 46.140625 10.015625 43.890625 
L 10.015625 52.203125 
Q 14.9375 54.109375 19.578125 55.046875 
Q 24.21875 56 28.609375 56 
Q 40.484375 56 46.34375 49.84375 
Q 52.203125 43.703125 52.203125 31.203125 
z
" id="DejaVuSans-97"/>
     </defs>
     <g transform="translate(133.94275 212.097375)rotate(-90)scale(0.144 -0.144)">
      <use xlink:href="#DejaVuSans-65"/>
      <use x="68.392578" xlink:href="#DejaVuSans-99"/>
      <use x="123.373047" xlink:href="#DejaVuSans-99"/>
      <use x="178.353516" xlink:href="#DejaVuSans-117"/>
      <use x="241.732422" xlink:href="#DejaVuSans-114"/>
      <use x="282.845703" xlink:href="#DejaVuSans-97"/>
      <use x="344.125" xlink:href="#DejaVuSans-99"/>
      <use x="399.105469" xlink:href="#DejaVuSans-121"/>
     </g>
    </g>
   </g>
   <g id="line2d_11">
    <path clip-path="url(#p08aeeb7756)" d="M 231.538842 110.282554 
L 231.538842 114.908936 
" style="fill:none;stroke:#484848;stroke-linecap:square;"/>
   </g>
   <g id="line2d_12">
    <path clip-path="url(#p08aeeb7756)" d="M 231.538842 96.403404 
L 231.538842 96.177967 
" style="fill:none;stroke:#484848;stroke-linecap:square;"/>
   </g>
   <g id="line2d_13">
    <path clip-path="url(#p08aeeb7756)" d="M 225.225334 114.908936 
L 237.85235 114.908936 
" style="fill:none;stroke:#484848;stroke-linecap:square;"/>
   </g>
   <g id="line2d_14">
    <path clip-path="url(#p08aeeb7756)" d="M 225.225334 96.177967 
L 237.85235 96.177967 
" style="fill:none;stroke:#484848;stroke-linecap:square;"/>
   </g>
   <g id="line2d_15"/>
   <g id="line2d_16">
    <path clip-path="url(#p08aeeb7756)" d="M 257.308263 117.222127 
L 257.308263 121.848511 
" style="fill:none;stroke:#484848;stroke-linecap:square;"/>
   </g>
   <g id="line2d_17">
    <path clip-path="url(#p08aeeb7756)" d="M 257.308263 103.342979 
L 257.308263 98.481356 
" style="fill:none;stroke:#484848;stroke-linecap:square;"/>
   </g>
   <g id="line2d_18">
    <path clip-path="url(#p08aeeb7756)" d="M 250.994755 121.848511 
L 263.621771 121.848511 
" style="fill:none;stroke:#484848;stroke-linecap:square;"/>
   </g>
   <g id="line2d_19">
    <path clip-path="url(#p08aeeb7756)" d="M 250.994755 98.481356 
L 263.621771 98.481356 
" style="fill:none;stroke:#484848;stroke-linecap:square;"/>
   </g>
   <g id="line2d_20"/>
   <g id="line2d_21">
    <path clip-path="url(#p08aeeb7756)" d="M 283.077684 121.848511 
L 283.077684 128.788085 
" style="fill:none;stroke:#484848;stroke-linecap:square;"/>
   </g>
   <g id="line2d_22">
    <path clip-path="url(#p08aeeb7756)" d="M 283.077684 112.301695 
L 283.077684 103.342979 
" style="fill:none;stroke:#484848;stroke-linecap:square;"/>
   </g>
   <g id="line2d_23">
    <path clip-path="url(#p08aeeb7756)" d="M 276.764176 128.788085 
L 289.391192 128.788085 
" style="fill:none;stroke:#484848;stroke-linecap:square;"/>
   </g>
   <g id="line2d_24">
    <path clip-path="url(#p08aeeb7756)" d="M 276.764176 103.342979 
L 289.391192 103.342979 
" style="fill:none;stroke:#484848;stroke-linecap:square;"/>
   </g>
   <g id="line2d_25"/>
   <g id="line2d_26">
    <path clip-path="url(#p08aeeb7756)" d="M 341.979218 107.969362 
L 341.979218 121.848511 
" style="fill:none;stroke:#484848;stroke-linecap:square;"/>
   </g>
   <g id="line2d_27">
    <path clip-path="url(#p08aeeb7756)" d="M 341.979218 101.029787 
L 341.979218 96.177967 
" style="fill:none;stroke:#484848;stroke-linecap:square;"/>
   </g>
   <g id="line2d_28">
    <path clip-path="url(#p08aeeb7756)" d="M 335.66571 121.848511 
L 348.292726 121.848511 
" style="fill:none;stroke:#484848;stroke-linecap:square;"/>
   </g>
   <g id="line2d_29">
    <path clip-path="url(#p08aeeb7756)" d="M 335.66571 96.177967 
L 348.292726 96.177967 
" style="fill:none;stroke:#484848;stroke-linecap:square;"/>
   </g>
   <g id="line2d_30"/>
   <g id="line2d_31">
    <path clip-path="url(#p08aeeb7756)" d="M 367.748639 114.908936 
L 367.748639 121.848511 
" style="fill:none;stroke:#484848;stroke-linecap:square;"/>
   </g>
   <g id="line2d_32">
    <path clip-path="url(#p08aeeb7756)" d="M 367.748639 101.029787 
L 367.748639 98.716596 
" style="fill:none;stroke:#484848;stroke-linecap:square;"/>
   </g>
   <g id="line2d_33">
    <path clip-path="url(#p08aeeb7756)" d="M 361.435131 121.848511 
L 374.062147 121.848511 
" style="fill:none;stroke:#484848;stroke-linecap:square;"/>
   </g>
   <g id="line2d_34">
    <path clip-path="url(#p08aeeb7756)" d="M 361.435131 98.716596 
L 374.062147 98.716596 
" style="fill:none;stroke:#484848;stroke-linecap:square;"/>
   </g>
   <g id="line2d_35"/>
   <g id="line2d_36">
    <path clip-path="url(#p08aeeb7756)" d="M 393.51806 124.161702 
L 393.51806 133.414468 
" style="fill:none;stroke:#484848;stroke-linecap:square;"/>
   </g>
   <g id="line2d_37">
    <path clip-path="url(#p08aeeb7756)" d="M 393.51806 110.282554 
L 393.51806 107.969362 
" style="fill:none;stroke:#484848;stroke-linecap:square;"/>
   </g>
   <g id="line2d_38">
    <path clip-path="url(#p08aeeb7756)" d="M 387.204552 133.414468 
L 399.831569 133.414468 
" style="fill:none;stroke:#484848;stroke-linecap:square;"/>
   </g>
   <g id="line2d_39">
    <path clip-path="url(#p08aeeb7756)" d="M 387.204552 107.969362 
L 399.831569 107.969362 
" style="fill:none;stroke:#484848;stroke-linecap:square;"/>
   </g>
   <g id="line2d_40"/>
   <g id="line2d_41">
    <path clip-path="url(#p08aeeb7756)" d="M 452.419594 126.474894 
L 452.419594 128.788085 
" style="fill:none;stroke:#484848;stroke-linecap:square;"/>
   </g>
   <g id="line2d_42">
    <path clip-path="url(#p08aeeb7756)" d="M 452.419594 103.342979 
L 452.419594 103.088136 
" style="fill:none;stroke:#484848;stroke-linecap:square;"/>
   </g>
   <g id="line2d_43">
    <path clip-path="url(#p08aeeb7756)" d="M 446.106086 128.788085 
L 458.733102 128.788085 
" style="fill:none;stroke:#484848;stroke-linecap:square;"/>
   </g>
   <g id="line2d_44">
    <path clip-path="url(#p08aeeb7756)" d="M 446.106086 103.088136 
L 458.733102 103.088136 
" style="fill:none;stroke:#484848;stroke-linecap:square;"/>
   </g>
   <g id="line2d_45"/>
   <g id="line2d_46">
    <path clip-path="url(#p08aeeb7756)" d="M 478.189015 114.908936 
L 478.189015 117.222127 
" style="fill:none;stroke:#484848;stroke-linecap:square;"/>
   </g>
   <g id="line2d_47">
    <path clip-path="url(#p08aeeb7756)" d="M 478.189015 96.177967 
L 478.189015 91.777021 
" style="fill:none;stroke:#484848;stroke-linecap:square;"/>
   </g>
   <g id="line2d_48">
    <path clip-path="url(#p08aeeb7756)" d="M 471.875507 117.222127 
L 484.502524 117.222127 
" style="fill:none;stroke:#484848;stroke-linecap:square;"/>
   </g>
   <g id="line2d_49">
    <path clip-path="url(#p08aeeb7756)" d="M 471.875507 91.777021 
L 484.502524 91.777021 
" style="fill:none;stroke:#484848;stroke-linecap:square;"/>
   </g>
   <g id="line2d_50"/>
   <g id="line2d_51">
    <path clip-path="url(#p08aeeb7756)" d="M 503.958436 103.342979 
L 503.958436 105.656171 
" style="fill:none;stroke:#484848;stroke-linecap:square;"/>
   </g>
   <g id="line2d_52">
    <path clip-path="url(#p08aeeb7756)" d="M 503.958436 80.211064 
L 503.958436 75.447458 
" style="fill:none;stroke:#484848;stroke-linecap:square;"/>
   </g>
   <g id="line2d_53">
    <path clip-path="url(#p08aeeb7756)" d="M 497.644928 105.656171 
L 510.271945 105.656171 
" style="fill:none;stroke:#484848;stroke-linecap:square;"/>
   </g>
   <g id="line2d_54">
    <path clip-path="url(#p08aeeb7756)" d="M 497.644928 75.447458 
L 510.271945 75.447458 
" style="fill:none;stroke:#484848;stroke-linecap:square;"/>
   </g>
   <g id="line2d_55"/>
   <g id="line2d_56">
    <path clip-path="url(#p08aeeb7756)" d="M 562.85997 101.029787 
L 562.85997 101.029787 
" style="fill:none;stroke:#484848;stroke-linecap:square;"/>
   </g>
   <g id="line2d_57">
    <path clip-path="url(#p08aeeb7756)" d="M 562.85997 91.777021 
L 562.85997 86.964406 
" style="fill:none;stroke:#484848;stroke-linecap:square;"/>
   </g>
   <g id="line2d_58">
    <path clip-path="url(#p08aeeb7756)" d="M 556.546462 101.029787 
L 569.173478 101.029787 
" style="fill:none;stroke:#484848;stroke-linecap:square;"/>
   </g>
   <g id="line2d_59">
    <path clip-path="url(#p08aeeb7756)" d="M 556.546462 86.964406 
L 569.173478 86.964406 
" style="fill:none;stroke:#484848;stroke-linecap:square;"/>
   </g>
   <g id="line2d_60">
    <defs>
     <path d="M 0 3.535534 
L 2.12132 0 
L 0 -3.535534 
L -2.12132 0 
z
" id="mcbd1902b57" style="stroke:#484848;stroke-linejoin:miter;"/>
    </defs>
    <g clip-path="url(#p08aeeb7756)">
     <use style="fill:#484848;stroke:#484848;stroke-linejoin:miter;" x="562.85997" xlink:href="#mcbd1902b57" y="126.474894"/>
    </g>
   </g>
   <g id="line2d_61">
    <path clip-path="url(#p08aeeb7756)" d="M 588.629391 114.908936 
L 588.629391 121.848511 
" style="fill:none;stroke:#484848;stroke-linecap:square;"/>
   </g>
   <g id="line2d_62">
    <path clip-path="url(#p08aeeb7756)" d="M 588.629391 110.282554 
L 588.629391 107.694915 
" style="fill:none;stroke:#484848;stroke-linecap:square;"/>
   </g>
   <g id="line2d_63">
    <path clip-path="url(#p08aeeb7756)" d="M 582.315883 121.848511 
L 594.9429 121.848511 
" style="fill:none;stroke:#484848;stroke-linecap:square;"/>
   </g>
   <g id="line2d_64">
    <path clip-path="url(#p08aeeb7756)" d="M 582.315883 107.694915 
L 594.9429 107.694915 
" style="fill:none;stroke:#484848;stroke-linecap:square;"/>
   </g>
   <g id="line2d_65"/>
   <g id="line2d_66">
    <path clip-path="url(#p08aeeb7756)" d="M 614.398812 124.161702 
L 614.398812 126.474894 
" style="fill:none;stroke:#484848;stroke-linecap:square;"/>
   </g>
   <g id="line2d_67">
    <path clip-path="url(#p08aeeb7756)" d="M 614.398812 91.777021 
L 614.398812 86.964406 
" style="fill:none;stroke:#484848;stroke-linecap:square;"/>
   </g>
   <g id="line2d_68">
    <path clip-path="url(#p08aeeb7756)" d="M 608.085304 126.474894 
L 620.712321 126.474894 
" style="fill:none;stroke:#484848;stroke-linecap:square;"/>
   </g>
   <g id="line2d_69">
    <path clip-path="url(#p08aeeb7756)" d="M 608.085304 86.964406 
L 620.712321 86.964406 
" style="fill:none;stroke:#484848;stroke-linecap:square;"/>
   </g>
   <g id="line2d_70"/>
   <g id="line2d_71">
    <path clip-path="url(#p08aeeb7756)" d="M 218.911826 101.029787 
L 244.165858 101.029787 
" style="fill:none;stroke:#484848;stroke-linecap:square;"/>
   </g>
   <g id="line2d_72">
    <path clip-path="url(#p08aeeb7756)" d="M 244.681247 105.656171 
L 269.93528 105.656171 
" style="fill:none;stroke:#484848;stroke-linecap:square;"/>
   </g>
   <g id="line2d_73">
    <path clip-path="url(#p08aeeb7756)" d="M 270.450668 114.908936 
L 295.704701 114.908936 
" style="fill:none;stroke:#484848;stroke-linecap:square;"/>
   </g>
   <g id="line2d_74">
    <path clip-path="url(#p08aeeb7756)" d="M 329.352202 103.342979 
L 354.606235 103.342979 
" style="fill:none;stroke:#484848;stroke-linecap:square;"/>
   </g>
   <g id="line2d_75">
    <path clip-path="url(#p08aeeb7756)" d="M 355.121623 103.088136 
L 380.375656 103.088136 
" style="fill:none;stroke:#484848;stroke-linecap:square;"/>
   </g>
   <g id="line2d_76">
    <path clip-path="url(#p08aeeb7756)" d="M 380.891044 114.605085 
L 406.145077 114.605085 
" style="fill:none;stroke:#484848;stroke-linecap:square;"/>
   </g>
   <g id="line2d_77">
    <path clip-path="url(#p08aeeb7756)" d="M 439.792578 121.848511 
L 465.046611 121.848511 
" style="fill:none;stroke:#484848;stroke-linecap:square;"/>
   </g>
   <g id="line2d_78">
    <path clip-path="url(#p08aeeb7756)" d="M 465.561999 114.908936 
L 490.816032 114.908936 
" style="fill:none;stroke:#484848;stroke-linecap:square;"/>
   </g>
   <g id="line2d_79">
    <path clip-path="url(#p08aeeb7756)" d="M 491.33142 89.463829 
L 516.585453 89.463829 
" style="fill:none;stroke:#484848;stroke-linecap:square;"/>
   </g>
   <g id="line2d_80">
    <path clip-path="url(#p08aeeb7756)" d="M 550.232954 98.716596 
L 575.486987 98.716596 
" style="fill:none;stroke:#484848;stroke-linecap:square;"/>
   </g>
   <g id="line2d_81">
    <path clip-path="url(#p08aeeb7756)" d="M 576.002375 112.595744 
L 601.256408 112.595744 
" style="fill:none;stroke:#484848;stroke-linecap:square;"/>
   </g>
   <g id="line2d_82">
    <path clip-path="url(#p08aeeb7756)" d="M 601.771796 101.029787 
L 627.025829 101.029787 
" style="fill:none;stroke:#484848;stroke-linecap:square;"/>
   </g>
   <g id="patch_18">
    <path d="M 180 315 
L 180 43.2 
" style="fill:none;stroke:#000000;stroke-linecap:square;stroke-linejoin:miter;stroke-width:0.8;"/>
   </g>
   <g id="patch_19">
    <path d="M 699.069767 315 
L 699.069767 43.2 
" style="fill:none;stroke:#000000;stroke-linecap:square;stroke-linejoin:miter;stroke-width:0.8;"/>
   </g>
   <g id="patch_20">
    <path d="M 180 315 
L 699.069767 315 
" style="fill:none;stroke:#000000;stroke-linecap:square;stroke-linejoin:miter;stroke-width:0.8;"/>
   </g>
   <g id="patch_21">
    <path d="M 180 43.2 
L 699.069767 43.2 
" style="fill:none;stroke:#000000;stroke-linecap:square;stroke-linejoin:miter;stroke-width:0.8;"/>
   </g>
   <g id="legend_1">
    <g id="patch_22">
     <path d="M 190.08 307.8 
L 295.48125 307.8 
Q 298.36125 307.8 298.36125 304.92 
L 298.36125 221.4135 
Q 298.36125 218.5335 295.48125 218.5335 
L 190.08 218.5335 
Q 187.2 218.5335 187.2 221.4135 
L 187.2 304.92 
Q 187.2 307.8 190.08 307.8 
z
" style="fill:#ffffff;opacity:0.8;stroke:#cccccc;stroke-linejoin:miter;"/>
    </g>
    <g id="text_13">
     <!-- color_channel -->
     <defs>
      <path d="M 9.421875 75.984375 
L 18.40625 75.984375 
L 18.40625 0 
L 9.421875 0 
z
" id="DejaVuSans-108"/>
      <path d="M 50.984375 -16.609375 
L 50.984375 -23.578125 
L -0.984375 -23.578125 
L -0.984375 -16.609375 
z
" id="DejaVuSans-95"/>
     </defs>
     <g transform="translate(192.96 235.23525)scale(0.144 -0.144)">
      <use xlink:href="#DejaVuSans-99"/>
      <use x="54.980469" xlink:href="#DejaVuSans-111"/>
      <use x="116.162109" xlink:href="#DejaVuSans-108"/>
      <use x="143.945312" xlink:href="#DejaVuSans-111"/>
      <use x="205.126953" xlink:href="#DejaVuSans-114"/>
      <use x="246.240234" xlink:href="#DejaVuSans-95"/>
      <use x="296.240234" xlink:href="#DejaVuSans-99"/>
      <use x="351.220703" xlink:href="#DejaVuSans-104"/>
      <use x="414.599609" xlink:href="#DejaVuSans-97"/>
      <use x="475.878906" xlink:href="#DejaVuSans-110"/>
      <use x="539.257812" xlink:href="#DejaVuSans-110"/>
      <use x="602.636719" xlink:href="#DejaVuSans-101"/>
      <use x="664.160156" xlink:href="#DejaVuSans-108"/>
     </g>
    </g>
    <g id="patch_23">
     <path d="M 207.099 256.77225 
L 235.899 256.77225 
L 235.899 246.69225 
L 207.099 246.69225 
z
" style="fill:#cb3335;stroke:#484848;stroke-linejoin:miter;stroke-width:0.5;"/>
    </g>
    <g id="text_14">
     <!-- RGB -->
     <defs>
      <path d="M 59.515625 10.40625 
L 59.515625 29.984375 
L 43.40625 29.984375 
L 43.40625 38.09375 
L 69.28125 38.09375 
L 69.28125 6.78125 
Q 63.578125 2.734375 56.6875 0.65625 
Q 49.8125 -1.421875 42 -1.421875 
Q 24.90625 -1.421875 15.25 8.5625 
Q 5.609375 18.5625 5.609375 36.375 
Q 5.609375 54.25 15.25 64.234375 
Q 24.90625 74.21875 42 74.21875 
Q 49.125 74.21875 55.546875 72.453125 
Q 61.96875 70.703125 67.390625 67.28125 
L 67.390625 56.78125 
Q 61.921875 61.421875 55.765625 63.765625 
Q 49.609375 66.109375 42.828125 66.109375 
Q 29.4375 66.109375 22.71875 58.640625 
Q 16.015625 51.171875 16.015625 36.375 
Q 16.015625 21.625 22.71875 14.15625 
Q 29.4375 6.6875 42.828125 6.6875 
Q 48.046875 6.6875 52.140625 7.59375 
Q 56.25 8.5 59.515625 10.40625 
z
" id="DejaVuSans-71"/>
      <path d="M 19.671875 34.8125 
L 19.671875 8.109375 
L 35.5 8.109375 
Q 43.453125 8.109375 47.28125 11.40625 
Q 51.125 14.703125 51.125 21.484375 
Q 51.125 28.328125 47.28125 31.5625 
Q 43.453125 34.8125 35.5 34.8125 
z
M 19.671875 64.796875 
L 19.671875 42.828125 
L 34.28125 42.828125 
Q 41.5 42.828125 45.03125 45.53125 
Q 48.578125 48.25 48.578125 53.8125 
Q 48.578125 59.328125 45.03125 62.0625 
Q 41.5 64.796875 34.28125 64.796875 
z
M 9.8125 72.90625 
L 35.015625 72.90625 
Q 46.296875 72.90625 52.390625 68.21875 
Q 58.5 63.53125 58.5 54.890625 
Q 58.5 48.1875 55.375 44.234375 
Q 52.25 40.28125 46.1875 39.3125 
Q 53.46875 37.75 57.5 32.78125 
Q 61.53125 27.828125 61.53125 20.40625 
Q 61.53125 10.640625 54.890625 5.3125 
Q 48.25 0 35.984375 0 
L 9.8125 0 
z
" id="DejaVuSans-66"/>
     </defs>
     <g transform="translate(247.419 256.77225)scale(0.144 -0.144)">
      <use xlink:href="#DejaVuSans-82"/>
      <use x="69.482422" xlink:href="#DejaVuSans-71"/>
      <use x="146.972656" xlink:href="#DejaVuSans-66"/>
     </g>
    </g>
    <g id="patch_24">
     <path d="M 207.099 277.90875 
L 235.899 277.90875 
L 235.899 267.82875 
L 207.099 267.82875 
z
" style="fill:#477ca8;stroke:#484848;stroke-linejoin:miter;stroke-width:0.5;"/>
    </g>
    <g id="text_15">
     <!-- LAB -->
     <g transform="translate(247.419 277.90875)scale(0.144 -0.144)">
      <use xlink:href="#DejaVuSans-76"/>
      <use x="55.744141" xlink:href="#DejaVuSans-65"/>
      <use x="124.152344" xlink:href="#DejaVuSans-66"/>
     </g>
    </g>
    <g id="patch_25">
     <path d="M 207.099 299.04525 
L 235.899 299.04525 
L 235.899 288.96525 
L 207.099 288.96525 
z
" style="fill:#59a257;stroke:#484848;stroke-linejoin:miter;stroke-width:0.5;"/>
    </g>
    <g id="text_16">
     <!-- HSV -->
     <defs>
      <path d="M 9.8125 72.90625 
L 19.671875 72.90625 
L 19.671875 43.015625 
L 55.515625 43.015625 
L 55.515625 72.90625 
L 65.375 72.90625 
L 65.375 0 
L 55.515625 0 
L 55.515625 34.71875 
L 19.671875 34.71875 
L 19.671875 0 
L 9.8125 0 
z
" id="DejaVuSans-72"/>
     </defs>
     <g transform="translate(247.419 299.04525)scale(0.144 -0.144)">
      <use xlink:href="#DejaVuSans-72"/>
      <use x="75.195312" xlink:href="#DejaVuSans-83"/>
      <use x="138.671875" xlink:href="#DejaVuSans-86"/>
     </g>
    </g>
   </g>
  </g>
  <g id="axes_2">
   <g id="patch_26">
    <path d="M 776.930233 315 
L 1296 315 
L 1296 43.2 
L 776.930233 43.2 
z
" style="fill:#ffffff;"/>
   </g>
   <g id="patch_27">
    <path clip-path="url(#p57af3a8a29)" d="M 815.842058 220.0512 
L 841.096091 220.0512 
L 841.096091 211.3536 
L 815.842058 211.3536 
L 815.842058 220.0512 
z
" style="fill:#cb3335;stroke:#484848;stroke-linejoin:miter;"/>
   </g>
   <g id="patch_28">
    <path clip-path="url(#p57af3a8a29)" d="M 841.611479 217.152 
L 866.865512 217.152 
L 866.865512 203.510992 
L 841.611479 203.510992 
L 841.611479 217.152 
z
" style="fill:#477ca8;stroke:#484848;stroke-linejoin:miter;"/>
   </g>
   <g id="patch_29">
    <path clip-path="url(#p57af3a8a29)" d="M 867.380901 222.9504 
L 892.634933 222.9504 
L 892.634933 212.255228 
L 867.380901 212.255228 
L 867.380901 222.9504 
z
" style="fill:#59a257;stroke:#484848;stroke-linejoin:miter;"/>
   </g>
   <g id="patch_30">
    <path clip-path="url(#p57af3a8a29)" d="M 926.282434 217.152 
L 951.536467 217.152 
L 951.536467 208.4544 
L 926.282434 208.4544 
L 926.282434 217.152 
z
" style="fill:#cb3335;stroke:#484848;stroke-linejoin:miter;"/>
   </g>
   <g id="patch_31">
    <path clip-path="url(#p57af3a8a29)" d="M 952.051856 222.9504 
L 977.305888 222.9504 
L 977.305888 214.710161 
L 952.051856 214.710161 
L 952.051856 222.9504 
z
" style="fill:#477ca8;stroke:#484848;stroke-linejoin:miter;"/>
   </g>
   <g id="patch_32">
    <path clip-path="url(#p57af3a8a29)" d="M 977.821277 228.7488 
L 1003.075309 228.7488 
L 1003.075309 205.5552 
L 977.821277 205.5552 
L 977.821277 228.7488 
z
" style="fill:#59a257;stroke:#484848;stroke-linejoin:miter;"/>
   </g>
   <g id="patch_33">
    <path clip-path="url(#p57af3a8a29)" d="M 1036.72281 199.7568 
L 1061.976843 199.7568 
L 1061.976843 171.105883 
L 1036.72281 171.105883 
L 1036.72281 199.7568 
z
" style="fill:#cb3335;stroke:#484848;stroke-linejoin:miter;"/>
   </g>
   <g id="patch_34">
    <path clip-path="url(#p57af3a8a29)" d="M 1062.492232 191.454545 
L 1087.746264 191.454545 
L 1087.746264 182.3616 
L 1062.492232 182.3616 
L 1062.492232 191.454545 
z
" style="fill:#477ca8;stroke:#484848;stroke-linejoin:miter;"/>
   </g>
   <g id="patch_35">
    <path clip-path="url(#p57af3a8a29)" d="M 1088.261653 180.19303 
L 1113.515685 180.19303 
L 1113.515685 170.7648 
L 1088.261653 170.7648 
L 1088.261653 180.19303 
z
" style="fill:#59a257;stroke:#484848;stroke-linejoin:miter;"/>
   </g>
   <g id="patch_36">
    <path clip-path="url(#p57af3a8a29)" d="M 1147.163187 209.340482 
L 1172.417219 209.340482 
L 1172.417219 185.2608 
L 1147.163187 185.2608 
L 1147.163187 209.340482 
z
" style="fill:#cb3335;stroke:#484848;stroke-linejoin:miter;"/>
   </g>
   <g id="patch_37">
    <path clip-path="url(#p57af3a8a29)" d="M 1172.932608 228.7488 
L 1198.18664 228.7488 
L 1198.18664 191.852011 
L 1172.932608 191.852011 
L 1172.932608 228.7488 
z
" style="fill:#477ca8;stroke:#484848;stroke-linejoin:miter;"/>
   </g>
   <g id="patch_38">
    <path clip-path="url(#p57af3a8a29)" d="M 1198.702029 231.648 
L 1223.956061 231.648 
L 1223.956061 205.989304 
L 1198.702029 205.989304 
L 1198.702029 231.648 
z
" style="fill:#59a257;stroke:#484848;stroke-linejoin:miter;"/>
   </g>
   <g id="patch_39">
    <path clip-path="url(#p57af3a8a29)" d="M 854.238496 1130.4 
L 854.238496 1130.4 
L 854.238496 1130.4 
L 854.238496 1130.4 
z
" style="fill:#cb3335;stroke:#484848;stroke-linejoin:miter;stroke-width:0.5;"/>
   </g>
   <g id="patch_40">
    <path clip-path="url(#p57af3a8a29)" d="M 854.238496 1130.4 
L 854.238496 1130.4 
L 854.238496 1130.4 
L 854.238496 1130.4 
z
" style="fill:#477ca8;stroke:#484848;stroke-linejoin:miter;stroke-width:0.5;"/>
   </g>
   <g id="patch_41">
    <path clip-path="url(#p57af3a8a29)" d="M 854.238496 1130.4 
L 854.238496 1130.4 
L 854.238496 1130.4 
L 854.238496 1130.4 
z
" style="fill:#59a257;stroke:#484848;stroke-linejoin:miter;stroke-width:0.5;"/>
   </g>
   <g id="matplotlib.axis_3">
    <g id="xtick_5">
     <g id="line2d_83">
      <g>
       <use style="stroke:#000000;stroke-width:0.8;" x="854.238496" xlink:href="#mb0fff4a723" y="315"/>
      </g>
     </g>
     <g id="text_17">
      <!-- LR -->
      <g transform="translate(845.223871 332.94175)scale(0.144 -0.144)">
       <use xlink:href="#DejaVuSans-76"/>
       <use x="55.712891" xlink:href="#DejaVuSans-82"/>
      </g>
     </g>
    </g>
    <g id="xtick_6">
     <g id="line2d_84">
      <g>
       <use style="stroke:#000000;stroke-width:0.8;" x="964.678872" xlink:href="#mb0fff4a723" y="315"/>
      </g>
     </g>
     <g id="text_18">
      <!-- SVM -->
      <g transform="translate(948.970497 332.94175)scale(0.144 -0.144)">
       <use xlink:href="#DejaVuSans-83"/>
       <use x="63.476562" xlink:href="#DejaVuSans-86"/>
       <use x="131.884766" xlink:href="#DejaVuSans-77"/>
      </g>
     </g>
    </g>
    <g id="xtick_7">
     <g id="line2d_85">
      <g>
       <use style="stroke:#000000;stroke-width:0.8;" x="1075.119248" xlink:href="#mb0fff4a723" y="315"/>
      </g>
     </g>
     <g id="text_19">
      <!-- RF -->
      <g transform="translate(1065.975248 332.94175)scale(0.144 -0.144)">
       <use xlink:href="#DejaVuSans-82"/>
       <use x="69.482422" xlink:href="#DejaVuSans-70"/>
      </g>
     </g>
    </g>
    <g id="xtick_8">
     <g id="line2d_86">
      <g>
       <use style="stroke:#000000;stroke-width:0.8;" x="1185.559624" xlink:href="#mb0fff4a723" y="315"/>
      </g>
     </g>
     <g id="text_20">
      <!-- ANN -->
      <g transform="translate(1169.861374 332.94175)scale(0.144 -0.144)">
       <use xlink:href="#DejaVuSans-65"/>
       <use x="68.408203" xlink:href="#DejaVuSans-78"/>
       <use x="143.212891" xlink:href="#DejaVuSans-78"/>
      </g>
     </g>
    </g>
    <g id="text_21">
     <!-- Pesticide (With Ref Region) -->
     <defs>
      <path d="M 19.671875 64.796875 
L 19.671875 37.40625 
L 32.078125 37.40625 
Q 38.96875 37.40625 42.71875 40.96875 
Q 46.484375 44.53125 46.484375 51.125 
Q 46.484375 57.671875 42.71875 61.234375 
Q 38.96875 64.796875 32.078125 64.796875 
z
M 9.8125 72.90625 
L 32.078125 72.90625 
Q 44.34375 72.90625 50.609375 67.359375 
Q 56.890625 61.8125 56.890625 51.125 
Q 56.890625 40.328125 50.609375 34.8125 
Q 44.34375 29.296875 32.078125 29.296875 
L 19.671875 29.296875 
L 19.671875 0 
L 9.8125 0 
z
" id="DejaVuSans-80"/>
      <path d="M 44.28125 53.078125 
L 44.28125 44.578125 
Q 40.484375 46.53125 36.375 47.5 
Q 32.28125 48.484375 27.875 48.484375 
Q 21.1875 48.484375 17.84375 46.4375 
Q 14.5 44.390625 14.5 40.28125 
Q 14.5 37.15625 16.890625 35.375 
Q 19.28125 33.59375 26.515625 31.984375 
L 29.59375 31.296875 
Q 39.15625 29.25 43.1875 25.515625 
Q 47.21875 21.78125 47.21875 15.09375 
Q 47.21875 7.46875 41.1875 3.015625 
Q 35.15625 -1.421875 24.609375 -1.421875 
Q 20.21875 -1.421875 15.453125 -0.5625 
Q 10.6875 0.296875 5.421875 2 
L 5.421875 11.28125 
Q 10.40625 8.6875 15.234375 7.390625 
Q 20.0625 6.109375 24.8125 6.109375 
Q 31.15625 6.109375 34.5625 8.28125 
Q 37.984375 10.453125 37.984375 14.40625 
Q 37.984375 18.0625 35.515625 20.015625 
Q 33.0625 21.96875 24.703125 23.78125 
L 21.578125 24.515625 
Q 13.234375 26.265625 9.515625 29.90625 
Q 5.8125 33.546875 5.8125 39.890625 
Q 5.8125 47.609375 11.28125 51.796875 
Q 16.75 56 26.8125 56 
Q 31.78125 56 36.171875 55.265625 
Q 40.578125 54.546875 44.28125 53.078125 
z
" id="DejaVuSans-115"/>
     </defs>
     <g transform="translate(938.245866 350.87825)scale(0.144 -0.144)">
      <use xlink:href="#DejaVuSans-80"/>
      <use x="60.255859" xlink:href="#DejaVuSans-101"/>
      <use x="121.779297" xlink:href="#DejaVuSans-115"/>
      <use x="173.878906" xlink:href="#DejaVuSans-116"/>
      <use x="213.087891" xlink:href="#DejaVuSans-105"/>
      <use x="240.871094" xlink:href="#DejaVuSans-99"/>
      <use x="295.851562" xlink:href="#DejaVuSans-105"/>
      <use x="323.634766" xlink:href="#DejaVuSans-100"/>
      <use x="387.111328" xlink:href="#DejaVuSans-101"/>
      <use x="448.634766" xlink:href="#DejaVuSans-32"/>
      <use x="480.421875" xlink:href="#DejaVuSans-40"/>
      <use x="519.435547" xlink:href="#DejaVuSans-87"/>
      <use x="618.28125" xlink:href="#DejaVuSans-105"/>
      <use x="646.064453" xlink:href="#DejaVuSans-116"/>
      <use x="685.273438" xlink:href="#DejaVuSans-104"/>
      <use x="748.652344" xlink:href="#DejaVuSans-32"/>
      <use x="780.439453" xlink:href="#DejaVuSans-82"/>
      <use x="849.859375" xlink:href="#DejaVuSans-101"/>
      <use x="911.382812" xlink:href="#DejaVuSans-102"/>
      <use x="946.587891" xlink:href="#DejaVuSans-32"/>
      <use x="978.375" xlink:href="#DejaVuSans-82"/>
      <use x="1047.794922" xlink:href="#DejaVuSans-101"/>
      <use x="1109.318359" xlink:href="#DejaVuSans-103"/>
      <use x="1172.794922" xlink:href="#DejaVuSans-105"/>
      <use x="1200.578125" xlink:href="#DejaVuSans-111"/>
      <use x="1261.759766" xlink:href="#DejaVuSans-110"/>
      <use x="1325.138672" xlink:href="#DejaVuSans-41"/>
     </g>
    </g>
   </g>
   <g id="matplotlib.axis_4">
    <g id="ytick_7">
     <g id="line2d_87">
      <g>
       <use style="stroke:#000000;stroke-width:0.8;" x="776.930233" xlink:href="#m0ff1366e87" y="315"/>
      </g>
     </g>
     <g id="text_22">
      <!-- 0.75 -->
      <g transform="translate(737.867733 320.470875)scale(0.144 -0.144)">
       <use xlink:href="#DejaVuSans-48"/>
       <use x="63.623047" xlink:href="#DejaVuSans-46"/>
       <use x="95.410156" xlink:href="#DejaVuSans-55"/>
       <use x="159.033203" xlink:href="#DejaVuSans-53"/>
      </g>
     </g>
    </g>
    <g id="ytick_8">
     <g id="line2d_88">
      <g>
       <use style="stroke:#000000;stroke-width:0.8;" x="776.930233" xlink:href="#m0ff1366e87" y="260.64"/>
      </g>
     </g>
     <g id="text_23">
      <!-- 0.80 -->
      <g transform="translate(737.867733 266.110875)scale(0.144 -0.144)">
       <use xlink:href="#DejaVuSans-48"/>
       <use x="63.623047" xlink:href="#DejaVuSans-46"/>
       <use x="95.410156" xlink:href="#DejaVuSans-56"/>
       <use x="159.033203" xlink:href="#DejaVuSans-48"/>
      </g>
     </g>
    </g>
    <g id="ytick_9">
     <g id="line2d_89">
      <g>
       <use style="stroke:#000000;stroke-width:0.8;" x="776.930233" xlink:href="#m0ff1366e87" y="206.28"/>
      </g>
     </g>
     <g id="text_24">
      <!-- 0.85 -->
      <g transform="translate(737.867733 211.750875)scale(0.144 -0.144)">
       <use xlink:href="#DejaVuSans-48"/>
       <use x="63.623047" xlink:href="#DejaVuSans-46"/>
       <use x="95.410156" xlink:href="#DejaVuSans-56"/>
       <use x="159.033203" xlink:href="#DejaVuSans-53"/>
      </g>
     </g>
    </g>
    <g id="ytick_10">
     <g id="line2d_90">
      <g>
       <use style="stroke:#000000;stroke-width:0.8;" x="776.930233" xlink:href="#m0ff1366e87" y="151.92"/>
      </g>
     </g>
     <g id="text_25">
      <!-- 0.90 -->
      <g transform="translate(737.867733 157.390875)scale(0.144 -0.144)">
       <use xlink:href="#DejaVuSans-48"/>
       <use x="63.623047" xlink:href="#DejaVuSans-46"/>
       <use x="95.410156" xlink:href="#DejaVuSans-57"/>
       <use x="159.033203" xlink:href="#DejaVuSans-48"/>
      </g>
     </g>
    </g>
    <g id="ytick_11">
     <g id="line2d_91">
      <g>
       <use style="stroke:#000000;stroke-width:0.8;" x="776.930233" xlink:href="#m0ff1366e87" y="97.56"/>
      </g>
     </g>
     <g id="text_26">
      <!-- 0.95 -->
      <g transform="translate(737.867733 103.030875)scale(0.144 -0.144)">
       <use xlink:href="#DejaVuSans-48"/>
       <use x="63.623047" xlink:href="#DejaVuSans-46"/>
       <use x="95.410156" xlink:href="#DejaVuSans-57"/>
       <use x="159.033203" xlink:href="#DejaVuSans-53"/>
      </g>
     </g>
    </g>
    <g id="ytick_12">
     <g id="line2d_92">
      <g>
       <use style="stroke:#000000;stroke-width:0.8;" x="776.930233" xlink:href="#m0ff1366e87" y="43.2"/>
      </g>
     </g>
     <g id="text_27">
      <!-- 1.00 -->
      <g transform="translate(737.867733 48.670875)scale(0.144 -0.144)">
       <use xlink:href="#DejaVuSans-49"/>
       <use x="63.623047" xlink:href="#DejaVuSans-46"/>
       <use x="95.410156" xlink:href="#DejaVuSans-48"/>
       <use x="159.033203" xlink:href="#DejaVuSans-48"/>
      </g>
     </g>
    </g>
    <g id="text_28">
     <!-- Accuracy -->
     <g transform="translate(730.872983 212.097375)rotate(-90)scale(0.144 -0.144)">
      <use xlink:href="#DejaVuSans-65"/>
      <use x="68.392578" xlink:href="#DejaVuSans-99"/>
      <use x="123.373047" xlink:href="#DejaVuSans-99"/>
      <use x="178.353516" xlink:href="#DejaVuSans-117"/>
      <use x="241.732422" xlink:href="#DejaVuSans-114"/>
      <use x="282.845703" xlink:href="#DejaVuSans-97"/>
      <use x="344.125" xlink:href="#DejaVuSans-99"/>
      <use x="399.105469" xlink:href="#DejaVuSans-121"/>
     </g>
    </g>
   </g>
   <g id="line2d_93">
    <path clip-path="url(#p57af3a8a29)" d="M 828.469075 220.0512 
L 828.469075 228.7488 
" style="fill:none;stroke:#484848;stroke-linecap:square;"/>
   </g>
   <g id="line2d_94">
    <path clip-path="url(#p57af3a8a29)" d="M 828.469075 211.3536 
L 828.469075 209.340482 
" style="fill:none;stroke:#484848;stroke-linecap:square;"/>
   </g>
   <g id="line2d_95">
    <path clip-path="url(#p57af3a8a29)" d="M 822.155567 228.7488 
L 834.782583 228.7488 
" style="fill:none;stroke:#484848;stroke-linecap:square;"/>
   </g>
   <g id="line2d_96">
    <path clip-path="url(#p57af3a8a29)" d="M 822.155567 209.340482 
L 834.782583 209.340482 
" style="fill:none;stroke:#484848;stroke-linecap:square;"/>
   </g>
   <g id="line2d_97"/>
   <g id="line2d_98">
    <path clip-path="url(#p57af3a8a29)" d="M 854.238496 217.152 
L 854.238496 235.058823 
" style="fill:none;stroke:#484848;stroke-linecap:square;"/>
   </g>
   <g id="line2d_99">
    <path clip-path="url(#p57af3a8a29)" d="M 854.238496 203.510992 
L 854.238496 182.3616 
" style="fill:none;stroke:#484848;stroke-linecap:square;"/>
   </g>
   <g id="line2d_100">
    <path clip-path="url(#p57af3a8a29)" d="M 847.924988 235.058823 
L 860.552004 235.058823 
" style="fill:none;stroke:#484848;stroke-linecap:square;"/>
   </g>
   <g id="line2d_101">
    <path clip-path="url(#p57af3a8a29)" d="M 847.924988 182.3616 
L 860.552004 182.3616 
" style="fill:none;stroke:#484848;stroke-linecap:square;"/>
   </g>
   <g id="line2d_102"/>
   <g id="line2d_103">
    <path clip-path="url(#p57af3a8a29)" d="M 880.007917 222.9504 
L 880.007917 234.5472 
" style="fill:none;stroke:#484848;stroke-linecap:square;"/>
   </g>
   <g id="line2d_104">
    <path clip-path="url(#p57af3a8a29)" d="M 880.007917 212.255228 
L 880.007917 199.7568 
" style="fill:none;stroke:#484848;stroke-linecap:square;"/>
   </g>
   <g id="line2d_105">
    <path clip-path="url(#p57af3a8a29)" d="M 873.694409 234.5472 
L 886.321425 234.5472 
" style="fill:none;stroke:#484848;stroke-linecap:square;"/>
   </g>
   <g id="line2d_106">
    <path clip-path="url(#p57af3a8a29)" d="M 873.694409 199.7568 
L 886.321425 199.7568 
" style="fill:none;stroke:#484848;stroke-linecap:square;"/>
   </g>
   <g id="line2d_107"/>
   <g id="line2d_108">
    <path clip-path="url(#p57af3a8a29)" d="M 938.909451 217.152 
L 938.909451 232.658445 
" style="fill:none;stroke:#484848;stroke-linecap:square;"/>
   </g>
   <g id="line2d_109">
    <path clip-path="url(#p57af3a8a29)" d="M 938.909451 208.4544 
L 938.909451 200.175401 
" style="fill:none;stroke:#484848;stroke-linecap:square;"/>
   </g>
   <g id="line2d_110">
    <path clip-path="url(#p57af3a8a29)" d="M 932.595943 232.658445 
L 945.222959 232.658445 
" style="fill:none;stroke:#484848;stroke-linecap:square;"/>
   </g>
   <g id="line2d_111">
    <path clip-path="url(#p57af3a8a29)" d="M 932.595943 200.175401 
L 945.222959 200.175401 
" style="fill:none;stroke:#484848;stroke-linecap:square;"/>
   </g>
   <g id="line2d_112"/>
   <g id="line2d_113">
    <path clip-path="url(#p57af3a8a29)" d="M 964.678872 222.9504 
L 964.678872 228.7488 
" style="fill:none;stroke:#484848;stroke-linecap:square;"/>
   </g>
   <g id="line2d_114">
    <path clip-path="url(#p57af3a8a29)" d="M 964.678872 214.710161 
L 964.678872 214.710161 
" style="fill:none;stroke:#484848;stroke-linecap:square;"/>
   </g>
   <g id="line2d_115">
    <path clip-path="url(#p57af3a8a29)" d="M 958.365364 228.7488 
L 970.99238 228.7488 
" style="fill:none;stroke:#484848;stroke-linecap:square;"/>
   </g>
   <g id="line2d_116">
    <path clip-path="url(#p57af3a8a29)" d="M 958.365364 214.710161 
L 970.99238 214.710161 
" style="fill:none;stroke:#484848;stroke-linecap:square;"/>
   </g>
   <g id="line2d_117">
    <g clip-path="url(#p57af3a8a29)">
     <use style="fill:#484848;stroke:#484848;stroke-linejoin:miter;" x="964.678872" xlink:href="#mcbd1902b57" y="182.3616"/>
    </g>
   </g>
   <g id="line2d_118">
    <path clip-path="url(#p57af3a8a29)" d="M 990.448293 228.7488 
L 990.448293 249.0432 
" style="fill:none;stroke:#484848;stroke-linecap:square;"/>
   </g>
   <g id="line2d_119">
    <path clip-path="url(#p57af3a8a29)" d="M 990.448293 205.5552 
L 990.448293 197.681502 
" style="fill:none;stroke:#484848;stroke-linecap:square;"/>
   </g>
   <g id="line2d_120">
    <path clip-path="url(#p57af3a8a29)" d="M 984.134785 249.0432 
L 996.761801 249.0432 
" style="fill:none;stroke:#484848;stroke-linecap:square;"/>
   </g>
   <g id="line2d_121">
    <path clip-path="url(#p57af3a8a29)" d="M 984.134785 197.681502 
L 996.761801 197.681502 
" style="fill:none;stroke:#484848;stroke-linecap:square;"/>
   </g>
   <g id="line2d_122"/>
   <g id="line2d_123">
    <path clip-path="url(#p57af3a8a29)" d="M 1049.349827 199.7568 
L 1049.349827 217.152 
" style="fill:none;stroke:#484848;stroke-linecap:square;"/>
   </g>
   <g id="line2d_124">
    <path clip-path="url(#p57af3a8a29)" d="M 1049.349827 171.105883 
L 1049.349827 164.9664 
" style="fill:none;stroke:#484848;stroke-linecap:square;"/>
   </g>
   <g id="line2d_125">
    <path clip-path="url(#p57af3a8a29)" d="M 1043.036319 217.152 
L 1055.663335 217.152 
" style="fill:none;stroke:#484848;stroke-linecap:square;"/>
   </g>
   <g id="line2d_126">
    <path clip-path="url(#p57af3a8a29)" d="M 1043.036319 164.9664 
L 1055.663335 164.9664 
" style="fill:none;stroke:#484848;stroke-linecap:square;"/>
   </g>
   <g id="line2d_127"/>
   <g id="line2d_128">
    <path clip-path="url(#p57af3a8a29)" d="M 1075.119248 191.454545 
L 1075.119248 199.7568 
" style="fill:none;stroke:#484848;stroke-linecap:square;"/>
   </g>
   <g id="line2d_129">
    <path clip-path="url(#p57af3a8a29)" d="M 1075.119248 182.3616 
L 1075.119248 182.3616 
" style="fill:none;stroke:#484848;stroke-linecap:square;"/>
   </g>
   <g id="line2d_130">
    <path clip-path="url(#p57af3a8a29)" d="M 1068.80574 199.7568 
L 1081.432756 199.7568 
" style="fill:none;stroke:#484848;stroke-linecap:square;"/>
   </g>
   <g id="line2d_131">
    <path clip-path="url(#p57af3a8a29)" d="M 1068.80574 182.3616 
L 1081.432756 182.3616 
" style="fill:none;stroke:#484848;stroke-linecap:square;"/>
   </g>
   <g id="line2d_132">
    <g clip-path="url(#p57af3a8a29)">
     <use style="fill:#484848;stroke:#484848;stroke-linejoin:miter;" x="1075.119248" xlink:href="#mcbd1902b57" y="159.168"/>
    </g>
   </g>
   <g id="line2d_133">
    <path clip-path="url(#p57af3a8a29)" d="M 1100.888669 180.19303 
L 1100.888669 188.16 
" style="fill:none;stroke:#484848;stroke-linecap:square;"/>
   </g>
   <g id="line2d_134">
    <path clip-path="url(#p57af3a8a29)" d="M 1100.888669 170.7648 
L 1100.888669 162.0672 
" style="fill:none;stroke:#484848;stroke-linecap:square;"/>
   </g>
   <g id="line2d_135">
    <path clip-path="url(#p57af3a8a29)" d="M 1094.575161 188.16 
L 1107.202177 188.16 
" style="fill:none;stroke:#484848;stroke-linecap:square;"/>
   </g>
   <g id="line2d_136">
    <path clip-path="url(#p57af3a8a29)" d="M 1094.575161 162.0672 
L 1107.202177 162.0672 
" style="fill:none;stroke:#484848;stroke-linecap:square;"/>
   </g>
   <g id="line2d_137"/>
   <g id="line2d_138">
    <path clip-path="url(#p57af3a8a29)" d="M 1159.790203 209.340482 
L 1159.790203 211.803209 
" style="fill:none;stroke:#484848;stroke-linecap:square;"/>
   </g>
   <g id="line2d_139">
    <path clip-path="url(#p57af3a8a29)" d="M 1159.790203 185.2608 
L 1159.790203 179.4624 
" style="fill:none;stroke:#484848;stroke-linecap:square;"/>
   </g>
   <g id="line2d_140">
    <path clip-path="url(#p57af3a8a29)" d="M 1153.476695 211.803209 
L 1166.103711 211.803209 
" style="fill:none;stroke:#484848;stroke-linecap:square;"/>
   </g>
   <g id="line2d_141">
    <path clip-path="url(#p57af3a8a29)" d="M 1153.476695 179.4624 
L 1166.103711 179.4624 
" style="fill:none;stroke:#484848;stroke-linecap:square;"/>
   </g>
   <g id="line2d_142"/>
   <g id="line2d_143">
    <path clip-path="url(#p57af3a8a29)" d="M 1185.559624 228.7488 
L 1185.559624 231.648 
" style="fill:none;stroke:#484848;stroke-linecap:square;"/>
   </g>
   <g id="line2d_144">
    <path clip-path="url(#p57af3a8a29)" d="M 1185.559624 191.852011 
L 1185.559624 185.2608 
" style="fill:none;stroke:#484848;stroke-linecap:square;"/>
   </g>
   <g id="line2d_145">
    <path clip-path="url(#p57af3a8a29)" d="M 1179.246116 231.648 
L 1191.873132 231.648 
" style="fill:none;stroke:#484848;stroke-linecap:square;"/>
   </g>
   <g id="line2d_146">
    <path clip-path="url(#p57af3a8a29)" d="M 1179.246116 185.2608 
L 1191.873132 185.2608 
" style="fill:none;stroke:#484848;stroke-linecap:square;"/>
   </g>
   <g id="line2d_147"/>
   <g id="line2d_148">
    <path clip-path="url(#p57af3a8a29)" d="M 1211.329045 231.648 
L 1211.329045 234.5472 
" style="fill:none;stroke:#484848;stroke-linecap:square;"/>
   </g>
   <g id="line2d_149">
    <path clip-path="url(#p57af3a8a29)" d="M 1211.329045 205.989304 
L 1211.329045 183.107775 
" style="fill:none;stroke:#484848;stroke-linecap:square;"/>
   </g>
   <g id="line2d_150">
    <path clip-path="url(#p57af3a8a29)" d="M 1205.015537 234.5472 
L 1217.642553 234.5472 
" style="fill:none;stroke:#484848;stroke-linecap:square;"/>
   </g>
   <g id="line2d_151">
    <path clip-path="url(#p57af3a8a29)" d="M 1205.015537 183.107775 
L 1217.642553 183.107775 
" style="fill:none;stroke:#484848;stroke-linecap:square;"/>
   </g>
   <g id="line2d_152"/>
   <g id="line2d_153">
    <path clip-path="url(#p57af3a8a29)" d="M 815.842058 214.710161 
L 841.096091 214.710161 
" style="fill:none;stroke:#484848;stroke-linecap:square;"/>
   </g>
   <g id="line2d_154">
    <path clip-path="url(#p57af3a8a29)" d="M 841.611479 208.4544 
L 866.865512 208.4544 
" style="fill:none;stroke:#484848;stroke-linecap:square;"/>
   </g>
   <g id="line2d_155">
    <path clip-path="url(#p57af3a8a29)" d="M 867.380901 217.617112 
L 892.634933 217.617112 
" style="fill:none;stroke:#484848;stroke-linecap:square;"/>
   </g>
   <g id="line2d_156">
    <path clip-path="url(#p57af3a8a29)" d="M 926.282434 217.152 
L 951.536467 217.152 
" style="fill:none;stroke:#484848;stroke-linecap:square;"/>
   </g>
   <g id="line2d_157">
    <path clip-path="url(#p57af3a8a29)" d="M 952.051856 218.084719 
L 977.305888 218.084719 
" style="fill:none;stroke:#484848;stroke-linecap:square;"/>
   </g>
   <g id="line2d_158">
    <path clip-path="url(#p57af3a8a29)" d="M 977.821277 220.524064 
L 1003.075309 220.524064 
" style="fill:none;stroke:#484848;stroke-linecap:square;"/>
   </g>
   <g id="line2d_159">
    <path clip-path="url(#p57af3a8a29)" d="M 1036.72281 180.19303 
L 1061.976843 180.19303 
" style="fill:none;stroke:#484848;stroke-linecap:square;"/>
   </g>
   <g id="line2d_160">
    <path clip-path="url(#p57af3a8a29)" d="M 1062.492232 188.937265 
L 1087.746264 188.937265 
" style="fill:none;stroke:#484848;stroke-linecap:square;"/>
   </g>
   <g id="line2d_161">
    <path clip-path="url(#p57af3a8a29)" d="M 1088.261653 174.012835 
L 1113.515685 174.012835 
" style="fill:none;stroke:#484848;stroke-linecap:square;"/>
   </g>
   <g id="line2d_162">
    <path clip-path="url(#p57af3a8a29)" d="M 1147.163187 199.7568 
L 1172.417219 199.7568 
" style="fill:none;stroke:#484848;stroke-linecap:square;"/>
   </g>
   <g id="line2d_163">
    <path clip-path="url(#p57af3a8a29)" d="M 1172.932608 217.617112 
L 1198.18664 217.617112 
" style="fill:none;stroke:#484848;stroke-linecap:square;"/>
   </g>
   <g id="line2d_164">
    <path clip-path="url(#p57af3a8a29)" d="M 1198.702029 208.4544 
L 1223.956061 208.4544 
" style="fill:none;stroke:#484848;stroke-linecap:square;"/>
   </g>
   <g id="patch_42">
    <path d="M 776.930233 315 
L 776.930233 43.2 
" style="fill:none;stroke:#000000;stroke-linecap:square;stroke-linejoin:miter;stroke-width:0.8;"/>
   </g>
   <g id="patch_43">
    <path d="M 1296 315 
L 1296 43.2 
" style="fill:none;stroke:#000000;stroke-linecap:square;stroke-linejoin:miter;stroke-width:0.8;"/>
   </g>
   <g id="patch_44">
    <path d="M 776.930233 315 
L 1296 315 
" style="fill:none;stroke:#000000;stroke-linecap:square;stroke-linejoin:miter;stroke-width:0.8;"/>
   </g>
   <g id="patch_45">
    <path d="M 776.930233 43.2 
L 1296 43.2 
" style="fill:none;stroke:#000000;stroke-linecap:square;stroke-linejoin:miter;stroke-width:0.8;"/>
   </g>
   <g id="legend_2">
    <g id="patch_46">
     <path d="M 1180.51875 139.6665 
L 1285.92 139.6665 
Q 1288.8 139.6665 1288.8 136.7865 
L 1288.8 53.28 
Q 1288.8 50.4 1285.92 50.4 
L 1180.51875 50.4 
Q 1177.63875 50.4 1177.63875 53.28 
L 1177.63875 136.7865 
Q 1177.63875 139.6665 1180.51875 139.6665 
z
" style="fill:#ffffff;opacity:0.8;stroke:#cccccc;stroke-linejoin:miter;"/>
    </g>
    <g id="text_29">
     <!-- color_channel -->
     <g transform="translate(1183.39875 67.10175)scale(0.144 -0.144)">
      <use xlink:href="#DejaVuSans-99"/>
      <use x="54.980469" xlink:href="#DejaVuSans-111"/>
      <use x="116.162109" xlink:href="#DejaVuSans-108"/>
      <use x="143.945312" xlink:href="#DejaVuSans-111"/>
      <use x="205.126953" xlink:href="#DejaVuSans-114"/>
      <use x="246.240234" xlink:href="#DejaVuSans-95"/>
      <use x="296.240234" xlink:href="#DejaVuSans-99"/>
      <use x="351.220703" xlink:href="#DejaVuSans-104"/>
      <use x="414.599609" xlink:href="#DejaVuSans-97"/>
      <use x="475.878906" xlink:href="#DejaVuSans-110"/>
      <use x="539.257812" xlink:href="#DejaVuSans-110"/>
      <use x="602.636719" xlink:href="#DejaVuSans-101"/>
      <use x="664.160156" xlink:href="#DejaVuSans-108"/>
     </g>
    </g>
    <g id="patch_47">
     <path d="M 1197.53775 88.63875 
L 1226.33775 88.63875 
L 1226.33775 78.55875 
L 1197.53775 78.55875 
z
" style="fill:#cb3335;stroke:#484848;stroke-linejoin:miter;stroke-width:0.5;"/>
    </g>
    <g id="text_30">
     <!-- RGB -->
     <g transform="translate(1237.85775 88.63875)scale(0.144 -0.144)">
      <use xlink:href="#DejaVuSans-82"/>
      <use x="69.482422" xlink:href="#DejaVuSans-71"/>
      <use x="146.972656" xlink:href="#DejaVuSans-66"/>
     </g>
    </g>
    <g id="patch_48">
     <path d="M 1197.53775 109.77525 
L 1226.33775 109.77525 
L 1226.33775 99.69525 
L 1197.53775 99.69525 
z
" style="fill:#477ca8;stroke:#484848;stroke-linejoin:miter;stroke-width:0.5;"/>
    </g>
    <g id="text_31">
     <!-- LAB -->
     <g transform="translate(1237.85775 109.77525)scale(0.144 -0.144)">
      <use xlink:href="#DejaVuSans-76"/>
      <use x="55.744141" xlink:href="#DejaVuSans-65"/>
      <use x="124.152344" xlink:href="#DejaVuSans-66"/>
     </g>
    </g>
    <g id="patch_49">
     <path d="M 1197.53775 130.91175 
L 1226.33775 130.91175 
L 1226.33775 120.83175 
L 1197.53775 120.83175 
z
" style="fill:#59a257;stroke:#484848;stroke-linejoin:miter;stroke-width:0.5;"/>
    </g>
    <g id="text_32">
     <!-- HSV -->
     <g transform="translate(1237.85775 130.91175)scale(0.144 -0.144)">
      <use xlink:href="#DejaVuSans-72"/>
      <use x="75.195312" xlink:href="#DejaVuSans-83"/>
      <use x="138.671875" xlink:href="#DejaVuSans-86"/>
     </g>
    </g>
   </g>
  </g>
 </g>
 <defs>
  <clipPath id="p08aeeb7756">
   <rect height="271.8" width="519.069767" x="180" y="43.2"/>
  </clipPath>
  <clipPath id="p57af3a8a29">
   <rect height="271.8" width="519.069767" x="776.930233" y="43.2"/>
  </clipPath>
 </defs>
</svg>
