<?xml version="1.0" encoding="utf-8" standalone="no"?>
<!DOCTYPE svg PUBLIC "-//W3C//DTD SVG 1.1//EN"
  "http://www.w3.org/Graphics/SVG/1.1/DTD/svg11.dtd">
<!-- Created with matplotlib (https://matplotlib.org/) -->
<svg height="360pt" version="1.1" viewBox="0 0 1440 360" width="1440pt" xmlns="http://www.w3.org/2000/svg" xmlns:xlink="http://www.w3.org/1999/xlink">
 <defs>
  <style type="text/css">
*{stroke-linecap:butt;stroke-linejoin:round;}
  </style>
 </defs>
 <g id="figure_1">
  <g id="patch_1">
   <path d="M 0 360 
L 1440 360 
L 1440 0 
L 0 0 
z
" style="fill:#ffffff;"/>
  </g>
  <g id="axes_1">
   <g id="patch_2">
    <path d="M 180 315 
L 699.069767 315 
L 699.069767 43.2 
L 180 43.2 
z
" style="fill:#ffffff;"/>
   </g>
   <g id="patch_3">
    <path clip-path="url(#p4e781deae8)" d="M 218.911826 255.308315 
L 244.165858 255.308315 
L 244.165858 250.626316 
L 218.911826 250.626316 
L 218.911826 255.308315 
z
" style="fill:#cb3335;stroke:#484848;stroke-linejoin:miter;"/>
   </g>
   <g id="patch_4">
    <path clip-path="url(#p4e781deae8)" d="M 244.681247 199.717307 
L 269.93528 199.717307 
L 269.93528 176.486538 
L 244.681247 176.486538 
L 244.681247 199.717307 
z
" style="fill:#477ca8;stroke:#484848;stroke-linejoin:miter;"/>
   </g>
   <g id="patch_5">
    <path clip-path="url(#p4e781deae8)" d="M 270.450668 175.622814 
L 295.704701 175.622814 
L 295.704701 164.871154 
L 270.450668 164.871154 
L 270.450668 175.622814 
z
" style="fill:#59a257;stroke:#484848;stroke-linejoin:miter;"/>
   </g>
   <g id="patch_6">
    <path clip-path="url(#p4e781deae8)" d="M 329.352202 266.362106 
L 354.606235 266.362106 
L 354.606235 224.882943 
L 329.352202 224.882943 
L 329.352202 266.362106 
z
" style="fill:#cb3335;stroke:#484848;stroke-linejoin:miter;"/>
   </g>
   <g id="patch_7">
    <path clip-path="url(#p4e781deae8)" d="M 355.121623 183.746154 
L 380.375656 183.746154 
L 380.375656 176.486538 
L 355.121623 176.486538 
L 355.121623 183.746154 
z
" style="fill:#477ca8;stroke:#484848;stroke-linejoin:miter;"/>
   </g>
   <g id="patch_8">
    <path clip-path="url(#p4e781deae8)" d="M 380.891044 165.855509 
L 406.145077 165.855509 
L 406.145077 151.803846 
L 380.891044 151.803846 
L 380.891044 165.855509 
z
" style="fill:#59a257;stroke:#484848;stroke-linejoin:miter;"/>
   </g>
   <g id="patch_9">
    <path clip-path="url(#p4e781deae8)" d="M 439.792578 151.803846 
L 465.046611 151.803846 
L 465.046611 144.767368 
L 439.792578 144.767368 
L 439.792578 151.803846 
z
" style="fill:#cb3335;stroke:#484848;stroke-linejoin:miter;"/>
   </g>
   <g id="patch_10">
    <path clip-path="url(#p4e781deae8)" d="M 465.561999 147.628421 
L 490.816032 147.628421 
L 490.816032 129.865042 
L 465.561999 129.865042 
L 465.561999 147.628421 
z
" style="fill:#477ca8;stroke:#484848;stroke-linejoin:miter;"/>
   </g>
   <g id="patch_11">
    <path clip-path="url(#p4e781deae8)" d="M 491.33142 102.512288 
L 516.585453 102.512288 
L 516.585453 91.837894 
L 491.33142 91.837894 
L 491.33142 102.512288 
z
" style="fill:#59a257;stroke:#484848;stroke-linejoin:miter;"/>
   </g>
   <g id="patch_12">
    <path clip-path="url(#p4e781deae8)" d="M 550.232954 234.563462 
L 575.486987 234.563462 
L 575.486987 219.121398 
L 550.232954 219.121398 
L 550.232954 234.563462 
z
" style="fill:#cb3335;stroke:#484848;stroke-linejoin:miter;"/>
   </g>
   <g id="patch_13">
    <path clip-path="url(#p4e781deae8)" d="M 576.002375 187.449788 
L 601.256408 187.449788 
L 601.256408 169.827506 
L 576.002375 169.827506 
L 576.002375 187.449788 
z
" style="fill:#477ca8;stroke:#484848;stroke-linejoin:miter;"/>
   </g>
   <g id="patch_14">
    <path clip-path="url(#p4e781deae8)" d="M 601.771796 162.583369 
L 627.025829 162.583369 
L 627.025829 149.058948 
L 601.771796 149.058948 
L 601.771796 162.583369 
z
" style="fill:#59a257;stroke:#484848;stroke-linejoin:miter;"/>
   </g>
   <g id="patch_15">
    <path clip-path="url(#p4e781deae8)" d="M 257.308263 450.9 
L 257.308263 450.9 
L 257.308263 450.9 
L 257.308263 450.9 
z
" style="fill:#cb3335;stroke:#484848;stroke-linejoin:miter;stroke-width:0.5;"/>
   </g>
   <g id="patch_16">
    <path clip-path="url(#p4e781deae8)" d="M 257.308263 450.9 
L 257.308263 450.9 
L 257.308263 450.9 
L 257.308263 450.9 
z
" style="fill:#477ca8;stroke:#484848;stroke-linejoin:miter;stroke-width:0.5;"/>
   </g>
   <g id="patch_17">
    <path clip-path="url(#p4e781deae8)" d="M 257.308263 450.9 
L 257.308263 450.9 
L 257.308263 450.9 
L 257.308263 450.9 
z
" style="fill:#59a257;stroke:#484848;stroke-linejoin:miter;stroke-width:0.5;"/>
   </g>
   <g id="matplotlib.axis_1">
    <g id="xtick_1">
     <g id="line2d_1">
      <defs>
       <path d="M 0 0 
L 0 3.5 
" id="m096bb4d19e" style="stroke:#000000;stroke-width:0.8;"/>
      </defs>
      <g>
       <use style="stroke:#000000;stroke-width:0.8;" x="257.308263" xlink:href="#m096bb4d19e" y="315"/>
      </g>
     </g>
     <g id="text_1">
      <!-- LR -->
      <defs>
       <path d="M 9.8125 72.90625 
L 19.671875 72.90625 
L 19.671875 8.296875 
L 55.171875 8.296875 
L 55.171875 0 
L 9.8125 0 
z
" id="DejaVuSans-76"/>
       <path d="M 44.390625 34.1875 
Q 47.5625 33.109375 50.5625 29.59375 
Q 53.5625 26.078125 56.59375 19.921875 
L 66.609375 0 
L 56 0 
L 46.6875 18.703125 
Q 43.0625 26.03125 39.671875 28.421875 
Q 36.28125 30.8125 30.421875 30.8125 
L 19.671875 30.8125 
L 19.671875 0 
L 9.8125 0 
L 9.8125 72.90625 
L 32.078125 72.90625 
Q 44.578125 72.90625 50.734375 67.671875 
Q 56.890625 62.453125 56.890625 51.90625 
Q 56.890625 45.015625 53.6875 40.46875 
Q 50.484375 35.9375 44.390625 34.1875 
z
M 19.671875 64.796875 
L 19.671875 38.921875 
L 32.078125 38.921875 
Q 39.203125 38.921875 42.84375 42.21875 
Q 46.484375 45.515625 46.484375 51.90625 
Q 46.484375 58.296875 42.84375 61.546875 
Q 39.203125 64.796875 32.078125 64.796875 
z
" id="DejaVuSans-82"/>
      </defs>
      <g transform="translate(248.293638 332.94175)scale(0.144 -0.144)">
       <use xlink:href="#DejaVuSans-76"/>
       <use x="55.712891" xlink:href="#DejaVuSans-82"/>
      </g>
     </g>
    </g>
    <g id="xtick_2">
     <g id="line2d_2">
      <g>
       <use style="stroke:#000000;stroke-width:0.8;" x="367.748639" xlink:href="#m096bb4d19e" y="315"/>
      </g>
     </g>
     <g id="text_2">
      <!-- SVM -->
      <defs>
       <path d="M 53.515625 70.515625 
L 53.515625 60.890625 
Q 47.90625 63.578125 42.921875 64.890625 
Q 37.9375 66.21875 33.296875 66.21875 
Q 25.25 66.21875 20.875 63.09375 
Q 16.5 59.96875 16.5 54.203125 
Q 16.5 49.359375 19.40625 46.890625 
Q 22.3125 44.4375 30.421875 42.921875 
L 36.375 41.703125 
Q 47.40625 39.59375 52.65625 34.296875 
Q 57.90625 29 57.90625 20.125 
Q 57.90625 9.515625 50.796875 4.046875 
Q 43.703125 -1.421875 29.984375 -1.421875 
Q 24.8125 -1.421875 18.96875 -0.25 
Q 13.140625 0.921875 6.890625 3.21875 
L 6.890625 13.375 
Q 12.890625 10.015625 18.65625 8.296875 
Q 24.421875 6.59375 29.984375 6.59375 
Q 38.421875 6.59375 43.015625 9.90625 
Q 47.609375 13.234375 47.609375 19.390625 
Q 47.609375 24.75 44.3125 27.78125 
Q 41.015625 30.8125 33.5 32.328125 
L 27.484375 33.5 
Q 16.453125 35.6875 11.515625 40.375 
Q 6.59375 45.0625 6.59375 53.421875 
Q 6.59375 63.09375 13.40625 68.65625 
Q 20.21875 74.21875 32.171875 74.21875 
Q 37.3125 74.21875 42.625 73.28125 
Q 47.953125 72.359375 53.515625 70.515625 
z
" id="DejaVuSans-83"/>
       <path d="M 28.609375 0 
L 0.78125 72.90625 
L 11.078125 72.90625 
L 34.1875 11.53125 
L 57.328125 72.90625 
L 67.578125 72.90625 
L 39.796875 0 
z
" id="DejaVuSans-86"/>
       <path d="M 9.8125 72.90625 
L 24.515625 72.90625 
L 43.109375 23.296875 
L 61.8125 72.90625 
L 76.515625 72.90625 
L 76.515625 0 
L 66.890625 0 
L 66.890625 64.015625 
L 48.09375 14.015625 
L 38.1875 14.015625 
L 19.390625 64.015625 
L 19.390625 0 
L 9.8125 0 
z
" id="DejaVuSans-77"/>
      </defs>
      <g transform="translate(352.040264 332.94175)scale(0.144 -0.144)">
       <use xlink:href="#DejaVuSans-83"/>
       <use x="63.476562" xlink:href="#DejaVuSans-86"/>
       <use x="131.884766" xlink:href="#DejaVuSans-77"/>
      </g>
     </g>
    </g>
    <g id="xtick_3">
     <g id="line2d_3">
      <g>
       <use style="stroke:#000000;stroke-width:0.8;" x="478.189015" xlink:href="#m096bb4d19e" y="315"/>
      </g>
     </g>
     <g id="text_3">
      <!-- RF -->
      <defs>
       <path d="M 9.8125 72.90625 
L 51.703125 72.90625 
L 51.703125 64.59375 
L 19.671875 64.59375 
L 19.671875 43.109375 
L 48.578125 43.109375 
L 48.578125 34.8125 
L 19.671875 34.8125 
L 19.671875 0 
L 9.8125 0 
z
" id="DejaVuSans-70"/>
      </defs>
      <g transform="translate(469.045015 332.94175)scale(0.144 -0.144)">
       <use xlink:href="#DejaVuSans-82"/>
       <use x="69.482422" xlink:href="#DejaVuSans-70"/>
      </g>
     </g>
    </g>
    <g id="xtick_4">
     <g id="line2d_4">
      <g>
       <use style="stroke:#000000;stroke-width:0.8;" x="588.629391" xlink:href="#m096bb4d19e" y="315"/>
      </g>
     </g>
     <g id="text_4">
      <!-- ANN -->
      <defs>
       <path d="M 34.1875 63.1875 
L 20.796875 26.90625 
L 47.609375 26.90625 
z
M 28.609375 72.90625 
L 39.796875 72.90625 
L 67.578125 0 
L 57.328125 0 
L 50.6875 18.703125 
L 17.828125 18.703125 
L 11.1875 0 
L 0.78125 0 
z
" id="DejaVuSans-65"/>
       <path d="M 9.8125 72.90625 
L 23.09375 72.90625 
L 55.421875 11.921875 
L 55.421875 72.90625 
L 64.984375 72.90625 
L 64.984375 0 
L 51.703125 0 
L 19.390625 60.984375 
L 19.390625 0 
L 9.8125 0 
z
" id="DejaVuSans-78"/>
      </defs>
      <g transform="translate(572.931141 332.94175)scale(0.144 -0.144)">
       <use xlink:href="#DejaVuSans-65"/>
       <use x="68.408203" xlink:href="#DejaVuSans-78"/>
       <use x="143.212891" xlink:href="#DejaVuSans-78"/>
      </g>
     </g>
    </g>
    <g id="text_5">
     <!-- Food Dye (With Ref Region) -->
     <defs>
      <path d="M 30.609375 48.390625 
Q 23.390625 48.390625 19.1875 42.75 
Q 14.984375 37.109375 14.984375 27.296875 
Q 14.984375 17.484375 19.15625 11.84375 
Q 23.34375 6.203125 30.609375 6.203125 
Q 37.796875 6.203125 41.984375 11.859375 
Q 46.1875 17.53125 46.1875 27.296875 
Q 46.1875 37.015625 41.984375 42.703125 
Q 37.796875 48.390625 30.609375 48.390625 
z
M 30.609375 56 
Q 42.328125 56 49.015625 48.375 
Q 55.71875 40.765625 55.71875 27.296875 
Q 55.71875 13.875 49.015625 6.21875 
Q 42.328125 -1.421875 30.609375 -1.421875 
Q 18.84375 -1.421875 12.171875 6.21875 
Q 5.515625 13.875 5.515625 27.296875 
Q 5.515625 40.765625 12.171875 48.375 
Q 18.84375 56 30.609375 56 
z
" id="DejaVuSans-111"/>
      <path d="M 45.40625 46.390625 
L 45.40625 75.984375 
L 54.390625 75.984375 
L 54.390625 0 
L 45.40625 0 
L 45.40625 8.203125 
Q 42.578125 3.328125 38.25 0.953125 
Q 33.9375 -1.421875 27.875 -1.421875 
Q 17.96875 -1.421875 11.734375 6.484375 
Q 5.515625 14.40625 5.515625 27.296875 
Q 5.515625 40.1875 11.734375 48.09375 
Q 17.96875 56 27.875 56 
Q 33.9375 56 38.25 53.625 
Q 42.578125 51.265625 45.40625 46.390625 
z
M 14.796875 27.296875 
Q 14.796875 17.390625 18.875 11.75 
Q 22.953125 6.109375 30.078125 6.109375 
Q 37.203125 6.109375 41.296875 11.75 
Q 45.40625 17.390625 45.40625 27.296875 
Q 45.40625 37.203125 41.296875 42.84375 
Q 37.203125 48.484375 30.078125 48.484375 
Q 22.953125 48.484375 18.875 42.84375 
Q 14.796875 37.203125 14.796875 27.296875 
z
" id="DejaVuSans-100"/>
      <path id="DejaVuSans-32"/>
      <path d="M 19.671875 64.796875 
L 19.671875 8.109375 
L 31.59375 8.109375 
Q 46.6875 8.109375 53.6875 14.9375 
Q 60.6875 21.78125 60.6875 36.53125 
Q 60.6875 51.171875 53.6875 57.984375 
Q 46.6875 64.796875 31.59375 64.796875 
z
M 9.8125 72.90625 
L 30.078125 72.90625 
Q 51.265625 72.90625 61.171875 64.09375 
Q 71.09375 55.28125 71.09375 36.53125 
Q 71.09375 17.671875 61.125 8.828125 
Q 51.171875 0 30.078125 0 
L 9.8125 0 
z
" id="DejaVuSans-68"/>
      <path d="M 32.171875 -5.078125 
Q 28.375 -14.84375 24.75 -17.8125 
Q 21.140625 -20.796875 15.09375 -20.796875 
L 7.90625 -20.796875 
L 7.90625 -13.28125 
L 13.1875 -13.28125 
Q 16.890625 -13.28125 18.9375 -11.515625 
Q 21 -9.765625 23.484375 -3.21875 
L 25.09375 0.875 
L 2.984375 54.6875 
L 12.5 54.6875 
L 29.59375 11.921875 
L 46.6875 54.6875 
L 56.203125 54.6875 
z
" id="DejaVuSans-121"/>
      <path d="M 56.203125 29.59375 
L 56.203125 25.203125 
L 14.890625 25.203125 
Q 15.484375 15.921875 20.484375 11.0625 
Q 25.484375 6.203125 34.421875 6.203125 
Q 39.59375 6.203125 44.453125 7.46875 
Q 49.3125 8.734375 54.109375 11.28125 
L 54.109375 2.78125 
Q 49.265625 0.734375 44.1875 -0.34375 
Q 39.109375 -1.421875 33.890625 -1.421875 
Q 20.796875 -1.421875 13.15625 6.1875 
Q 5.515625 13.8125 5.515625 26.8125 
Q 5.515625 40.234375 12.765625 48.109375 
Q 20.015625 56 32.328125 56 
Q 43.359375 56 49.78125 48.890625 
Q 56.203125 41.796875 56.203125 29.59375 
z
M 47.21875 32.234375 
Q 47.125 39.59375 43.09375 43.984375 
Q 39.0625 48.390625 32.421875 48.390625 
Q 24.90625 48.390625 20.390625 44.140625 
Q 15.875 39.890625 15.1875 32.171875 
z
" id="DejaVuSans-101"/>
      <path d="M 31 75.875 
Q 24.46875 64.65625 21.28125 53.65625 
Q 18.109375 42.671875 18.109375 31.390625 
Q 18.109375 20.125 21.3125 9.0625 
Q 24.515625 -2 31 -13.1875 
L 23.1875 -13.1875 
Q 15.875 -1.703125 12.234375 9.375 
Q 8.59375 20.453125 8.59375 31.390625 
Q 8.59375 42.28125 12.203125 53.3125 
Q 15.828125 64.359375 23.1875 75.875 
z
" id="DejaVuSans-40"/>
      <path d="M 3.328125 72.90625 
L 13.28125 72.90625 
L 28.609375 11.28125 
L 43.890625 72.90625 
L 54.984375 72.90625 
L 70.3125 11.28125 
L 85.59375 72.90625 
L 95.609375 72.90625 
L 77.296875 0 
L 64.890625 0 
L 49.515625 63.28125 
L 33.984375 0 
L 21.578125 0 
z
" id="DejaVuSans-87"/>
      <path d="M 9.421875 54.6875 
L 18.40625 54.6875 
L 18.40625 0 
L 9.421875 0 
z
M 9.421875 75.984375 
L 18.40625 75.984375 
L 18.40625 64.59375 
L 9.421875 64.59375 
z
" id="DejaVuSans-105"/>
      <path d="M 18.3125 70.21875 
L 18.3125 54.6875 
L 36.8125 54.6875 
L 36.8125 47.703125 
L 18.3125 47.703125 
L 18.3125 18.015625 
Q 18.3125 11.328125 20.140625 9.421875 
Q 21.96875 7.515625 27.59375 7.515625 
L 36.8125 7.515625 
L 36.8125 0 
L 27.59375 0 
Q 17.1875 0 13.234375 3.875 
Q 9.28125 7.765625 9.28125 18.015625 
L 9.28125 47.703125 
L 2.6875 47.703125 
L 2.6875 54.6875 
L 9.28125 54.6875 
L 9.28125 70.21875 
z
" id="DejaVuSans-116"/>
      <path d="M 54.890625 33.015625 
L 54.890625 0 
L 45.90625 0 
L 45.90625 32.71875 
Q 45.90625 40.484375 42.875 44.328125 
Q 39.84375 48.1875 33.796875 48.1875 
Q 26.515625 48.1875 22.3125 43.546875 
Q 18.109375 38.921875 18.109375 30.90625 
L 18.109375 0 
L 9.078125 0 
L 9.078125 75.984375 
L 18.109375 75.984375 
L 18.109375 46.1875 
Q 21.34375 51.125 25.703125 53.5625 
Q 30.078125 56 35.796875 56 
Q 45.21875 56 50.046875 50.171875 
Q 54.890625 44.34375 54.890625 33.015625 
z
" id="DejaVuSans-104"/>
      <path d="M 37.109375 75.984375 
L 37.109375 68.5 
L 28.515625 68.5 
Q 23.6875 68.5 21.796875 66.546875 
Q 19.921875 64.59375 19.921875 59.515625 
L 19.921875 54.6875 
L 34.71875 54.6875 
L 34.71875 47.703125 
L 19.921875 47.703125 
L 19.921875 0 
L 10.890625 0 
L 10.890625 47.703125 
L 2.296875 47.703125 
L 2.296875 54.6875 
L 10.890625 54.6875 
L 10.890625 58.5 
Q 10.890625 67.625 15.140625 71.796875 
Q 19.390625 75.984375 28.609375 75.984375 
z
" id="DejaVuSans-102"/>
      <path d="M 45.40625 27.984375 
Q 45.40625 37.75 41.375 43.109375 
Q 37.359375 48.484375 30.078125 48.484375 
Q 22.859375 48.484375 18.828125 43.109375 
Q 14.796875 37.75 14.796875 27.984375 
Q 14.796875 18.265625 18.828125 12.890625 
Q 22.859375 7.515625 30.078125 7.515625 
Q 37.359375 7.515625 41.375 12.890625 
Q 45.40625 18.265625 45.40625 27.984375 
z
M 54.390625 6.78125 
Q 54.390625 -7.171875 48.1875 -13.984375 
Q 42 -20.796875 29.203125 -20.796875 
Q 24.46875 -20.796875 20.265625 -20.09375 
Q 16.0625 -19.390625 12.109375 -17.921875 
L 12.109375 -9.1875 
Q 16.0625 -11.328125 19.921875 -12.34375 
Q 23.78125 -13.375 27.78125 -13.375 
Q 36.625 -13.375 41.015625 -8.765625 
Q 45.40625 -4.15625 45.40625 5.171875 
L 45.40625 9.625 
Q 42.625 4.78125 38.28125 2.390625 
Q 33.9375 0 27.875 0 
Q 17.828125 0 11.671875 7.65625 
Q 5.515625 15.328125 5.515625 27.984375 
Q 5.515625 40.671875 11.671875 48.328125 
Q 17.828125 56 27.875 56 
Q 33.9375 56 38.28125 53.609375 
Q 42.625 51.21875 45.40625 46.390625 
L 45.40625 54.6875 
L 54.390625 54.6875 
z
" id="DejaVuSans-103"/>
      <path d="M 54.890625 33.015625 
L 54.890625 0 
L 45.90625 0 
L 45.90625 32.71875 
Q 45.90625 40.484375 42.875 44.328125 
Q 39.84375 48.1875 33.796875 48.1875 
Q 26.515625 48.1875 22.3125 43.546875 
Q 18.109375 38.921875 18.109375 30.90625 
L 18.109375 0 
L 9.078125 0 
L 9.078125 54.6875 
L 18.109375 54.6875 
L 18.109375 46.1875 
Q 21.34375 51.125 25.703125 53.5625 
Q 30.078125 56 35.796875 56 
Q 45.21875 56 50.046875 50.171875 
Q 54.890625 44.34375 54.890625 33.015625 
z
" id="DejaVuSans-110"/>
      <path d="M 8.015625 75.875 
L 15.828125 75.875 
Q 23.140625 64.359375 26.78125 53.3125 
Q 30.421875 42.28125 30.421875 31.390625 
Q 30.421875 20.453125 26.78125 9.375 
Q 23.140625 -1.703125 15.828125 -13.1875 
L 8.015625 -13.1875 
Q 14.5 -2 17.703125 9.0625 
Q 20.90625 20.125 20.90625 31.390625 
Q 20.90625 42.671875 17.703125 53.65625 
Q 14.5 64.65625 8.015625 75.875 
z
" id="DejaVuSans-41"/>
     </defs>
     <g transform="translate(339.574134 350.87825)scale(0.144 -0.144)">
      <use xlink:href="#DejaVuSans-70"/>
      <use x="57.472656" xlink:href="#DejaVuSans-111"/>
      <use x="118.654297" xlink:href="#DejaVuSans-111"/>
      <use x="179.835938" xlink:href="#DejaVuSans-100"/>
      <use x="243.3125" xlink:href="#DejaVuSans-32"/>
      <use x="275.099609" xlink:href="#DejaVuSans-68"/>
      <use x="352.101562" xlink:href="#DejaVuSans-121"/>
      <use x="411.28125" xlink:href="#DejaVuSans-101"/>
      <use x="472.804688" xlink:href="#DejaVuSans-32"/>
      <use x="504.591797" xlink:href="#DejaVuSans-40"/>
      <use x="543.605469" xlink:href="#DejaVuSans-87"/>
      <use x="642.451172" xlink:href="#DejaVuSans-105"/>
      <use x="670.234375" xlink:href="#DejaVuSans-116"/>
      <use x="709.443359" xlink:href="#DejaVuSans-104"/>
      <use x="772.822266" xlink:href="#DejaVuSans-32"/>
      <use x="804.609375" xlink:href="#DejaVuSans-82"/>
      <use x="874.029297" xlink:href="#DejaVuSans-101"/>
      <use x="935.552734" xlink:href="#DejaVuSans-102"/>
      <use x="970.757812" xlink:href="#DejaVuSans-32"/>
      <use x="1002.544922" xlink:href="#DejaVuSans-82"/>
      <use x="1071.964844" xlink:href="#DejaVuSans-101"/>
      <use x="1133.488281" xlink:href="#DejaVuSans-103"/>
      <use x="1196.964844" xlink:href="#DejaVuSans-105"/>
      <use x="1224.748047" xlink:href="#DejaVuSans-111"/>
      <use x="1285.929688" xlink:href="#DejaVuSans-110"/>
      <use x="1349.308594" xlink:href="#DejaVuSans-41"/>
     </g>
    </g>
   </g>
   <g id="matplotlib.axis_2">
    <g id="ytick_1">
     <g id="line2d_5">
      <defs>
       <path d="M 0 0 
L -3.5 0 
" id="m7e630c68fb" style="stroke:#000000;stroke-width:0.8;"/>
      </defs>
      <g>
       <use style="stroke:#000000;stroke-width:0.8;" x="180" xlink:href="#m7e630c68fb" y="315"/>
      </g>
     </g>
     <g id="text_6">
      <!-- 0.20 -->
      <defs>
       <path d="M 31.78125 66.40625 
Q 24.171875 66.40625 20.328125 58.90625 
Q 16.5 51.421875 16.5 36.375 
Q 16.5 21.390625 20.328125 13.890625 
Q 24.171875 6.390625 31.78125 6.390625 
Q 39.453125 6.390625 43.28125 13.890625 
Q 47.125 21.390625 47.125 36.375 
Q 47.125 51.421875 43.28125 58.90625 
Q 39.453125 66.40625 31.78125 66.40625 
z
M 31.78125 74.21875 
Q 44.046875 74.21875 50.515625 64.515625 
Q 56.984375 54.828125 56.984375 36.375 
Q 56.984375 17.96875 50.515625 8.265625 
Q 44.046875 -1.421875 31.78125 -1.421875 
Q 19.53125 -1.421875 13.0625 8.265625 
Q 6.59375 17.96875 6.59375 36.375 
Q 6.59375 54.828125 13.0625 64.515625 
Q 19.53125 74.21875 31.78125 74.21875 
z
" id="DejaVuSans-48"/>
       <path d="M 10.6875 12.40625 
L 21 12.40625 
L 21 0 
L 10.6875 0 
z
" id="DejaVuSans-46"/>
       <path d="M 19.1875 8.296875 
L 53.609375 8.296875 
L 53.609375 0 
L 7.328125 0 
L 7.328125 8.296875 
Q 12.9375 14.109375 22.625 23.890625 
Q 32.328125 33.6875 34.8125 36.53125 
Q 39.546875 41.84375 41.421875 45.53125 
Q 43.3125 49.21875 43.3125 52.78125 
Q 43.3125 58.59375 39.234375 62.25 
Q 35.15625 65.921875 28.609375 65.921875 
Q 23.96875 65.921875 18.8125 64.3125 
Q 13.671875 62.703125 7.8125 59.421875 
L 7.8125 69.390625 
Q 13.765625 71.78125 18.9375 73 
Q 24.125 74.21875 28.421875 74.21875 
Q 39.75 74.21875 46.484375 68.546875 
Q 53.21875 62.890625 53.21875 53.421875 
Q 53.21875 48.921875 51.53125 44.890625 
Q 49.859375 40.875 45.40625 35.40625 
Q 44.1875 33.984375 37.640625 27.21875 
Q 31.109375 20.453125 19.1875 8.296875 
z
" id="DejaVuSans-50"/>
      </defs>
      <g transform="translate(140.9375 320.470875)scale(0.144 -0.144)">
       <use xlink:href="#DejaVuSans-48"/>
       <use x="63.623047" xlink:href="#DejaVuSans-46"/>
       <use x="95.410156" xlink:href="#DejaVuSans-50"/>
       <use x="159.033203" xlink:href="#DejaVuSans-48"/>
      </g>
     </g>
    </g>
    <g id="ytick_2">
     <g id="line2d_6">
      <g>
       <use style="stroke:#000000;stroke-width:0.8;" x="180" xlink:href="#m7e630c68fb" y="281.025"/>
      </g>
     </g>
     <g id="text_7">
      <!-- 0.25 -->
      <defs>
       <path d="M 10.796875 72.90625 
L 49.515625 72.90625 
L 49.515625 64.59375 
L 19.828125 64.59375 
L 19.828125 46.734375 
Q 21.96875 47.46875 24.109375 47.828125 
Q 26.265625 48.1875 28.421875 48.1875 
Q 40.625 48.1875 47.75 41.5 
Q 54.890625 34.8125 54.890625 23.390625 
Q 54.890625 11.625 47.5625 5.09375 
Q 40.234375 -1.421875 26.90625 -1.421875 
Q 22.3125 -1.421875 17.546875 -0.640625 
Q 12.796875 0.140625 7.71875 1.703125 
L 7.71875 11.625 
Q 12.109375 9.234375 16.796875 8.0625 
Q 21.484375 6.890625 26.703125 6.890625 
Q 35.15625 6.890625 40.078125 11.328125 
Q 45.015625 15.765625 45.015625 23.390625 
Q 45.015625 31 40.078125 35.4375 
Q 35.15625 39.890625 26.703125 39.890625 
Q 22.75 39.890625 18.8125 39.015625 
Q 14.890625 38.140625 10.796875 36.28125 
z
" id="DejaVuSans-53"/>
      </defs>
      <g transform="translate(140.9375 286.495875)scale(0.144 -0.144)">
       <use xlink:href="#DejaVuSans-48"/>
       <use x="63.623047" xlink:href="#DejaVuSans-46"/>
       <use x="95.410156" xlink:href="#DejaVuSans-50"/>
       <use x="159.033203" xlink:href="#DejaVuSans-53"/>
      </g>
     </g>
    </g>
    <g id="ytick_3">
     <g id="line2d_7">
      <g>
       <use style="stroke:#000000;stroke-width:0.8;" x="180" xlink:href="#m7e630c68fb" y="247.05"/>
      </g>
     </g>
     <g id="text_8">
      <!-- 0.30 -->
      <defs>
       <path d="M 40.578125 39.3125 
Q 47.65625 37.796875 51.625 33 
Q 55.609375 28.21875 55.609375 21.1875 
Q 55.609375 10.40625 48.1875 4.484375 
Q 40.765625 -1.421875 27.09375 -1.421875 
Q 22.515625 -1.421875 17.65625 -0.515625 
Q 12.796875 0.390625 7.625 2.203125 
L 7.625 11.71875 
Q 11.71875 9.328125 16.59375 8.109375 
Q 21.484375 6.890625 26.8125 6.890625 
Q 36.078125 6.890625 40.9375 10.546875 
Q 45.796875 14.203125 45.796875 21.1875 
Q 45.796875 27.640625 41.28125 31.265625 
Q 36.765625 34.90625 28.71875 34.90625 
L 20.21875 34.90625 
L 20.21875 43.015625 
L 29.109375 43.015625 
Q 36.375 43.015625 40.234375 45.921875 
Q 44.09375 48.828125 44.09375 54.296875 
Q 44.09375 59.90625 40.109375 62.90625 
Q 36.140625 65.921875 28.71875 65.921875 
Q 24.65625 65.921875 20.015625 65.03125 
Q 15.375 64.15625 9.8125 62.3125 
L 9.8125 71.09375 
Q 15.4375 72.65625 20.34375 73.4375 
Q 25.25 74.21875 29.59375 74.21875 
Q 40.828125 74.21875 47.359375 69.109375 
Q 53.90625 64.015625 53.90625 55.328125 
Q 53.90625 49.265625 50.4375 45.09375 
Q 46.96875 40.921875 40.578125 39.3125 
z
" id="DejaVuSans-51"/>
      </defs>
      <g transform="translate(140.9375 252.520875)scale(0.144 -0.144)">
       <use xlink:href="#DejaVuSans-48"/>
       <use x="63.623047" xlink:href="#DejaVuSans-46"/>
       <use x="95.410156" xlink:href="#DejaVuSans-51"/>
       <use x="159.033203" xlink:href="#DejaVuSans-48"/>
      </g>
     </g>
    </g>
    <g id="ytick_4">
     <g id="line2d_8">
      <g>
       <use style="stroke:#000000;stroke-width:0.8;" x="180" xlink:href="#m7e630c68fb" y="213.075"/>
      </g>
     </g>
     <g id="text_9">
      <!-- 0.35 -->
      <g transform="translate(140.9375 218.545875)scale(0.144 -0.144)">
       <use xlink:href="#DejaVuSans-48"/>
       <use x="63.623047" xlink:href="#DejaVuSans-46"/>
       <use x="95.410156" xlink:href="#DejaVuSans-51"/>
       <use x="159.033203" xlink:href="#DejaVuSans-53"/>
      </g>
     </g>
    </g>
    <g id="ytick_5">
     <g id="line2d_9">
      <g>
       <use style="stroke:#000000;stroke-width:0.8;" x="180" xlink:href="#m7e630c68fb" y="179.1"/>
      </g>
     </g>
     <g id="text_10">
      <!-- 0.40 -->
      <defs>
       <path d="M 37.796875 64.3125 
L 12.890625 25.390625 
L 37.796875 25.390625 
z
M 35.203125 72.90625 
L 47.609375 72.90625 
L 47.609375 25.390625 
L 58.015625 25.390625 
L 58.015625 17.1875 
L 47.609375 17.1875 
L 47.609375 0 
L 37.796875 0 
L 37.796875 17.1875 
L 4.890625 17.1875 
L 4.890625 26.703125 
z
" id="DejaVuSans-52"/>
      </defs>
      <g transform="translate(140.9375 184.570875)scale(0.144 -0.144)">
       <use xlink:href="#DejaVuSans-48"/>
       <use x="63.623047" xlink:href="#DejaVuSans-46"/>
       <use x="95.410156" xlink:href="#DejaVuSans-52"/>
       <use x="159.033203" xlink:href="#DejaVuSans-48"/>
      </g>
     </g>
    </g>
    <g id="ytick_6">
     <g id="line2d_10">
      <g>
       <use style="stroke:#000000;stroke-width:0.8;" x="180" xlink:href="#m7e630c68fb" y="145.125"/>
      </g>
     </g>
     <g id="text_11">
      <!-- 0.45 -->
      <g transform="translate(140.9375 150.595875)scale(0.144 -0.144)">
       <use xlink:href="#DejaVuSans-48"/>
       <use x="63.623047" xlink:href="#DejaVuSans-46"/>
       <use x="95.410156" xlink:href="#DejaVuSans-52"/>
       <use x="159.033203" xlink:href="#DejaVuSans-53"/>
      </g>
     </g>
    </g>
    <g id="ytick_7">
     <g id="line2d_11">
      <g>
       <use style="stroke:#000000;stroke-width:0.8;" x="180" xlink:href="#m7e630c68fb" y="111.15"/>
      </g>
     </g>
     <g id="text_12">
      <!-- 0.50 -->
      <g transform="translate(140.9375 116.620875)scale(0.144 -0.144)">
       <use xlink:href="#DejaVuSans-48"/>
       <use x="63.623047" xlink:href="#DejaVuSans-46"/>
       <use x="95.410156" xlink:href="#DejaVuSans-53"/>
       <use x="159.033203" xlink:href="#DejaVuSans-48"/>
      </g>
     </g>
    </g>
    <g id="ytick_8">
     <g id="line2d_12">
      <g>
       <use style="stroke:#000000;stroke-width:0.8;" x="180" xlink:href="#m7e630c68fb" y="77.175"/>
      </g>
     </g>
     <g id="text_13">
      <!-- 0.55 -->
      <g transform="translate(140.9375 82.645875)scale(0.144 -0.144)">
       <use xlink:href="#DejaVuSans-48"/>
       <use x="63.623047" xlink:href="#DejaVuSans-46"/>
       <use x="95.410156" xlink:href="#DejaVuSans-53"/>
       <use x="159.033203" xlink:href="#DejaVuSans-53"/>
      </g>
     </g>
    </g>
    <g id="ytick_9">
     <g id="line2d_13">
      <g>
       <use style="stroke:#000000;stroke-width:0.8;" x="180" xlink:href="#m7e630c68fb" y="43.2"/>
      </g>
     </g>
     <g id="text_14">
      <!-- 0.60 -->
      <defs>
       <path d="M 33.015625 40.375 
Q 26.375 40.375 22.484375 35.828125 
Q 18.609375 31.296875 18.609375 23.390625 
Q 18.609375 15.53125 22.484375 10.953125 
Q 26.375 6.390625 33.015625 6.390625 
Q 39.65625 6.390625 43.53125 10.953125 
Q 47.40625 15.53125 47.40625 23.390625 
Q 47.40625 31.296875 43.53125 35.828125 
Q 39.65625 40.375 33.015625 40.375 
z
M 52.59375 71.296875 
L 52.59375 62.3125 
Q 48.875 64.0625 45.09375 64.984375 
Q 41.3125 65.921875 37.59375 65.921875 
Q 27.828125 65.921875 22.671875 59.328125 
Q 17.53125 52.734375 16.796875 39.40625 
Q 19.671875 43.65625 24.015625 45.921875 
Q 28.375 48.1875 33.59375 48.1875 
Q 44.578125 48.1875 50.953125 41.515625 
Q 57.328125 34.859375 57.328125 23.390625 
Q 57.328125 12.15625 50.6875 5.359375 
Q 44.046875 -1.421875 33.015625 -1.421875 
Q 20.359375 -1.421875 13.671875 8.265625 
Q 6.984375 17.96875 6.984375 36.375 
Q 6.984375 53.65625 15.1875 63.9375 
Q 23.390625 74.21875 37.203125 74.21875 
Q 40.921875 74.21875 44.703125 73.484375 
Q 48.484375 72.75 52.59375 71.296875 
z
" id="DejaVuSans-54"/>
      </defs>
      <g transform="translate(140.9375 48.670875)scale(0.144 -0.144)">
       <use xlink:href="#DejaVuSans-48"/>
       <use x="63.623047" xlink:href="#DejaVuSans-46"/>
       <use x="95.410156" xlink:href="#DejaVuSans-54"/>
       <use x="159.033203" xlink:href="#DejaVuSans-48"/>
      </g>
     </g>
    </g>
    <g id="text_15">
     <!-- Accuracy -->
     <defs>
      <path d="M 48.78125 52.59375 
L 48.78125 44.1875 
Q 44.96875 46.296875 41.140625 47.34375 
Q 37.3125 48.390625 33.40625 48.390625 
Q 24.65625 48.390625 19.8125 42.84375 
Q 14.984375 37.3125 14.984375 27.296875 
Q 14.984375 17.28125 19.8125 11.734375 
Q 24.65625 6.203125 33.40625 6.203125 
Q 37.3125 6.203125 41.140625 7.25 
Q 44.96875 8.296875 48.78125 10.40625 
L 48.78125 2.09375 
Q 45.015625 0.34375 40.984375 -0.53125 
Q 36.96875 -1.421875 32.421875 -1.421875 
Q 20.0625 -1.421875 12.78125 6.34375 
Q 5.515625 14.109375 5.515625 27.296875 
Q 5.515625 40.671875 12.859375 48.328125 
Q 20.21875 56 33.015625 56 
Q 37.15625 56 41.109375 55.140625 
Q 45.0625 54.296875 48.78125 52.59375 
z
" id="DejaVuSans-99"/>
      <path d="M 8.5 21.578125 
L 8.5 54.6875 
L 17.484375 54.6875 
L 17.484375 21.921875 
Q 17.484375 14.15625 20.5 10.265625 
Q 23.53125 6.390625 29.59375 6.390625 
Q 36.859375 6.390625 41.078125 11.03125 
Q 45.3125 15.671875 45.3125 23.6875 
L 45.3125 54.6875 
L 54.296875 54.6875 
L 54.296875 0 
L 45.3125 0 
L 45.3125 8.40625 
Q 42.046875 3.421875 37.71875 1 
Q 33.40625 -1.421875 27.6875 -1.421875 
Q 18.265625 -1.421875 13.375 4.4375 
Q 8.5 10.296875 8.5 21.578125 
z
M 31.109375 56 
z
" id="DejaVuSans-117"/>
      <path d="M 41.109375 46.296875 
Q 39.59375 47.171875 37.8125 47.578125 
Q 36.03125 48 33.890625 48 
Q 26.265625 48 22.1875 43.046875 
Q 18.109375 38.09375 18.109375 28.8125 
L 18.109375 0 
L 9.078125 0 
L 9.078125 54.6875 
L 18.109375 54.6875 
L 18.109375 46.1875 
Q 20.953125 51.171875 25.484375 53.578125 
Q 30.03125 56 36.53125 56 
Q 37.453125 56 38.578125 55.875 
Q 39.703125 55.765625 41.0625 55.515625 
z
" id="DejaVuSans-114"/>
      <path d="M 34.28125 27.484375 
Q 23.390625 27.484375 19.1875 25 
Q 14.984375 22.515625 14.984375 16.5 
Q 14.984375 11.71875 18.140625 8.90625 
Q 21.296875 6.109375 26.703125 6.109375 
Q 34.1875 6.109375 38.703125 11.40625 
Q 43.21875 16.703125 43.21875 25.484375 
L 43.21875 27.484375 
z
M 52.203125 31.203125 
L 52.203125 0 
L 43.21875 0 
L 43.21875 8.296875 
Q 40.140625 3.328125 35.546875 0.953125 
Q 30.953125 -1.421875 24.3125 -1.421875 
Q 15.921875 -1.421875 10.953125 3.296875 
Q 6 8.015625 6 15.921875 
Q 6 25.140625 12.171875 29.828125 
Q 18.359375 34.515625 30.609375 34.515625 
L 43.21875 34.515625 
L 43.21875 35.40625 
Q 43.21875 41.609375 39.140625 45 
Q 35.0625 48.390625 27.6875 48.390625 
Q 23 48.390625 18.546875 47.265625 
Q 14.109375 46.140625 10.015625 43.890625 
L 10.015625 52.203125 
Q 14.9375 54.109375 19.578125 55.046875 
Q 24.21875 56 28.609375 56 
Q 40.484375 56 46.34375 49.84375 
Q 52.203125 43.703125 52.203125 31.203125 
z
" id="DejaVuSans-97"/>
     </defs>
     <g transform="translate(133.94275 212.097375)rotate(-90)scale(0.144 -0.144)">
      <use xlink:href="#DejaVuSans-65"/>
      <use x="68.392578" xlink:href="#DejaVuSans-99"/>
      <use x="123.373047" xlink:href="#DejaVuSans-99"/>
      <use x="178.353516" xlink:href="#DejaVuSans-117"/>
      <use x="241.732422" xlink:href="#DejaVuSans-114"/>
      <use x="282.845703" xlink:href="#DejaVuSans-97"/>
      <use x="344.125" xlink:href="#DejaVuSans-99"/>
      <use x="399.105469" xlink:href="#DejaVuSans-121"/>
     </g>
    </g>
   </g>
   <g id="line2d_14">
    <path clip-path="url(#p4e781deae8)" d="M 231.538842 255.308315 
L 231.538842 255.308315 
" style="fill:none;stroke:#484848;stroke-linecap:square;"/>
   </g>
   <g id="line2d_15">
    <path clip-path="url(#p4e781deae8)" d="M 231.538842 250.626316 
L 231.538842 244.726923 
" style="fill:none;stroke:#484848;stroke-linecap:square;"/>
   </g>
   <g id="line2d_16">
    <path clip-path="url(#p4e781deae8)" d="M 225.225334 255.308315 
L 237.85235 255.308315 
" style="fill:none;stroke:#484848;stroke-linecap:square;"/>
   </g>
   <g id="line2d_17">
    <path clip-path="url(#p4e781deae8)" d="M 225.225334 244.726923 
L 237.85235 244.726923 
" style="fill:none;stroke:#484848;stroke-linecap:square;"/>
   </g>
   <g id="line2d_18">
    <defs>
     <path d="M 0 3.535534 
L 2.12132 0 
L 0 -3.535534 
L -2.12132 0 
z
" id="m0467c346b9" style="stroke:#484848;stroke-linejoin:miter;"/>
    </defs>
    <g clip-path="url(#p4e781deae8)">
     <use style="fill:#484848;stroke:#484848;stroke-linejoin:miter;" x="231.538842" xlink:href="#m0467c346b9" y="266.628813"/>
    </g>
   </g>
   <g id="line2d_19">
    <path clip-path="url(#p4e781deae8)" d="M 257.308263 199.717307 
L 257.308263 204.59936 
" style="fill:none;stroke:#484848;stroke-linecap:square;"/>
   </g>
   <g id="line2d_20">
    <path clip-path="url(#p4e781deae8)" d="M 257.308263 176.486538 
L 257.308263 144.767368 
" style="fill:none;stroke:#484848;stroke-linecap:square;"/>
   </g>
   <g id="line2d_21">
    <path clip-path="url(#p4e781deae8)" d="M 250.994755 204.59936 
L 263.621771 204.59936 
" style="fill:none;stroke:#484848;stroke-linecap:square;"/>
   </g>
   <g id="line2d_22">
    <path clip-path="url(#p4e781deae8)" d="M 250.994755 144.767368 
L 263.621771 144.767368 
" style="fill:none;stroke:#484848;stroke-linecap:square;"/>
   </g>
   <g id="line2d_23"/>
   <g id="line2d_24">
    <path clip-path="url(#p4e781deae8)" d="M 283.077684 175.622814 
L 283.077684 175.932839 
" style="fill:none;stroke:#484848;stroke-linecap:square;"/>
   </g>
   <g id="line2d_25">
    <path clip-path="url(#p4e781deae8)" d="M 283.077684 164.871154 
L 283.077684 150.351923 
" style="fill:none;stroke:#484848;stroke-linecap:square;"/>
   </g>
   <g id="line2d_26">
    <path clip-path="url(#p4e781deae8)" d="M 276.764176 175.932839 
L 289.391192 175.932839 
" style="fill:none;stroke:#484848;stroke-linecap:square;"/>
   </g>
   <g id="line2d_27">
    <path clip-path="url(#p4e781deae8)" d="M 276.764176 150.351923 
L 289.391192 150.351923 
" style="fill:none;stroke:#484848;stroke-linecap:square;"/>
   </g>
   <g id="line2d_28"/>
   <g id="line2d_29">
    <path clip-path="url(#p4e781deae8)" d="M 341.979218 266.362106 
L 341.979218 266.505769 
" style="fill:none;stroke:#484848;stroke-linecap:square;"/>
   </g>
   <g id="line2d_30">
    <path clip-path="url(#p4e781deae8)" d="M 341.979218 224.882943 
L 341.979218 223.440254 
" style="fill:none;stroke:#484848;stroke-linecap:square;"/>
   </g>
   <g id="line2d_31">
    <path clip-path="url(#p4e781deae8)" d="M 335.66571 266.505769 
L 348.292726 266.505769 
" style="fill:none;stroke:#484848;stroke-linecap:square;"/>
   </g>
   <g id="line2d_32">
    <path clip-path="url(#p4e781deae8)" d="M 335.66571 223.440254 
L 348.292726 223.440254 
" style="fill:none;stroke:#484848;stroke-linecap:square;"/>
   </g>
   <g id="line2d_33"/>
   <g id="line2d_34">
    <path clip-path="url(#p4e781deae8)" d="M 367.748639 183.746154 
L 367.748639 190.111088 
" style="fill:none;stroke:#484848;stroke-linecap:square;"/>
   </g>
   <g id="line2d_35">
    <path clip-path="url(#p4e781deae8)" d="M 367.748639 176.486538 
L 367.748639 176.486538 
" style="fill:none;stroke:#484848;stroke-linecap:square;"/>
   </g>
   <g id="line2d_36">
    <path clip-path="url(#p4e781deae8)" d="M 361.435131 190.111088 
L 374.062147 190.111088 
" style="fill:none;stroke:#484848;stroke-linecap:square;"/>
   </g>
   <g id="line2d_37">
    <path clip-path="url(#p4e781deae8)" d="M 361.435131 176.486538 
L 374.062147 176.486538 
" style="fill:none;stroke:#484848;stroke-linecap:square;"/>
   </g>
   <g id="line2d_38">
    <g clip-path="url(#p4e781deae8)">
     <use style="fill:#484848;stroke:#484848;stroke-linejoin:miter;" x="367.748639" xlink:href="#m0467c346b9" y="158.657415"/>
    </g>
   </g>
   <g id="line2d_39">
    <path clip-path="url(#p4e781deae8)" d="M 393.51806 165.855509 
L 393.51806 171.947368 
" style="fill:none;stroke:#484848;stroke-linecap:square;"/>
   </g>
   <g id="line2d_40">
    <path clip-path="url(#p4e781deae8)" d="M 393.51806 151.803846 
L 393.51806 144.544231 
" style="fill:none;stroke:#484848;stroke-linecap:square;"/>
   </g>
   <g id="line2d_41">
    <path clip-path="url(#p4e781deae8)" d="M 387.204552 171.947368 
L 399.831569 171.947368 
" style="fill:none;stroke:#484848;stroke-linecap:square;"/>
   </g>
   <g id="line2d_42">
    <path clip-path="url(#p4e781deae8)" d="M 387.204552 144.544231 
L 399.831569 144.544231 
" style="fill:none;stroke:#484848;stroke-linecap:square;"/>
   </g>
   <g id="line2d_43"/>
   <g id="line2d_44">
    <path clip-path="url(#p4e781deae8)" d="M 452.419594 151.803846 
L 452.419594 162.976271 
" style="fill:none;stroke:#484848;stroke-linecap:square;"/>
   </g>
   <g id="line2d_45">
    <path clip-path="url(#p4e781deae8)" d="M 452.419594 144.767368 
L 452.419594 138.736539 
" style="fill:none;stroke:#484848;stroke-linecap:square;"/>
   </g>
   <g id="line2d_46">
    <path clip-path="url(#p4e781deae8)" d="M 446.106086 162.976271 
L 458.733102 162.976271 
" style="fill:none;stroke:#484848;stroke-linecap:square;"/>
   </g>
   <g id="line2d_47">
    <path clip-path="url(#p4e781deae8)" d="M 446.106086 138.736539 
L 458.733102 138.736539 
" style="fill:none;stroke:#484848;stroke-linecap:square;"/>
   </g>
   <g id="line2d_48"/>
   <g id="line2d_49">
    <path clip-path="url(#p4e781deae8)" d="M 478.189015 147.628421 
L 478.189015 156.159615 
" style="fill:none;stroke:#484848;stroke-linecap:square;"/>
   </g>
   <g id="line2d_50">
    <path clip-path="url(#p4e781deae8)" d="M 478.189015 129.865042 
L 478.189015 127.811514 
" style="fill:none;stroke:#484848;stroke-linecap:square;"/>
   </g>
   <g id="line2d_51">
    <path clip-path="url(#p4e781deae8)" d="M 471.875507 156.159615 
L 484.502524 156.159615 
" style="fill:none;stroke:#484848;stroke-linecap:square;"/>
   </g>
   <g id="line2d_52">
    <path clip-path="url(#p4e781deae8)" d="M 471.875507 127.811514 
L 484.502524 127.811514 
" style="fill:none;stroke:#484848;stroke-linecap:square;"/>
   </g>
   <g id="line2d_53"/>
   <g id="line2d_54">
    <path clip-path="url(#p4e781deae8)" d="M 503.958436 102.512288 
L 503.958436 103.18145 
" style="fill:none;stroke:#484848;stroke-linecap:square;"/>
   </g>
   <g id="line2d_55">
    <path clip-path="url(#p4e781deae8)" d="M 503.958436 91.837894 
L 503.958436 77.755769 
" style="fill:none;stroke:#484848;stroke-linecap:square;"/>
   </g>
   <g id="line2d_56">
    <path clip-path="url(#p4e781deae8)" d="M 497.644928 103.18145 
L 510.271945 103.18145 
" style="fill:none;stroke:#484848;stroke-linecap:square;"/>
   </g>
   <g id="line2d_57">
    <path clip-path="url(#p4e781deae8)" d="M 497.644928 77.755769 
L 510.271945 77.755769 
" style="fill:none;stroke:#484848;stroke-linecap:square;"/>
   </g>
   <g id="line2d_58"/>
   <g id="line2d_59">
    <path clip-path="url(#p4e781deae8)" d="M 562.85997 234.563462 
L 562.85997 243.717697 
" style="fill:none;stroke:#484848;stroke-linecap:square;"/>
   </g>
   <g id="line2d_60">
    <path clip-path="url(#p4e781deae8)" d="M 562.85997 219.121398 
L 562.85997 209.880769 
" style="fill:none;stroke:#484848;stroke-linecap:square;"/>
   </g>
   <g id="line2d_61">
    <path clip-path="url(#p4e781deae8)" d="M 556.546462 243.717697 
L 569.173478 243.717697 
" style="fill:none;stroke:#484848;stroke-linecap:square;"/>
   </g>
   <g id="line2d_62">
    <path clip-path="url(#p4e781deae8)" d="M 556.546462 209.880769 
L 569.173478 209.880769 
" style="fill:none;stroke:#484848;stroke-linecap:square;"/>
   </g>
   <g id="line2d_63"/>
   <g id="line2d_64">
    <path clip-path="url(#p4e781deae8)" d="M 588.629391 187.449788 
L 588.629391 201.988421 
" style="fill:none;stroke:#484848;stroke-linecap:square;"/>
   </g>
   <g id="line2d_65">
    <path clip-path="url(#p4e781deae8)" d="M 588.629391 169.827506 
L 588.629391 166.323077 
" style="fill:none;stroke:#484848;stroke-linecap:square;"/>
   </g>
   <g id="line2d_66">
    <path clip-path="url(#p4e781deae8)" d="M 582.315883 201.988421 
L 594.9429 201.988421 
" style="fill:none;stroke:#484848;stroke-linecap:square;"/>
   </g>
   <g id="line2d_67">
    <path clip-path="url(#p4e781deae8)" d="M 582.315883 166.323077 
L 594.9429 166.323077 
" style="fill:none;stroke:#484848;stroke-linecap:square;"/>
   </g>
   <g id="line2d_68"/>
   <g id="line2d_69">
    <path clip-path="url(#p4e781deae8)" d="M 614.398812 162.583369 
L 614.398812 166.323077 
" style="fill:none;stroke:#484848;stroke-linecap:square;"/>
   </g>
   <g id="line2d_70">
    <path clip-path="url(#p4e781deae8)" d="M 614.398812 149.058948 
L 614.398812 132.74428 
" style="fill:none;stroke:#484848;stroke-linecap:square;"/>
   </g>
   <g id="line2d_71">
    <path clip-path="url(#p4e781deae8)" d="M 608.085304 166.323077 
L 620.712321 166.323077 
" style="fill:none;stroke:#484848;stroke-linecap:square;"/>
   </g>
   <g id="line2d_72">
    <path clip-path="url(#p4e781deae8)" d="M 608.085304 132.74428 
L 620.712321 132.74428 
" style="fill:none;stroke:#484848;stroke-linecap:square;"/>
   </g>
   <g id="line2d_73"/>
   <g id="line2d_74">
    <path clip-path="url(#p4e781deae8)" d="M 218.911826 254.890385 
L 244.165858 254.890385 
" style="fill:none;stroke:#484848;stroke-linecap:square;"/>
   </g>
   <g id="line2d_75">
    <path clip-path="url(#p4e781deae8)" d="M 244.681247 177.372458 
L 269.93528 177.372458 
" style="fill:none;stroke:#484848;stroke-linecap:square;"/>
   </g>
   <g id="line2d_76">
    <path clip-path="url(#p4e781deae8)" d="M 270.450668 167.65579 
L 295.704701 167.65579 
" style="fill:none;stroke:#484848;stroke-linecap:square;"/>
   </g>
   <g id="line2d_77">
    <path clip-path="url(#p4e781deae8)" d="M 329.352202 260.698077 
L 354.606235 260.698077 
" style="fill:none;stroke:#484848;stroke-linecap:square;"/>
   </g>
   <g id="line2d_78">
    <path clip-path="url(#p4e781deae8)" d="M 355.121623 177.669474 
L 380.375656 177.669474 
" style="fill:none;stroke:#484848;stroke-linecap:square;"/>
   </g>
   <g id="line2d_79">
    <path clip-path="url(#p4e781deae8)" d="M 380.891044 156.78806 
L 406.145077 156.78806 
" style="fill:none;stroke:#484848;stroke-linecap:square;"/>
   </g>
   <g id="line2d_80">
    <path clip-path="url(#p4e781deae8)" d="M 439.792578 150.99275 
L 465.046611 150.99275 
" style="fill:none;stroke:#484848;stroke-linecap:square;"/>
   </g>
   <g id="line2d_81">
    <path clip-path="url(#p4e781deae8)" d="M 465.561999 137.284615 
L 490.816032 137.284615 
" style="fill:none;stroke:#484848;stroke-linecap:square;"/>
   </g>
   <g id="line2d_82">
    <path clip-path="url(#p4e781deae8)" d="M 491.33142 99.534615 
L 516.585453 99.534615 
" style="fill:none;stroke:#484848;stroke-linecap:square;"/>
   </g>
   <g id="line2d_83">
    <path clip-path="url(#p4e781deae8)" d="M 550.232954 227.737894 
L 575.486987 227.737894 
" style="fill:none;stroke:#484848;stroke-linecap:square;"/>
   </g>
   <g id="line2d_84">
    <path clip-path="url(#p4e781deae8)" d="M 576.002375 176.486538 
L 601.256408 176.486538 
" style="fill:none;stroke:#484848;stroke-linecap:square;"/>
   </g>
   <g id="line2d_85">
    <path clip-path="url(#p4e781deae8)" d="M 601.771796 151.803846 
L 627.025829 151.803846 
" style="fill:none;stroke:#484848;stroke-linecap:square;"/>
   </g>
   <g id="patch_18">
    <path d="M 180 315 
L 180 43.2 
" style="fill:none;stroke:#000000;stroke-linecap:square;stroke-linejoin:miter;stroke-width:0.8;"/>
   </g>
   <g id="patch_19">
    <path d="M 699.069767 315 
L 699.069767 43.2 
" style="fill:none;stroke:#000000;stroke-linecap:square;stroke-linejoin:miter;stroke-width:0.8;"/>
   </g>
   <g id="patch_20">
    <path d="M 180 315 
L 699.069767 315 
" style="fill:none;stroke:#000000;stroke-linecap:square;stroke-linejoin:miter;stroke-width:0.8;"/>
   </g>
   <g id="patch_21">
    <path d="M 180 43.2 
L 699.069767 43.2 
" style="fill:none;stroke:#000000;stroke-linecap:square;stroke-linejoin:miter;stroke-width:0.8;"/>
   </g>
   <g id="legend_1">
    <g id="patch_22">
     <path d="M 190.08 139.6665 
L 295.48125 139.6665 
Q 298.36125 139.6665 298.36125 136.7865 
L 298.36125 53.28 
Q 298.36125 50.4 295.48125 50.4 
L 190.08 50.4 
Q 187.2 50.4 187.2 53.28 
L 187.2 136.7865 
Q 187.2 139.6665 190.08 139.6665 
z
" style="fill:#ffffff;opacity:0.8;stroke:#cccccc;stroke-linejoin:miter;"/>
    </g>
    <g id="text_16">
     <!-- color_channel -->
     <defs>
      <path d="M 9.421875 75.984375 
L 18.40625 75.984375 
L 18.40625 0 
L 9.421875 0 
z
" id="DejaVuSans-108"/>
      <path d="M 50.984375 -16.609375 
L 50.984375 -23.578125 
L -0.984375 -23.578125 
L -0.984375 -16.609375 
z
" id="DejaVuSans-95"/>
     </defs>
     <g transform="translate(192.96 67.10175)scale(0.144 -0.144)">
      <use xlink:href="#DejaVuSans-99"/>
      <use x="54.980469" xlink:href="#DejaVuSans-111"/>
      <use x="116.162109" xlink:href="#DejaVuSans-108"/>
      <use x="143.945312" xlink:href="#DejaVuSans-111"/>
      <use x="205.126953" xlink:href="#DejaVuSans-114"/>
      <use x="246.240234" xlink:href="#DejaVuSans-95"/>
      <use x="296.240234" xlink:href="#DejaVuSans-99"/>
      <use x="351.220703" xlink:href="#DejaVuSans-104"/>
      <use x="414.599609" xlink:href="#DejaVuSans-97"/>
      <use x="475.878906" xlink:href="#DejaVuSans-110"/>
      <use x="539.257812" xlink:href="#DejaVuSans-110"/>
      <use x="602.636719" xlink:href="#DejaVuSans-101"/>
      <use x="664.160156" xlink:href="#DejaVuSans-108"/>
     </g>
    </g>
    <g id="patch_23">
     <path d="M 207.099 88.63875 
L 235.899 88.63875 
L 235.899 78.55875 
L 207.099 78.55875 
z
" style="fill:#cb3335;stroke:#484848;stroke-linejoin:miter;stroke-width:0.5;"/>
    </g>
    <g id="text_17">
     <!-- RGB -->
     <defs>
      <path d="M 59.515625 10.40625 
L 59.515625 29.984375 
L 43.40625 29.984375 
L 43.40625 38.09375 
L 69.28125 38.09375 
L 69.28125 6.78125 
Q 63.578125 2.734375 56.6875 0.65625 
Q 49.8125 -1.421875 42 -1.421875 
Q 24.90625 -1.421875 15.25 8.5625 
Q 5.609375 18.5625 5.609375 36.375 
Q 5.609375 54.25 15.25 64.234375 
Q 24.90625 74.21875 42 74.21875 
Q 49.125 74.21875 55.546875 72.453125 
Q 61.96875 70.703125 67.390625 67.28125 
L 67.390625 56.78125 
Q 61.921875 61.421875 55.765625 63.765625 
Q 49.609375 66.109375 42.828125 66.109375 
Q 29.4375 66.109375 22.71875 58.640625 
Q 16.015625 51.171875 16.015625 36.375 
Q 16.015625 21.625 22.71875 14.15625 
Q 29.4375 6.6875 42.828125 6.6875 
Q 48.046875 6.6875 52.140625 7.59375 
Q 56.25 8.5 59.515625 10.40625 
z
" id="DejaVuSans-71"/>
      <path d="M 19.671875 34.8125 
L 19.671875 8.109375 
L 35.5 8.109375 
Q 43.453125 8.109375 47.28125 11.40625 
Q 51.125 14.703125 51.125 21.484375 
Q 51.125 28.328125 47.28125 31.5625 
Q 43.453125 34.8125 35.5 34.8125 
z
M 19.671875 64.796875 
L 19.671875 42.828125 
L 34.28125 42.828125 
Q 41.5 42.828125 45.03125 45.53125 
Q 48.578125 48.25 48.578125 53.8125 
Q 48.578125 59.328125 45.03125 62.0625 
Q 41.5 64.796875 34.28125 64.796875 
z
M 9.8125 72.90625 
L 35.015625 72.90625 
Q 46.296875 72.90625 52.390625 68.21875 
Q 58.5 63.53125 58.5 54.890625 
Q 58.5 48.1875 55.375 44.234375 
Q 52.25 40.28125 46.1875 39.3125 
Q 53.46875 37.75 57.5 32.78125 
Q 61.53125 27.828125 61.53125 20.40625 
Q 61.53125 10.640625 54.890625 5.3125 
Q 48.25 0 35.984375 0 
L 9.8125 0 
z
" id="DejaVuSans-66"/>
     </defs>
     <g transform="translate(247.419 88.63875)scale(0.144 -0.144)">
      <use xlink:href="#DejaVuSans-82"/>
      <use x="69.482422" xlink:href="#DejaVuSans-71"/>
      <use x="146.972656" xlink:href="#DejaVuSans-66"/>
     </g>
    </g>
    <g id="patch_24">
     <path d="M 207.099 109.77525 
L 235.899 109.77525 
L 235.899 99.69525 
L 207.099 99.69525 
z
" style="fill:#477ca8;stroke:#484848;stroke-linejoin:miter;stroke-width:0.5;"/>
    </g>
    <g id="text_18">
     <!-- LAB -->
     <g transform="translate(247.419 109.77525)scale(0.144 -0.144)">
      <use xlink:href="#DejaVuSans-76"/>
      <use x="55.744141" xlink:href="#DejaVuSans-65"/>
      <use x="124.152344" xlink:href="#DejaVuSans-66"/>
     </g>
    </g>
    <g id="patch_25">
     <path d="M 207.099 130.91175 
L 235.899 130.91175 
L 235.899 120.83175 
L 207.099 120.83175 
z
" style="fill:#59a257;stroke:#484848;stroke-linejoin:miter;stroke-width:0.5;"/>
    </g>
    <g id="text_19">
     <!-- HSV -->
     <defs>
      <path d="M 9.8125 72.90625 
L 19.671875 72.90625 
L 19.671875 43.015625 
L 55.515625 43.015625 
L 55.515625 72.90625 
L 65.375 72.90625 
L 65.375 0 
L 55.515625 0 
L 55.515625 34.71875 
L 19.671875 34.71875 
L 19.671875 0 
L 9.8125 0 
z
" id="DejaVuSans-72"/>
     </defs>
     <g transform="translate(247.419 130.91175)scale(0.144 -0.144)">
      <use xlink:href="#DejaVuSans-72"/>
      <use x="75.195312" xlink:href="#DejaVuSans-83"/>
      <use x="138.671875" xlink:href="#DejaVuSans-86"/>
     </g>
    </g>
   </g>
  </g>
  <g id="axes_2">
   <g id="patch_26">
    <path d="M 776.930233 315 
L 1296 315 
L 1296 43.2 
L 776.930233 43.2 
z
" style="fill:#ffffff;"/>
   </g>
   <g id="patch_27">
    <path clip-path="url(#p536e6fe308)" d="M 815.842058 259.062269 
L 841.096091 259.062269 
L 841.096091 256.757143 
L 815.842058 256.757143 
L 815.842058 259.062269 
z
" style="fill:#cb3335;stroke:#484848;stroke-linejoin:miter;"/>
   </g>
   <g id="patch_28">
    <path clip-path="url(#p536e6fe308)" d="M 841.611479 275.072507 
L 866.865512 275.072507 
L 866.865512 265.414865 
L 841.611479 265.414865 
L 841.611479 275.072507 
z
" style="fill:#477ca8;stroke:#484848;stroke-linejoin:miter;"/>
   </g>
   <g id="patch_29">
    <path clip-path="url(#p536e6fe308)" d="M 867.380901 227.380263 
L 892.634933 227.380263 
L 892.634933 215.266935 
L 867.380901 215.266935 
L 867.380901 227.380263 
z
" style="fill:#59a257;stroke:#484848;stroke-linejoin:miter;"/>
   </g>
   <g id="patch_30">
    <path clip-path="url(#p536e6fe308)" d="M 926.282434 261.741892 
L 951.536467 261.741892 
L 951.536467 242.104852 
L 926.282434 242.104852 
L 926.282434 261.741892 
z
" style="fill:#cb3335;stroke:#484848;stroke-linejoin:miter;"/>
   </g>
   <g id="patch_31">
    <path clip-path="url(#p536e6fe308)" d="M 952.051856 264.440897 
L 977.305888 264.440897 
L 977.305888 247.599461 
L 952.051856 247.599461 
L 952.051856 264.440897 
z
" style="fill:#477ca8;stroke:#484848;stroke-linejoin:miter;"/>
   </g>
   <g id="patch_32">
    <path clip-path="url(#p536e6fe308)" d="M 977.821277 231.115633 
L 1003.075309 231.115633 
L 1003.075309 203.483113 
L 977.821277 203.483113 
L 977.821277 231.115633 
z
" style="fill:#59a257;stroke:#484848;stroke-linejoin:miter;"/>
   </g>
   <g id="patch_33">
    <path clip-path="url(#p536e6fe308)" d="M 1036.72281 230.521622 
L 1061.976843 230.521622 
L 1061.976843 210.654618 
L 1036.72281 210.654618 
L 1036.72281 230.521622 
z
" style="fill:#cb3335;stroke:#484848;stroke-linejoin:miter;"/>
   </g>
   <g id="patch_34">
    <path clip-path="url(#p536e6fe308)" d="M 1062.492232 218.920162 
L 1087.746264 218.920162 
L 1087.746264 213.075 
L 1062.492232 213.075 
L 1062.492232 218.920162 
z
" style="fill:#477ca8;stroke:#484848;stroke-linejoin:miter;"/>
   </g>
   <g id="patch_35">
    <path clip-path="url(#p536e6fe308)" d="M 1088.261653 202.480645 
L 1113.515685 202.480645 
L 1113.515685 189.828948 
L 1088.261653 189.828948 
L 1088.261653 202.480645 
z
" style="fill:#59a257;stroke:#484848;stroke-linejoin:miter;"/>
   </g>
   <g id="patch_36">
    <path clip-path="url(#p536e6fe308)" d="M 1147.163187 254.395946 
L 1172.417219 254.395946 
L 1172.417219 242.666129 
L 1147.163187 242.666129 
L 1147.163187 254.395946 
z
" style="fill:#cb3335;stroke:#484848;stroke-linejoin:miter;"/>
   </g>
   <g id="patch_37">
    <path clip-path="url(#p536e6fe308)" d="M 1172.932608 275.072507 
L 1198.18664 275.072507 
L 1198.18664 262.648021 
L 1172.932608 262.648021 
L 1172.932608 275.072507 
z
" style="fill:#477ca8;stroke:#484848;stroke-linejoin:miter;"/>
   </g>
   <g id="patch_38">
    <path clip-path="url(#p536e6fe308)" d="M 1198.702029 233.962005 
L 1223.956061 233.962005 
L 1223.956061 217.093548 
L 1198.702029 217.093548 
L 1198.702029 233.962005 
z
" style="fill:#59a257;stroke:#484848;stroke-linejoin:miter;"/>
   </g>
   <g id="patch_39">
    <path clip-path="url(#p536e6fe308)" d="M 854.238496 450.9 
L 854.238496 450.9 
L 854.238496 450.9 
L 854.238496 450.9 
z
" style="fill:#cb3335;stroke:#484848;stroke-linejoin:miter;stroke-width:0.5;"/>
   </g>
   <g id="patch_40">
    <path clip-path="url(#p536e6fe308)" d="M 854.238496 450.9 
L 854.238496 450.9 
L 854.238496 450.9 
L 854.238496 450.9 
z
" style="fill:#477ca8;stroke:#484848;stroke-linejoin:miter;stroke-width:0.5;"/>
   </g>
   <g id="patch_41">
    <path clip-path="url(#p536e6fe308)" d="M 854.238496 450.9 
L 854.238496 450.9 
L 854.238496 450.9 
L 854.238496 450.9 
z
" style="fill:#59a257;stroke:#484848;stroke-linejoin:miter;stroke-width:0.5;"/>
   </g>
   <g id="matplotlib.axis_3">
    <g id="xtick_5">
     <g id="line2d_86">
      <g>
       <use style="stroke:#000000;stroke-width:0.8;" x="854.238496" xlink:href="#m096bb4d19e" y="315"/>
      </g>
     </g>
     <g id="text_20">
      <!-- LR -->
      <g transform="translate(845.223871 332.94175)scale(0.144 -0.144)">
       <use xlink:href="#DejaVuSans-76"/>
       <use x="55.712891" xlink:href="#DejaVuSans-82"/>
      </g>
     </g>
    </g>
    <g id="xtick_6">
     <g id="line2d_87">
      <g>
       <use style="stroke:#000000;stroke-width:0.8;" x="964.678872" xlink:href="#m096bb4d19e" y="315"/>
      </g>
     </g>
     <g id="text_21">
      <!-- SVM -->
      <g transform="translate(948.970497 332.94175)scale(0.144 -0.144)">
       <use xlink:href="#DejaVuSans-83"/>
       <use x="63.476562" xlink:href="#DejaVuSans-86"/>
       <use x="131.884766" xlink:href="#DejaVuSans-77"/>
      </g>
     </g>
    </g>
    <g id="xtick_7">
     <g id="line2d_88">
      <g>
       <use style="stroke:#000000;stroke-width:0.8;" x="1075.119248" xlink:href="#m096bb4d19e" y="315"/>
      </g>
     </g>
     <g id="text_22">
      <!-- RF -->
      <g transform="translate(1065.975248 332.94175)scale(0.144 -0.144)">
       <use xlink:href="#DejaVuSans-82"/>
       <use x="69.482422" xlink:href="#DejaVuSans-70"/>
      </g>
     </g>
    </g>
    <g id="xtick_8">
     <g id="line2d_89">
      <g>
       <use style="stroke:#000000;stroke-width:0.8;" x="1185.559624" xlink:href="#m096bb4d19e" y="315"/>
      </g>
     </g>
     <g id="text_23">
      <!-- ANN -->
      <g transform="translate(1169.861374 332.94175)scale(0.144 -0.144)">
       <use xlink:href="#DejaVuSans-65"/>
       <use x="68.408203" xlink:href="#DejaVuSans-78"/>
       <use x="143.212891" xlink:href="#DejaVuSans-78"/>
      </g>
     </g>
    </g>
    <g id="text_24">
     <!-- Pesticide (With Ref Region) -->
     <defs>
      <path d="M 19.671875 64.796875 
L 19.671875 37.40625 
L 32.078125 37.40625 
Q 38.96875 37.40625 42.71875 40.96875 
Q 46.484375 44.53125 46.484375 51.125 
Q 46.484375 57.671875 42.71875 61.234375 
Q 38.96875 64.796875 32.078125 64.796875 
z
M 9.8125 72.90625 
L 32.078125 72.90625 
Q 44.34375 72.90625 50.609375 67.359375 
Q 56.890625 61.8125 56.890625 51.125 
Q 56.890625 40.328125 50.609375 34.8125 
Q 44.34375 29.296875 32.078125 29.296875 
L 19.671875 29.296875 
L 19.671875 0 
L 9.8125 0 
z
" id="DejaVuSans-80"/>
      <path d="M 44.28125 53.078125 
L 44.28125 44.578125 
Q 40.484375 46.53125 36.375 47.5 
Q 32.28125 48.484375 27.875 48.484375 
Q 21.1875 48.484375 17.84375 46.4375 
Q 14.5 44.390625 14.5 40.28125 
Q 14.5 37.15625 16.890625 35.375 
Q 19.28125 33.59375 26.515625 31.984375 
L 29.59375 31.296875 
Q 39.15625 29.25 43.1875 25.515625 
Q 47.21875 21.78125 47.21875 15.09375 
Q 47.21875 7.46875 41.1875 3.015625 
Q 35.15625 -1.421875 24.609375 -1.421875 
Q 20.21875 -1.421875 15.453125 -0.5625 
Q 10.6875 0.296875 5.421875 2 
L 5.421875 11.28125 
Q 10.40625 8.6875 15.234375 7.390625 
Q 20.0625 6.109375 24.8125 6.109375 
Q 31.15625 6.109375 34.5625 8.28125 
Q 37.984375 10.453125 37.984375 14.40625 
Q 37.984375 18.0625 35.515625 20.015625 
Q 33.0625 21.96875 24.703125 23.78125 
L 21.578125 24.515625 
Q 13.234375 26.265625 9.515625 29.90625 
Q 5.8125 33.546875 5.8125 39.890625 
Q 5.8125 47.609375 11.28125 51.796875 
Q 16.75 56 26.8125 56 
Q 31.78125 56 36.171875 55.265625 
Q 40.578125 54.546875 44.28125 53.078125 
z
" id="DejaVuSans-115"/>
     </defs>
     <g transform="translate(938.245866 350.87825)scale(0.144 -0.144)">
      <use xlink:href="#DejaVuSans-80"/>
      <use x="60.255859" xlink:href="#DejaVuSans-101"/>
      <use x="121.779297" xlink:href="#DejaVuSans-115"/>
      <use x="173.878906" xlink:href="#DejaVuSans-116"/>
      <use x="213.087891" xlink:href="#DejaVuSans-105"/>
      <use x="240.871094" xlink:href="#DejaVuSans-99"/>
      <use x="295.851562" xlink:href="#DejaVuSans-105"/>
      <use x="323.634766" xlink:href="#DejaVuSans-100"/>
      <use x="387.111328" xlink:href="#DejaVuSans-101"/>
      <use x="448.634766" xlink:href="#DejaVuSans-32"/>
      <use x="480.421875" xlink:href="#DejaVuSans-40"/>
      <use x="519.435547" xlink:href="#DejaVuSans-87"/>
      <use x="618.28125" xlink:href="#DejaVuSans-105"/>
      <use x="646.064453" xlink:href="#DejaVuSans-116"/>
      <use x="685.273438" xlink:href="#DejaVuSans-104"/>
      <use x="748.652344" xlink:href="#DejaVuSans-32"/>
      <use x="780.439453" xlink:href="#DejaVuSans-82"/>
      <use x="849.859375" xlink:href="#DejaVuSans-101"/>
      <use x="911.382812" xlink:href="#DejaVuSans-102"/>
      <use x="946.587891" xlink:href="#DejaVuSans-32"/>
      <use x="978.375" xlink:href="#DejaVuSans-82"/>
      <use x="1047.794922" xlink:href="#DejaVuSans-101"/>
      <use x="1109.318359" xlink:href="#DejaVuSans-103"/>
      <use x="1172.794922" xlink:href="#DejaVuSans-105"/>
      <use x="1200.578125" xlink:href="#DejaVuSans-111"/>
      <use x="1261.759766" xlink:href="#DejaVuSans-110"/>
      <use x="1325.138672" xlink:href="#DejaVuSans-41"/>
     </g>
    </g>
   </g>
   <g id="matplotlib.axis_4">
    <g id="ytick_10">
     <g id="line2d_90">
      <g>
       <use style="stroke:#000000;stroke-width:0.8;" x="776.930233" xlink:href="#m7e630c68fb" y="315"/>
      </g>
     </g>
     <g id="text_25">
      <!-- 0.20 -->
      <g transform="translate(737.867733 320.470875)scale(0.144 -0.144)">
       <use xlink:href="#DejaVuSans-48"/>
       <use x="63.623047" xlink:href="#DejaVuSans-46"/>
       <use x="95.410156" xlink:href="#DejaVuSans-50"/>
       <use x="159.033203" xlink:href="#DejaVuSans-48"/>
      </g>
     </g>
    </g>
    <g id="ytick_11">
     <g id="line2d_91">
      <g>
       <use style="stroke:#000000;stroke-width:0.8;" x="776.930233" xlink:href="#m7e630c68fb" y="281.025"/>
      </g>
     </g>
     <g id="text_26">
      <!-- 0.25 -->
      <g transform="translate(737.867733 286.495875)scale(0.144 -0.144)">
       <use xlink:href="#DejaVuSans-48"/>
       <use x="63.623047" xlink:href="#DejaVuSans-46"/>
       <use x="95.410156" xlink:href="#DejaVuSans-50"/>
       <use x="159.033203" xlink:href="#DejaVuSans-53"/>
      </g>
     </g>
    </g>
    <g id="ytick_12">
     <g id="line2d_92">
      <g>
       <use style="stroke:#000000;stroke-width:0.8;" x="776.930233" xlink:href="#m7e630c68fb" y="247.05"/>
      </g>
     </g>
     <g id="text_27">
      <!-- 0.30 -->
      <g transform="translate(737.867733 252.520875)scale(0.144 -0.144)">
       <use xlink:href="#DejaVuSans-48"/>
       <use x="63.623047" xlink:href="#DejaVuSans-46"/>
       <use x="95.410156" xlink:href="#DejaVuSans-51"/>
       <use x="159.033203" xlink:href="#DejaVuSans-48"/>
      </g>
     </g>
    </g>
    <g id="ytick_13">
     <g id="line2d_93">
      <g>
       <use style="stroke:#000000;stroke-width:0.8;" x="776.930233" xlink:href="#m7e630c68fb" y="213.075"/>
      </g>
     </g>
     <g id="text_28">
      <!-- 0.35 -->
      <g transform="translate(737.867733 218.545875)scale(0.144 -0.144)">
       <use xlink:href="#DejaVuSans-48"/>
       <use x="63.623047" xlink:href="#DejaVuSans-46"/>
       <use x="95.410156" xlink:href="#DejaVuSans-51"/>
       <use x="159.033203" xlink:href="#DejaVuSans-53"/>
      </g>
     </g>
    </g>
    <g id="ytick_14">
     <g id="line2d_94">
      <g>
       <use style="stroke:#000000;stroke-width:0.8;" x="776.930233" xlink:href="#m7e630c68fb" y="179.1"/>
      </g>
     </g>
     <g id="text_29">
      <!-- 0.40 -->
      <g transform="translate(737.867733 184.570875)scale(0.144 -0.144)">
       <use xlink:href="#DejaVuSans-48"/>
       <use x="63.623047" xlink:href="#DejaVuSans-46"/>
       <use x="95.410156" xlink:href="#DejaVuSans-52"/>
       <use x="159.033203" xlink:href="#DejaVuSans-48"/>
      </g>
     </g>
    </g>
    <g id="ytick_15">
     <g id="line2d_95">
      <g>
       <use style="stroke:#000000;stroke-width:0.8;" x="776.930233" xlink:href="#m7e630c68fb" y="145.125"/>
      </g>
     </g>
     <g id="text_30">
      <!-- 0.45 -->
      <g transform="translate(737.867733 150.595875)scale(0.144 -0.144)">
       <use xlink:href="#DejaVuSans-48"/>
       <use x="63.623047" xlink:href="#DejaVuSans-46"/>
       <use x="95.410156" xlink:href="#DejaVuSans-52"/>
       <use x="159.033203" xlink:href="#DejaVuSans-53"/>
      </g>
     </g>
    </g>
    <g id="ytick_16">
     <g id="line2d_96">
      <g>
       <use style="stroke:#000000;stroke-width:0.8;" x="776.930233" xlink:href="#m7e630c68fb" y="111.15"/>
      </g>
     </g>
     <g id="text_31">
      <!-- 0.50 -->
      <g transform="translate(737.867733 116.620875)scale(0.144 -0.144)">
       <use xlink:href="#DejaVuSans-48"/>
       <use x="63.623047" xlink:href="#DejaVuSans-46"/>
       <use x="95.410156" xlink:href="#DejaVuSans-53"/>
       <use x="159.033203" xlink:href="#DejaVuSans-48"/>
      </g>
     </g>
    </g>
    <g id="ytick_17">
     <g id="line2d_97">
      <g>
       <use style="stroke:#000000;stroke-width:0.8;" x="776.930233" xlink:href="#m7e630c68fb" y="77.175"/>
      </g>
     </g>
     <g id="text_32">
      <!-- 0.55 -->
      <g transform="translate(737.867733 82.645875)scale(0.144 -0.144)">
       <use xlink:href="#DejaVuSans-48"/>
       <use x="63.623047" xlink:href="#DejaVuSans-46"/>
       <use x="95.410156" xlink:href="#DejaVuSans-53"/>
       <use x="159.033203" xlink:href="#DejaVuSans-53"/>
      </g>
     </g>
    </g>
    <g id="ytick_18">
     <g id="line2d_98">
      <g>
       <use style="stroke:#000000;stroke-width:0.8;" x="776.930233" xlink:href="#m7e630c68fb" y="43.2"/>
      </g>
     </g>
     <g id="text_33">
      <!-- 0.60 -->
      <g transform="translate(737.867733 48.670875)scale(0.144 -0.144)">
       <use xlink:href="#DejaVuSans-48"/>
       <use x="63.623047" xlink:href="#DejaVuSans-46"/>
       <use x="95.410156" xlink:href="#DejaVuSans-54"/>
       <use x="159.033203" xlink:href="#DejaVuSans-48"/>
      </g>
     </g>
    </g>
    <g id="text_34">
     <!-- Accuracy -->
     <g transform="translate(730.872983 212.097375)rotate(-90)scale(0.144 -0.144)">
      <use xlink:href="#DejaVuSans-65"/>
      <use x="68.392578" xlink:href="#DejaVuSans-99"/>
      <use x="123.373047" xlink:href="#DejaVuSans-99"/>
      <use x="178.353516" xlink:href="#DejaVuSans-117"/>
      <use x="241.732422" xlink:href="#DejaVuSans-114"/>
      <use x="282.845703" xlink:href="#DejaVuSans-97"/>
      <use x="344.125" xlink:href="#DejaVuSans-99"/>
      <use x="399.105469" xlink:href="#DejaVuSans-121"/>
     </g>
    </g>
   </g>
   <g id="line2d_99">
    <path clip-path="url(#p536e6fe308)" d="M 828.469075 259.062269 
L 828.469075 259.567106 
" style="fill:none;stroke:#484848;stroke-linecap:square;"/>
   </g>
   <g id="line2d_100">
    <path clip-path="url(#p536e6fe308)" d="M 828.469075 256.757143 
L 828.469075 256.757143 
" style="fill:none;stroke:#484848;stroke-linecap:square;"/>
   </g>
   <g id="line2d_101">
    <path clip-path="url(#p536e6fe308)" d="M 822.155567 259.567106 
L 834.782583 259.567106 
" style="fill:none;stroke:#484848;stroke-linecap:square;"/>
   </g>
   <g id="line2d_102">
    <path clip-path="url(#p536e6fe308)" d="M 822.155567 256.757143 
L 834.782583 256.757143 
" style="fill:none;stroke:#484848;stroke-linecap:square;"/>
   </g>
   <g id="line2d_103">
    <g clip-path="url(#p536e6fe308)">
     <use style="fill:#484848;stroke:#484848;stroke-linejoin:miter;" x="828.469075" xlink:href="#m0467c346b9" y="243.377027"/>
    </g>
   </g>
   <g id="line2d_104">
    <path clip-path="url(#p536e6fe308)" d="M 854.238496 275.072507 
L 854.238496 278.783905 
" style="fill:none;stroke:#484848;stroke-linecap:square;"/>
   </g>
   <g id="line2d_105">
    <path clip-path="url(#p536e6fe308)" d="M 854.238496 265.414865 
L 854.238496 265.414865 
" style="fill:none;stroke:#484848;stroke-linecap:square;"/>
   </g>
   <g id="line2d_106">
    <path clip-path="url(#p536e6fe308)" d="M 847.924988 278.783905 
L 860.552004 278.783905 
" style="fill:none;stroke:#484848;stroke-linecap:square;"/>
   </g>
   <g id="line2d_107">
    <path clip-path="url(#p536e6fe308)" d="M 847.924988 265.414865 
L 860.552004 265.414865 
" style="fill:none;stroke:#484848;stroke-linecap:square;"/>
   </g>
   <g id="line2d_108">
    <g clip-path="url(#p536e6fe308)">
     <use style="fill:#484848;stroke:#484848;stroke-linejoin:miter;" x="854.238496" xlink:href="#m0467c346b9" y="236.321052"/>
    </g>
   </g>
   <g id="line2d_109">
    <path clip-path="url(#p536e6fe308)" d="M 880.007917 227.380263 
L 880.007917 229.284097 
" style="fill:none;stroke:#484848;stroke-linecap:square;"/>
   </g>
   <g id="line2d_110">
    <path clip-path="url(#p536e6fe308)" d="M 880.007917 215.266935 
L 880.007917 207.068866 
" style="fill:none;stroke:#484848;stroke-linecap:square;"/>
   </g>
   <g id="line2d_111">
    <path clip-path="url(#p536e6fe308)" d="M 873.694409 229.284097 
L 886.321425 229.284097 
" style="fill:none;stroke:#484848;stroke-linecap:square;"/>
   </g>
   <g id="line2d_112">
    <path clip-path="url(#p536e6fe308)" d="M 873.694409 207.068866 
L 886.321425 207.068866 
" style="fill:none;stroke:#484848;stroke-linecap:square;"/>
   </g>
   <g id="line2d_113"/>
   <g id="line2d_114">
    <path clip-path="url(#p536e6fe308)" d="M 938.909451 261.741892 
L 938.909451 269.819525 
" style="fill:none;stroke:#484848;stroke-linecap:square;"/>
   </g>
   <g id="line2d_115">
    <path clip-path="url(#p536e6fe308)" d="M 938.909451 242.104852 
L 938.909451 234.532894 
" style="fill:none;stroke:#484848;stroke-linecap:square;"/>
   </g>
   <g id="line2d_116">
    <path clip-path="url(#p536e6fe308)" d="M 932.595943 269.819525 
L 945.222959 269.819525 
" style="fill:none;stroke:#484848;stroke-linecap:square;"/>
   </g>
   <g id="line2d_117">
    <path clip-path="url(#p536e6fe308)" d="M 932.595943 234.532894 
L 945.222959 234.532894 
" style="fill:none;stroke:#484848;stroke-linecap:square;"/>
   </g>
   <g id="line2d_118"/>
   <g id="line2d_119">
    <path clip-path="url(#p536e6fe308)" d="M 964.678872 264.440897 
L 964.678872 266.719737 
" style="fill:none;stroke:#484848;stroke-linecap:square;"/>
   </g>
   <g id="line2d_120">
    <path clip-path="url(#p536e6fe308)" d="M 964.678872 247.599461 
L 964.678872 235.359677 
" style="fill:none;stroke:#484848;stroke-linecap:square;"/>
   </g>
   <g id="line2d_121">
    <path clip-path="url(#p536e6fe308)" d="M 958.365364 266.719737 
L 970.99238 266.719737 
" style="fill:none;stroke:#484848;stroke-linecap:square;"/>
   </g>
   <g id="line2d_122">
    <path clip-path="url(#p536e6fe308)" d="M 958.365364 235.359677 
L 970.99238 235.359677 
" style="fill:none;stroke:#484848;stroke-linecap:square;"/>
   </g>
   <g id="line2d_123"/>
   <g id="line2d_124">
    <path clip-path="url(#p536e6fe308)" d="M 990.448293 231.115633 
L 990.448293 234.194595 
" style="fill:none;stroke:#484848;stroke-linecap:square;"/>
   </g>
   <g id="line2d_125">
    <path clip-path="url(#p536e6fe308)" d="M 990.448293 203.483113 
L 990.448293 202.480645 
" style="fill:none;stroke:#484848;stroke-linecap:square;"/>
   </g>
   <g id="line2d_126">
    <path clip-path="url(#p536e6fe308)" d="M 984.134785 234.194595 
L 996.761801 234.194595 
" style="fill:none;stroke:#484848;stroke-linecap:square;"/>
   </g>
   <g id="line2d_127">
    <path clip-path="url(#p536e6fe308)" d="M 984.134785 202.480645 
L 996.761801 202.480645 
" style="fill:none;stroke:#484848;stroke-linecap:square;"/>
   </g>
   <g id="line2d_128"/>
   <g id="line2d_129">
    <path clip-path="url(#p536e6fe308)" d="M 1049.349827 230.521622 
L 1049.349827 232.94717 
" style="fill:none;stroke:#484848;stroke-linecap:square;"/>
   </g>
   <g id="line2d_130">
    <path clip-path="url(#p536e6fe308)" d="M 1049.349827 210.654618 
L 1049.349827 191.617106 
" style="fill:none;stroke:#484848;stroke-linecap:square;"/>
   </g>
   <g id="line2d_131">
    <path clip-path="url(#p536e6fe308)" d="M 1043.036319 232.94717 
L 1055.663335 232.94717 
" style="fill:none;stroke:#484848;stroke-linecap:square;"/>
   </g>
   <g id="line2d_132">
    <path clip-path="url(#p536e6fe308)" d="M 1043.036319 191.617106 
L 1055.663335 191.617106 
" style="fill:none;stroke:#484848;stroke-linecap:square;"/>
   </g>
   <g id="line2d_133"/>
   <g id="line2d_134">
    <path clip-path="url(#p536e6fe308)" d="M 1075.119248 218.920162 
L 1075.119248 218.920162 
" style="fill:none;stroke:#484848;stroke-linecap:square;"/>
   </g>
   <g id="line2d_135">
    <path clip-path="url(#p536e6fe308)" d="M 1075.119248 213.075 
L 1075.119248 205.275989 
" style="fill:none;stroke:#484848;stroke-linecap:square;"/>
   </g>
   <g id="line2d_136">
    <path clip-path="url(#p536e6fe308)" d="M 1068.80574 218.920162 
L 1081.432756 218.920162 
" style="fill:none;stroke:#484848;stroke-linecap:square;"/>
   </g>
   <g id="line2d_137">
    <path clip-path="url(#p536e6fe308)" d="M 1068.80574 205.275989 
L 1081.432756 205.275989 
" style="fill:none;stroke:#484848;stroke-linecap:square;"/>
   </g>
   <g id="line2d_138">
    <g clip-path="url(#p536e6fe308)">
     <use style="fill:#484848;stroke:#484848;stroke-linejoin:miter;" x="1075.119248" xlink:href="#m0467c346b9" y="247.05"/>
    </g>
   </g>
   <g id="line2d_139">
    <path clip-path="url(#p536e6fe308)" d="M 1100.888669 202.480645 
L 1100.888669 217.826121 
" style="fill:none;stroke:#484848;stroke-linecap:square;"/>
   </g>
   <g id="line2d_140">
    <path clip-path="url(#p536e6fe308)" d="M 1100.888669 189.828948 
L 1100.888669 189.828948 
" style="fill:none;stroke:#484848;stroke-linecap:square;"/>
   </g>
   <g id="line2d_141">
    <path clip-path="url(#p536e6fe308)" d="M 1094.575161 217.826121 
L 1107.202177 217.826121 
" style="fill:none;stroke:#484848;stroke-linecap:square;"/>
   </g>
   <g id="line2d_142">
    <path clip-path="url(#p536e6fe308)" d="M 1094.575161 189.828948 
L 1107.202177 189.828948 
" style="fill:none;stroke:#484848;stroke-linecap:square;"/>
   </g>
   <g id="line2d_143">
    <g clip-path="url(#p536e6fe308)">
     <use style="fill:#484848;stroke:#484848;stroke-linejoin:miter;" x="1100.888669" xlink:href="#m0467c346b9" y="164.408108"/>
    </g>
   </g>
   <g id="line2d_144">
    <path clip-path="url(#p536e6fe308)" d="M 1159.790203 254.395946 
L 1159.790203 262.251752 
" style="fill:none;stroke:#484848;stroke-linecap:square;"/>
   </g>
   <g id="line2d_145">
    <path clip-path="url(#p536e6fe308)" d="M 1159.790203 242.666129 
L 1159.790203 236.321052 
" style="fill:none;stroke:#484848;stroke-linecap:square;"/>
   </g>
   <g id="line2d_146">
    <path clip-path="url(#p536e6fe308)" d="M 1153.476695 262.251752 
L 1166.103711 262.251752 
" style="fill:none;stroke:#484848;stroke-linecap:square;"/>
   </g>
   <g id="line2d_147">
    <path clip-path="url(#p536e6fe308)" d="M 1153.476695 236.321052 
L 1166.103711 236.321052 
" style="fill:none;stroke:#484848;stroke-linecap:square;"/>
   </g>
   <g id="line2d_148"/>
   <g id="line2d_149">
    <path clip-path="url(#p536e6fe308)" d="M 1185.559624 275.072507 
L 1185.559624 280.106757 
" style="fill:none;stroke:#484848;stroke-linecap:square;"/>
   </g>
   <g id="line2d_150">
    <path clip-path="url(#p536e6fe308)" d="M 1185.559624 262.648021 
L 1185.559624 252.414474 
" style="fill:none;stroke:#484848;stroke-linecap:square;"/>
   </g>
   <g id="line2d_151">
    <path clip-path="url(#p536e6fe308)" d="M 1179.246116 280.106757 
L 1191.873132 280.106757 
" style="fill:none;stroke:#484848;stroke-linecap:square;"/>
   </g>
   <g id="line2d_152">
    <path clip-path="url(#p536e6fe308)" d="M 1179.246116 252.414474 
L 1191.873132 252.414474 
" style="fill:none;stroke:#484848;stroke-linecap:square;"/>
   </g>
   <g id="line2d_153"/>
   <g id="line2d_154">
    <path clip-path="url(#p536e6fe308)" d="M 1211.329045 233.962005 
L 1211.329045 256.232433 
" style="fill:none;stroke:#484848;stroke-linecap:square;"/>
   </g>
   <g id="line2d_155">
    <path clip-path="url(#p536e6fe308)" d="M 1211.329045 217.093548 
L 1211.329045 211.286842 
" style="fill:none;stroke:#484848;stroke-linecap:square;"/>
   </g>
   <g id="line2d_156">
    <path clip-path="url(#p536e6fe308)" d="M 1205.015537 256.232433 
L 1217.642553 256.232433 
" style="fill:none;stroke:#484848;stroke-linecap:square;"/>
   </g>
   <g id="line2d_157">
    <path clip-path="url(#p536e6fe308)" d="M 1205.015537 211.286842 
L 1217.642553 211.286842 
" style="fill:none;stroke:#484848;stroke-linecap:square;"/>
   </g>
   <g id="line2d_158"/>
   <g id="line2d_159">
    <path clip-path="url(#p536e6fe308)" d="M 815.842058 257.279032 
L 841.096091 257.279032 
" style="fill:none;stroke:#484848;stroke-linecap:square;"/>
   </g>
   <g id="line2d_160">
    <path clip-path="url(#p536e6fe308)" d="M 841.611479 271.891936 
L 866.865512 271.891936 
" style="fill:none;stroke:#484848;stroke-linecap:square;"/>
   </g>
   <g id="line2d_161">
    <path clip-path="url(#p536e6fe308)" d="M 867.380901 221.339189 
L 892.634933 221.339189 
" style="fill:none;stroke:#484848;stroke-linecap:square;"/>
   </g>
   <g id="line2d_162">
    <path clip-path="url(#p536e6fe308)" d="M 926.282434 242.666129 
L 951.536467 242.666129 
" style="fill:none;stroke:#484848;stroke-linecap:square;"/>
   </g>
   <g id="line2d_163">
    <path clip-path="url(#p536e6fe308)" d="M 952.051856 248.886487 
L 977.305888 248.886487 
" style="fill:none;stroke:#484848;stroke-linecap:square;"/>
   </g>
   <g id="line2d_164">
    <path clip-path="url(#p536e6fe308)" d="M 977.821277 207.710526 
L 1003.075309 207.710526 
" style="fill:none;stroke:#484848;stroke-linecap:square;"/>
   </g>
   <g id="line2d_165">
    <path clip-path="url(#p536e6fe308)" d="M 1036.72281 220.746774 
L 1061.976843 220.746774 
" style="fill:none;stroke:#484848;stroke-linecap:square;"/>
   </g>
   <g id="line2d_166">
    <path clip-path="url(#p536e6fe308)" d="M 1062.492232 216.463342 
L 1087.746264 216.463342 
" style="fill:none;stroke:#484848;stroke-linecap:square;"/>
   </g>
   <g id="line2d_167">
    <path clip-path="url(#p536e6fe308)" d="M 1088.261653 192.65337 
L 1113.515685 192.65337 
" style="fill:none;stroke:#484848;stroke-linecap:square;"/>
   </g>
   <g id="line2d_168">
    <path clip-path="url(#p536e6fe308)" d="M 1147.163187 244.719261 
L 1172.417219 244.719261 
" style="fill:none;stroke:#484848;stroke-linecap:square;"/>
   </g>
   <g id="line2d_169">
    <path clip-path="url(#p536e6fe308)" d="M 1172.932608 262.758871 
L 1198.18664 262.758871 
" style="fill:none;stroke:#484848;stroke-linecap:square;"/>
   </g>
   <g id="line2d_170">
    <path clip-path="url(#p536e6fe308)" d="M 1198.702029 231.115633 
L 1223.956061 231.115633 
" style="fill:none;stroke:#484848;stroke-linecap:square;"/>
   </g>
   <g id="patch_42">
    <path d="M 776.930233 315 
L 776.930233 43.2 
" style="fill:none;stroke:#000000;stroke-linecap:square;stroke-linejoin:miter;stroke-width:0.8;"/>
   </g>
   <g id="patch_43">
    <path d="M 1296 315 
L 1296 43.2 
" style="fill:none;stroke:#000000;stroke-linecap:square;stroke-linejoin:miter;stroke-width:0.8;"/>
   </g>
   <g id="patch_44">
    <path d="M 776.930233 315 
L 1296 315 
" style="fill:none;stroke:#000000;stroke-linecap:square;stroke-linejoin:miter;stroke-width:0.8;"/>
   </g>
   <g id="patch_45">
    <path d="M 776.930233 43.2 
L 1296 43.2 
" style="fill:none;stroke:#000000;stroke-linecap:square;stroke-linejoin:miter;stroke-width:0.8;"/>
   </g>
   <g id="legend_2">
    <g id="patch_46">
     <path d="M 1180.51875 139.6665 
L 1285.92 139.6665 
Q 1288.8 139.6665 1288.8 136.7865 
L 1288.8 53.28 
Q 1288.8 50.4 1285.92 50.4 
L 1180.51875 50.4 
Q 1177.63875 50.4 1177.63875 53.28 
L 1177.63875 136.7865 
Q 1177.63875 139.6665 1180.51875 139.6665 
z
" style="fill:#ffffff;opacity:0.8;stroke:#cccccc;stroke-linejoin:miter;"/>
    </g>
    <g id="text_35">
     <!-- color_channel -->
     <g transform="translate(1183.39875 67.10175)scale(0.144 -0.144)">
      <use xlink:href="#DejaVuSans-99"/>
      <use x="54.980469" xlink:href="#DejaVuSans-111"/>
      <use x="116.162109" xlink:href="#DejaVuSans-108"/>
      <use x="143.945312" xlink:href="#DejaVuSans-111"/>
      <use x="205.126953" xlink:href="#DejaVuSans-114"/>
      <use x="246.240234" xlink:href="#DejaVuSans-95"/>
      <use x="296.240234" xlink:href="#DejaVuSans-99"/>
      <use x="351.220703" xlink:href="#DejaVuSans-104"/>
      <use x="414.599609" xlink:href="#DejaVuSans-97"/>
      <use x="475.878906" xlink:href="#DejaVuSans-110"/>
      <use x="539.257812" xlink:href="#DejaVuSans-110"/>
      <use x="602.636719" xlink:href="#DejaVuSans-101"/>
      <use x="664.160156" xlink:href="#DejaVuSans-108"/>
     </g>
    </g>
    <g id="patch_47">
     <path d="M 1197.53775 88.63875 
L 1226.33775 88.63875 
L 1226.33775 78.55875 
L 1197.53775 78.55875 
z
" style="fill:#cb3335;stroke:#484848;stroke-linejoin:miter;stroke-width:0.5;"/>
    </g>
    <g id="text_36">
     <!-- RGB -->
     <g transform="translate(1237.85775 88.63875)scale(0.144 -0.144)">
      <use xlink:href="#DejaVuSans-82"/>
      <use x="69.482422" xlink:href="#DejaVuSans-71"/>
      <use x="146.972656" xlink:href="#DejaVuSans-66"/>
     </g>
    </g>
    <g id="patch_48">
     <path d="M 1197.53775 109.77525 
L 1226.33775 109.77525 
L 1226.33775 99.69525 
L 1197.53775 99.69525 
z
" style="fill:#477ca8;stroke:#484848;stroke-linejoin:miter;stroke-width:0.5;"/>
    </g>
    <g id="text_37">
     <!-- LAB -->
     <g transform="translate(1237.85775 109.77525)scale(0.144 -0.144)">
      <use xlink:href="#DejaVuSans-76"/>
      <use x="55.744141" xlink:href="#DejaVuSans-65"/>
      <use x="124.152344" xlink:href="#DejaVuSans-66"/>
     </g>
    </g>
    <g id="patch_49">
     <path d="M 1197.53775 130.91175 
L 1226.33775 130.91175 
L 1226.33775 120.83175 
L 1197.53775 120.83175 
z
" style="fill:#59a257;stroke:#484848;stroke-linejoin:miter;stroke-width:0.5;"/>
    </g>
    <g id="text_38">
     <!-- HSV -->
     <g transform="translate(1237.85775 130.91175)scale(0.144 -0.144)">
      <use xlink:href="#DejaVuSans-72"/>
      <use x="75.195312" xlink:href="#DejaVuSans-83"/>
      <use x="138.671875" xlink:href="#DejaVuSans-86"/>
     </g>
    </g>
   </g>
  </g>
 </g>
 <defs>
  <clipPath id="p4e781deae8">
   <rect height="271.8" width="519.069767" x="180" y="43.2"/>
  </clipPath>
  <clipPath id="p536e6fe308">
   <rect height="271.8" width="519.069767" x="776.930233" y="43.2"/>
  </clipPath>
 </defs>
</svg>
